<svg width="48" height="48" viewBox="0 0 48 48" fill="none" xmlns="http://www.w3.org/2000/svg">
<circle cx="24" cy="24" r="24" fill="#3E593E"/>
<g clip-path="url(#clip0_117_971)">
<path d="M34.8598 9.70896C34.5429 9.52807 34.1992 9.41675 33.8377 9.37964C33.7439 9.37036 33.6502 9.36572 33.5565 9.36572H33.2842H28.2404H15.9745C14.4658 9.36572 13.2427 10.6413 13.2427 12.2044V13.6191H12.2072C11.9305 13.6238 11.7073 13.8557 11.7073 14.1433V16.7501C11.7073 17.0376 11.9305 17.2696 12.2072 17.2696H13.2427V19.227H12.2072C11.9305 19.2316 11.7073 19.4635 11.7073 19.7511V22.3579C11.7073 22.6455 11.9305 22.8774 12.2072 22.8774H13.2427V24.8348H12.2072C11.9305 24.8348 11.7073 25.0713 11.7073 25.3589V27.9657C11.7073 28.2533 11.9305 28.4852 12.2072 28.4852H13.2427V30.4426H12.2072C11.9305 30.4426 11.7073 30.6792 11.7073 30.9667V33.5735C11.7073 33.8611 11.9305 34.093 12.2072 34.093H13.2427V35.7953C13.2427 37.3631 14.4702 38.634 15.9745 38.634H33.5565C33.6502 38.634 33.7439 38.6294 33.8332 38.6201C34.1948 38.583 34.5385 38.4717 34.8554 38.2908C35.083 38.1609 35.2973 37.9986 35.4847 37.7991C36.0025 37.261 36.2837 36.5514 36.2837 35.7907V12.2044C36.2837 11.4484 35.998 10.7341 35.4847 10.196C35.3017 10.0012 35.0919 9.83884 34.8598 9.70896ZM31.6104 15.3771C31.4988 15.2565 31.3649 15.1823 31.1818 15.1916C31.0212 15.1916 30.8694 15.2565 30.7578 15.3771L28.7537 17.4736L28.7403 10.4047H33.5922L33.6056 17.4783L31.6104 15.3771Z" fill="white"/>
</g>
<defs>
<clipPath id="clip0_117_971">
<rect width="24.5854" height="29.2683" fill="white" transform="translate(11.7073 9.36572)"/>
</clipPath>
</defs>
</svg>