<svg width="16" height="18" viewBox="0 0 16 18" fill="none" xmlns="http://www.w3.org/2000/svg">
<path d="M4.55381 0.0516551C5.07099 0.240256 5.27761 0.657702 5.39031 1.12981C5.61446 2.06981 5.82672 3.01221 6.0371 3.95522C6.06903 4.09757 6.0778 4.24713 6.0803 4.39309C6.08719 4.84417 5.86679 5.15049 5.42287 5.30366C5.11294 5.41057 4.8005 5.51268 4.48556 5.60458C4.18001 5.69347 4.01096 5.89589 3.93895 6.17819C3.8419 6.55659 3.85443 6.93079 3.98716 7.30499C4.7429 9.43006 6.05275 11.1905 7.8178 12.6453C8.17657 12.9414 8.58292 13.1901 8.99115 13.4231C9.25037 13.5709 9.56281 13.6021 9.86898 13.5721C10.0888 13.5505 10.2678 13.4574 10.3962 13.2778C10.569 13.0345 10.7493 12.796 10.9234 12.554C11.2771 12.0639 11.6891 11.9353 12.267 12.172C12.5795 12.2999 12.875 12.4663 13.1743 12.6219C13.7378 12.9162 14.2994 13.2147 14.8604 13.5138C15.0045 13.5907 15.1453 13.673 15.2825 13.7601C15.6588 13.9997 15.9618 14.291 16.0006 14.7553C15.9825 14.8743 15.9649 14.9932 15.9468 15.1121C15.8228 15.3842 15.7201 15.6677 15.5711 15.9266C14.9087 17.0756 13.9069 17.7748 12.5419 17.9628C12.2695 18 11.9897 17.9892 11.7135 18.0006C11.4994 17.9706 11.2853 17.9411 11.0711 17.9111C10.8169 17.8354 10.559 17.7688 10.3085 17.6823C9.05189 17.2474 7.98998 16.5146 7.00196 15.6731C5.81795 14.6652 4.79173 13.5198 3.84002 12.3113C2.67418 10.8314 1.61728 9.28651 0.852156 7.57408C0.426391 6.62206 0.105189 5.64122 0.0237927 4.60151C0 4.29879 0.00688737 3.99366 0 3.68974C0.0313062 3.48432 0.0619864 3.2789 0.0932926 3.07348C0.11145 3.02843 0.133365 2.98398 0.146513 2.93713C0.567895 1.43493 1.59787 0.523759 3.14315 0.134544C3.47875 0.0498532 3.83502 0.0426455 4.18189 0C4.30586 0.0174186 4.42983 0.0342365 4.55381 0.0516551Z" fill="#1E8135"/>
</svg>
