<svg width="51" height="51" viewBox="0 0 51 51" fill="none" xmlns="http://www.w3.org/2000/svg">
<circle cx="25.5" cy="25.5" r="25.5" fill="#3E593E"/>
<g clip-path="url(#clip0_117_934)">
<path d="M7.46338 25.5C7.46338 35.459 15.5362 43.5366 25.5 43.5366C35.459 43.5366 43.5366 35.4638 43.5366 25.5C43.5366 15.5362 35.459 7.46338 25.5 7.46338C15.5362 7.46338 7.46338 15.5362 7.46338 25.5ZM39.4282 25.5C39.4282 33.1936 33.1936 39.4282 25.5 39.4282C17.8063 39.4282 11.5718 33.1936 11.5718 25.5C11.5718 17.8063 17.8063 11.5718 25.5 11.5718C33.1888 11.5718 39.4282 17.8063 39.4282 25.5Z" fill="white"/>
<path d="M24.8616 14.8643V25.4328C24.8616 25.74 25.1111 25.9944 25.4231 25.9944C25.7303 25.9944 25.9847 25.7448 25.9847 25.4328V14.8643C25.9847 14.5523 25.7351 14.3027 25.4231 14.3027C25.1111 14.3027 24.8616 14.5571 24.8616 14.8643Z" fill="white"/>
<path d="M15.5937 29.5269C15.3105 29.6469 15.0945 29.786 15.1185 29.8436C15.1425 29.8964 15.3921 29.8484 15.6753 29.7284L25.4327 25.6633C25.7159 25.5433 25.9318 25.4041 25.9078 25.3465C25.8838 25.2937 25.6343 25.3417 25.3511 25.4617L15.5937 29.5269Z" fill="white"/>
<path d="M25.6872 24.689C25.236 24.689 24.8665 25.0537 24.8665 25.5097C24.8665 25.9608 25.2312 26.3304 25.6872 26.3304H32.6177C33.0688 26.3304 33.4384 25.9656 33.4384 25.5097C33.4384 25.0585 33.0688 24.689 32.6177 24.689H25.6872Z" fill="white"/>
<path d="M24.1897 25.404C24.1897 26.1767 24.8136 26.8006 25.5864 26.8006C26.3591 26.8006 26.983 26.1767 26.983 25.404C26.983 24.6313 26.3591 24.0073 25.5864 24.0073C24.8136 24.0121 24.1897 24.6361 24.1897 25.404Z" fill="white"/>
</g>
<defs>
<clipPath id="clip0_117_934">
<rect width="36.0732" height="36.0732" fill="white" transform="translate(7.46338 7.46338)"/>
</clipPath>
</defs>
</svg>