<svg width="69" height="64" viewBox="0 0 69 64" fill="none" xmlns="http://www.w3.org/2000/svg">
<path d="M33.0893 0.788376C15.2647 0.788376 0.81543 14.7618 0.81543 31.9995C0.81543 49.2371 15.2647 63.2116 33.0893 63.2116H35.3919C53.2165 63.2116 67.6658 49.2382 67.6658 31.9995C67.6658 14.7618 53.2165 0.788376 35.3919 0.788376H33.0893Z" fill="#5F6DB2"/>
<path fill-rule="evenodd" clip-rule="evenodd" d="M35.3921 0.788376C53.2041 0.788376 67.6661 14.773 67.6661 31.9994C67.6661 49.2247 53.2041 63.2105 35.3921 63.2105C17.5802 63.2116 3.11816 49.2259 3.11816 32.0005C3.11816 14.7741 17.5802 0.788376 35.3921 0.788376Z" fill="#A59EAE"/>
<path d="M35.392 58.7604C20.1332 58.7604 7.71973 46.7557 7.71973 32.0006C7.71973 17.2443 20.1332 5.24072 35.392 5.24072C50.6496 5.24072 63.0631 17.2454 63.0631 32.0006C63.0642 46.7557 50.6508 58.7604 35.392 58.7604Z" fill="white"/>
<path fill-rule="evenodd" clip-rule="evenodd" d="M13.1205 20.1533L15.2453 21.3404C15.5132 21.49 15.8562 21.4018 16.0109 21.1427C16.1656 20.8836 16.0744 20.552 15.8065 20.4023L13.6817 19.2153C13.4138 19.0656 13.0709 19.1538 12.9161 19.4129C12.7614 19.672 12.8526 20.0037 13.1205 20.1533Z" fill="#757474"/>
<path fill-rule="evenodd" clip-rule="evenodd" d="M34.2705 7.40603V11.1146C34.2705 11.7132 34.7728 12.199 35.3918 12.199C36.0107 12.199 36.513 11.7132 36.513 11.1146V7.40603C36.513 6.80747 36.0107 6.3217 35.3918 6.3217C34.7728 6.32282 34.2705 6.80747 34.2705 7.40603Z" fill="#757474"/>
<path fill-rule="evenodd" clip-rule="evenodd" d="M34.2705 52.8072V56.5158C34.2705 57.1143 34.7728 57.6001 35.3918 57.6001C36.0107 57.6001 36.513 57.1143 36.513 56.5158V52.8072C36.513 52.2086 36.0107 51.7229 35.3918 51.7229C34.7728 51.724 34.2705 52.2086 34.2705 52.8072Z" fill="#757474"/>
<path fill-rule="evenodd" clip-rule="evenodd" d="M60.7833 30.8771H56.9484C56.3295 30.8771 55.8271 31.3629 55.8271 31.9614C55.8271 32.56 56.3295 33.0457 56.9484 33.0457H60.7833C61.4023 33.0457 61.9046 32.56 61.9046 31.9614C61.9034 31.3629 61.4023 30.8771 60.7833 30.8771Z" fill="#757474"/>
<path fill-rule="evenodd" clip-rule="evenodd" d="M13.8361 30.8771H10.0011C9.3822 30.8771 8.87988 31.3629 8.87988 31.9614C8.87988 32.56 9.3822 33.0457 10.0011 33.0457H13.8361C14.455 33.0457 14.9573 32.56 14.9573 31.9614C14.9573 31.3629 14.455 30.8771 13.8361 30.8771Z" fill="#757474"/>
<path fill-rule="evenodd" clip-rule="evenodd" d="M54.9765 43.5217L57.1013 44.7088C57.3692 44.8584 57.7121 44.7702 57.8669 44.5111C58.0216 44.252 57.9304 43.9204 57.6625 43.7707L55.5377 42.5837C55.2698 42.434 54.9269 42.5222 54.7721 42.7813C54.6162 43.0404 54.7086 43.3732 54.9765 43.5217Z" fill="#757474"/>
<path fill-rule="evenodd" clip-rule="evenodd" d="M22.2098 10.9672L23.4361 13.0219C23.5909 13.281 23.9338 13.3704 24.2029 13.2207C24.4708 13.0711 24.5632 12.7394 24.4073 12.4803L23.1809 10.4256C23.0262 10.1665 22.6832 10.0772 22.4153 10.2279C22.1474 10.3765 22.0551 10.7081 22.2098 10.9672Z" fill="#757474"/>
<path fill-rule="evenodd" clip-rule="evenodd" d="M46.3743 51.4425L47.6018 53.4973C47.7565 53.7564 48.1006 53.8457 48.3685 53.6961C48.6364 53.5464 48.7288 53.2148 48.5729 52.9557L47.3455 50.9009C47.1907 50.6418 46.8478 50.5525 46.5799 50.7022C46.312 50.8518 46.2207 51.1835 46.3743 51.4425Z" fill="#5F6DB2"/>
<path fill-rule="evenodd" clip-rule="evenodd" d="M57.1013 19.2153L54.9765 20.4023C54.7086 20.552 54.6162 20.8837 54.7721 21.1427C54.9269 21.4018 55.2698 21.4912 55.5377 21.3404L57.6625 20.1533C57.9304 20.0037 58.0228 19.672 57.8669 19.4129C57.7121 19.1538 57.3692 19.0645 57.1013 19.2153Z" fill="#757474"/>
<path fill-rule="evenodd" clip-rule="evenodd" d="M15.2468 42.5837L13.122 43.7707C12.8541 43.9204 12.7617 44.252 12.9176 44.5111C13.0724 44.7702 13.4153 44.8595 13.6832 44.7088L15.808 43.5217C16.0759 43.3721 16.1683 43.0404 16.0124 42.7813C15.8576 42.5222 15.5147 42.434 15.2468 42.5837Z" fill="#757474"/>
<path fill-rule="evenodd" clip-rule="evenodd" d="M47.6023 10.4256L46.3748 12.4803C46.2201 12.7394 46.3125 13.0711 46.5804 13.2207C46.8483 13.3704 47.1912 13.2821 47.346 13.0219L48.5734 10.9672C48.7282 10.7081 48.637 10.3765 48.3691 10.2268C48.1 10.0772 47.7571 10.1665 47.6023 10.4256Z" fill="#5F6DB2"/>
<path fill-rule="evenodd" clip-rule="evenodd" d="M23.4364 50.9009L22.2101 52.9557C22.0554 53.2148 22.1466 53.5464 22.4145 53.6961C22.6824 53.8457 23.0253 53.7564 23.1812 53.4973L24.4076 51.4425C24.5623 51.1835 24.4711 50.8518 24.2032 50.7022C23.9353 50.5525 23.5923 50.6418 23.4364 50.9009Z" fill="#757474"/>
<path d="M33.262 35.7393C33.262 35.7393 33.3867 35.4266 33.6038 34.8805C33.8209 34.3334 34.1234 33.5494 34.4791 32.6047C34.8336 31.6599 35.2482 30.5589 35.6627 29.3673C35.8683 28.771 36.0807 28.1535 36.2967 27.527C36.5149 26.9016 36.7378 26.2673 36.9595 25.6319C37.1801 24.9965 37.4191 24.3667 37.6581 23.7502C37.8983 23.1338 38.135 22.5263 38.3925 21.949C38.6477 21.3716 38.9122 20.8211 39.1755 20.303C39.4341 19.7837 39.6801 19.2923 39.9064 18.8389C40.1328 18.3856 40.3406 17.9701 40.5242 17.6027C40.7067 17.2342 40.8776 16.9171 41.0138 16.6546C41.2898 16.1309 41.4572 15.835 41.4572 15.835C41.6374 15.5156 42.0508 15.3983 42.381 15.5737C42.6628 15.7222 42.7921 16.036 42.7125 16.323C42.7125 16.323 42.6212 16.6479 42.4457 17.2119C42.3545 17.4922 42.2517 17.8361 42.1201 18.2236C41.9896 18.6122 41.8429 19.0511 41.6813 19.5302C41.5208 20.0093 41.3464 20.5274 41.1616 21.0757C40.9815 21.6251 40.7783 22.2002 40.5485 22.7888C40.3221 23.3773 40.0588 23.9736 39.7909 24.58C39.5219 25.1863 39.2448 25.7994 38.9491 26.4069C38.6547 27.0144 38.3614 27.6219 38.0715 28.2193C37.7794 28.8157 37.4907 29.4031 37.2124 29.9715C36.6581 31.1094 36.1708 32.1826 35.7505 33.1016C35.3313 34.0218 34.9895 34.7901 34.7539 35.3306C34.5207 35.8711 34.3856 36.1793 34.3856 36.1793C34.2562 36.4774 33.9006 36.6182 33.5923 36.4931C33.2897 36.3669 33.1454 36.033 33.262 35.7393Z" fill="#1E8135"/>
<path d="M32.3338 29.3327C32.3338 29.3327 33.149 29.8832 34.3985 30.6728C35.0244 31.0659 35.7541 31.5259 36.5359 32.0184C37.3211 32.5064 38.1433 33.0469 38.9886 33.5561C39.8258 34.0765 40.6814 34.5724 41.4932 35.0235C41.9043 35.2424 42.3616 35.373 42.79 35.5059C43.2196 35.6355 43.5891 35.8075 43.887 36.0252C44.4817 36.4596 44.8431 37.0023 45.0429 37.4535C45.245 37.9024 45.2819 38.2642 45.2819 38.2642C45.3339 38.7656 44.9875 39.2168 44.4921 39.3251C44.4921 39.3251 44.126 39.4055 43.6214 39.3631C43.1156 39.3229 42.469 39.1632 41.8535 38.7556C41.5463 38.5524 41.26 38.2676 40.9967 37.9147C40.7311 37.5641 40.4574 37.1855 40.1122 36.8784C39.4124 36.2765 38.6549 35.6489 37.8789 35.047C37.111 34.4328 36.32 33.8498 35.5925 33.2859C34.8615 32.7242 34.1791 32.2016 33.5959 31.7526C32.425 30.8581 31.6271 30.2841 31.6271 30.2841C31.3592 30.091 31.3026 29.7236 31.5024 29.4645C31.6964 29.2087 32.0659 29.1529 32.3338 29.3327Z" fill="#1E8135"/>
<path fill-rule="evenodd" clip-rule="evenodd" d="M35.3915 30.2752C36.3753 30.2752 37.1744 31.048 37.1744 32.0005C37.1744 32.9519 36.3753 33.7247 35.3915 33.7247C34.4065 33.7247 33.6074 32.9519 33.6074 32.0005C33.6074 31.048 34.4077 30.2752 35.3915 30.2752Z" fill="#757474"/>
<path d="M35.3917 64H33.0892C32.6388 64 32.2739 63.6471 32.2739 63.2116C32.2739 62.7761 32.6388 62.4232 33.0892 62.4232H35.3917C52.7383 62.4232 66.8504 48.7747 66.8504 31.9994C66.8504 23.9971 63.6633 16.4403 57.8769 10.7216C57.5616 10.41 57.5674 9.91084 57.8896 9.60709C58.2106 9.30223 58.7268 9.30781 59.042 9.61938C65.1287 15.634 68.4809 23.5828 68.4809 31.9994C68.4809 49.6446 53.6378 64 35.3917 64ZM6.32799 50.2387C6.06587 50.2387 5.80951 50.117 5.65247 49.8914C1.95383 44.5993 0 38.4127 0 31.9994C0 14.3554 14.8442 0 33.0892 0H35.3917C35.8421 0 36.207 0.352882 36.207 0.7884C36.207 1.22392 35.8421 1.5768 35.3917 1.5768H33.0892C15.7426 1.5768 1.6305 15.2242 1.6305 31.9994C1.6305 38.0967 3.48848 43.9784 7.00236 49.0092C7.2541 49.3699 7.15595 49.8602 6.78296 50.1036C6.64324 50.1952 6.48504 50.2387 6.32799 50.2387Z" fill="url(#paint0_linear_25_1076)"/>
<defs>
<linearGradient id="paint0_linear_25_1076" x1="0" y1="31.9998" x2="68.4814" y2="31.9998" gradientUnits="userSpaceOnUse">
<stop offset="0.000608961" stop-color="#008D36"/>
<stop offset="1" stop-color="#1E592A"/>
</linearGradient>
</defs>
</svg>
