<svg width="24" height="24" viewBox="0 0 24 24" fill="none" xmlns="http://www.w3.org/2000/svg">
<path d="M12.061 9.76147C10.8399 9.76147 9.84277 10.7586 9.84277 11.9797C9.84277 13.2007 10.8399 14.1979 12.061 14.1979C13.282 14.1979 14.2792 13.2007 14.2792 11.9797C14.2792 10.7586 13.282 9.76147 12.061 9.76147Z" fill="#277F27"/>
<path d="M14.8086 6.27466H9.19191C7.591 6.27466 6.28857 7.57709 6.28857 9.17799V14.7947C6.28857 16.3956 7.591 17.6981 9.19191 17.6981H14.8086C16.4095 17.6981 17.712 16.3956 17.712 14.7947V9.17799C17.712 7.57709 16.4095 6.27466 14.8086 6.27466ZM12.0613 15.4459C10.1484 15.4459 8.59496 13.8925 8.59496 11.9796C8.59496 10.0666 10.1484 8.51321 12.0613 8.51321C13.9743 8.51321 15.5277 10.0666 15.5277 11.9796C15.5209 13.8925 13.9675 15.4459 12.0613 15.4459ZM15.7244 9.11016C15.2699 9.11016 14.8968 8.74385 14.8968 8.28257C14.8968 7.82808 15.2631 7.45499 15.7244 7.45499C16.1789 7.45499 16.552 7.82129 16.552 8.28257C16.552 8.74385 16.1789 9.11016 15.7244 9.11016Z" fill="#277F27"/>
<path d="M12 0C5.37253 0 0 5.37253 0 12C0 18.6275 5.37253 24 12 24C18.6275 24 24 18.6275 24 12C24 5.37253 18.6275 0 12 0ZM19.0345 14.7948C19.0345 17.1283 17.1351 19.0209 14.8084 19.0209H9.19163C6.85811 19.0209 4.96552 17.1283 4.96552 14.7948V9.17807C4.96552 6.84454 6.85811 4.95195 9.19163 4.95195H14.8084C17.1419 4.95195 19.0345 6.84454 19.0345 9.17807V14.7948Z" fill="#277F27"/>
</svg>
