<svg width="42" height="51" viewBox="0 0 42 51" fill="none" xmlns="http://www.w3.org/2000/svg">
<path fill-rule="evenodd" clip-rule="evenodd" d="M21 10.1175C26.4702 10.1175 31.0016 14.153 31.8129 19.4235H25.1876C24.5193 17.7572 22.8968 16.5804 21 16.5804C19.1032 16.5804 17.4807 17.7572 16.8124 19.4235H10.1871C10.9983 14.153 15.5298 10.1175 21 10.1175ZM31.8129 22.8141H29.5105C25.7362 22.8297 22.6843 25.9058 22.6843 29.7042V31.9919C27.378 31.2617 31.0866 27.5331 31.8129 22.8141ZM21 19.338C21.9774 19.338 22.7693 20.1342 22.7693 21.1169C22.7693 22.0995 21.9774 22.8957 21 22.8957C20.0226 22.8957 19.2307 22.0995 19.2307 21.1169C19.2307 20.1342 20.0226 19.338 21 19.338ZM38.33 24.4803L38.2952 24.6551C38.3068 24.5969 38.3184 24.5386 38.33 24.4803ZM38.4536 23.7424C38.4343 23.8628 38.4189 23.9793 38.3996 24.0997C38.4189 23.9793 38.4343 23.8589 38.4536 23.7424ZM35.2125 22.8141H38.5657H41.9305C42.0193 21.6878 42.0193 20.5537 41.9305 19.4235H38.5657C38.4768 18.4952 38.3184 17.5708 38.0866 16.6581C38.3184 17.5669 38.4768 18.4913 38.5657 19.4235H35.2125C34.378 12.2731 28.3322 6.72686 20.9961 6.72686C13.66 6.72686 7.61809 12.2731 6.78365 19.4235H3.19866C3.49999 15.7298 5.12251 11.9585 8.50661 8.5562C15.3791 1.64667 26.6131 1.64667 33.4895 8.5562C35.6992 10.7778 37.202 13.4577 37.9901 16.293C37.9669 16.2076 37.9398 16.1182 37.9167 16.0328H41.3896C40.505 12.4129 38.6661 8.98731 35.8615 6.17146C27.6794 -2.05861 14.3206 -2.05861 6.13851 6.17146C3.33387 8.98731 1.49116 12.4129 0.610365 16.0328H3.8554C3.50385 17.163 3.28752 18.2971 3.1948 19.4235H0.0656625C-0.0231896 20.5498 -0.0231896 21.6839 0.0656625 22.8141H3.27979C3.43045 23.9715 3.70474 25.1057 4.08332 26.2048H0.610365C1.49502 29.8208 3.33387 33.2425 6.13465 36.0584L20.9961 50.9999L35.8576 36.0584C38.6584 33.2425 40.4972 29.8208 41.3819 26.2048H37.9089L37.9244 26.1466C37.1209 28.9041 35.6413 31.5025 33.4856 33.6697C21.5022 45.7216 4.95639 35.5845 3.28365 22.8141H6.78365C7.61809 29.9645 13.6639 35.5107 21 35.5107C28.3361 35.5107 34.378 29.9606 35.2125 22.8141ZM10.1871 22.8141H12.4895C16.2638 22.8297 19.3157 25.9058 19.3157 29.7042V31.9919C14.622 31.2617 10.9133 27.5331 10.1871 22.8141Z" fill="white"/>
</svg>
