<svg width="472" height="465" viewBox="0 0 472 465" fill="none" xmlns="http://www.w3.org/2000/svg">
<rect width="472" height="465" fill="white"/>
<path d="M236 465C366.339 465 472 360.906 472 232.5C472 104.094 366.339 0 236 0C105.661 0 0 104.094 0 232.5C0 360.906 105.661 465 236 465Z" fill="#3E593E"/>
<g clip-path="url(#clip0_0_1)">
<path d="M219.422 203.372C223.028 202.073 225.497 198.812 225.497 195.054V194.639C225.497 188.393 219.138 183.944 213.119 186.099C190.749 194.114 175.079 215.809 176.924 240.71C178.883 267.186 200.799 288.549 227.967 290.511C253.545 292.363 275.83 277.19 284.121 255.44C286.363 249.581 281.792 243.363 275.376 243.363H274.979C271.118 243.363 267.769 245.767 266.406 249.249C260.841 263.593 246.023 273.569 229.046 272.188C211.36 270.778 197.109 256.877 195.718 239.66C194.355 223.132 204.631 208.733 219.422 203.372Z" fill="white"/>
<path d="M244.261 157.332C248.122 157.885 251.955 156.116 253.885 152.8C257.122 147.217 253.601 140.17 247.072 139.23C241.053 138.373 234.836 138.014 228.506 138.235C174.368 140.087 130.99 183.808 130.876 236.539C130.734 291.702 177.377 336.474 234.269 335.34C289.797 334.235 334.395 289.104 333.431 235.046C333.346 230.735 333.004 226.507 332.38 222.362C331.415 216.005 324.176 212.578 318.441 215.756C315.034 217.635 313.218 221.366 313.757 225.125C314.353 229.022 314.637 233.002 314.637 237.064C314.467 281.697 277.59 317.293 231.742 317.045C186.802 316.769 150.266 281.421 149.698 237.755C149.13 192.596 185.468 156.613 231.827 156.448C236.057 156.448 240.201 156.752 244.261 157.332Z" fill="white"/>
<path d="M360.229 192.763C356.454 194.835 354.637 199.174 355.801 203.265C359.208 215.12 360.826 227.696 360.429 240.685C358.356 306.82 302.884 360.269 234.893 361.651C162.047 363.143 102.431 305.189 103.85 234.273C105.156 168 160.145 113.86 228.221 111.842C241.564 111.455 254.51 113.058 266.689 116.402C270.89 117.535 275.319 115.794 277.476 112.091C280.457 106.95 277.732 100.373 271.884 98.7699C258.484 95.0943 244.346 93.2426 229.698 93.4913C149.755 94.7626 85.0853 158.742 85.0001 236.567C84.8866 315.746 151.146 380.167 232.48 380.002C312.508 379.836 378.257 316.575 379.307 238.667C379.506 224.628 377.603 211.058 373.913 198.18C372.266 192.486 365.538 189.833 360.229 192.763Z" fill="white"/>
<path d="M276.482 180.656L225.495 230.264C221.833 233.857 221.833 239.633 225.495 243.226C227.341 245.022 229.753 245.907 232.166 245.907C234.58 245.907 236.965 245.022 238.81 243.226L289.768 193.617L300.783 182.894C301.69 183.06 302.628 183.143 303.593 183.143H339.817C344.189 183.143 348.306 181.485 351.371 178.473L373.77 156.667C378.795 151.803 379.987 144.397 376.808 138.234C373.628 132.071 366.786 128.644 359.774 129.666L354.692 130.412L339.022 132.734L341.407 117.478L342.173 112.531C343.224 105.705 339.675 99.0446 333.373 95.9493C327.07 92.854 319.462 94.0147 314.438 98.9064L292.038 120.739C288.944 123.752 287.241 127.732 287.241 131.988V167.252C287.241 168.192 287.326 169.104 287.496 169.988L276.482 180.656ZM306.063 132.9L322.472 116.926L319.973 133.121C319.718 134.834 319.746 136.548 320.03 138.206C320.598 141.412 322.159 144.397 324.572 146.746C326.985 149.095 330.051 150.615 333.345 151.168C335.048 151.472 336.836 151.499 338.567 151.223L355.204 148.791L338.795 164.765H319.348H306.035V151.803V132.9H306.063Z" fill="white"/>
<path d="M384.246 88.6817C380.585 85.0889 374.623 85.0889 370.933 88.6817L355.716 103.495C356.539 107.032 356.709 110.763 356.142 114.522L355.858 116.291L357.703 116.014C359.208 115.793 360.741 115.683 362.274 115.683C364.602 115.683 366.845 115.932 369.03 116.429L384.246 101.616C387.937 98.0782 387.937 92.2468 384.246 88.6817Z" fill="white"/>
</g>
<defs>
<clipPath id="clip0_0_1">
<rect width="302" height="294" fill="white" transform="translate(85 86)"/>
</clipPath>
</defs>
</svg>
