<svg width="62" height="60" viewBox="0 0 62 60" fill="none" xmlns="http://www.w3.org/2000/svg">
<path d="M29.7645 0.73877C13.7308 0.73877 0.733398 13.8389 0.733398 29.9992C0.733398 46.1594 13.7308 59.2606 29.7645 59.2606H31.8356C47.8693 59.2606 60.8667 46.1605 60.8667 29.9992C60.8667 13.8389 47.8693 0.73877 31.8356 0.73877H29.7645Z" fill="#5F6DB2"/>
<path fill-rule="evenodd" clip-rule="evenodd" d="M31.8358 0.73877C47.858 0.73877 60.8669 13.8493 60.8669 29.9991C60.8669 46.1479 47.858 59.2595 31.8358 59.2595C15.8136 59.2605 2.80469 46.1489 2.80469 30.0002C2.80469 13.8504 15.8136 0.73877 31.8358 0.73877Z" fill="#A59EAE"/>
<path d="M31.8351 55.0877C18.1095 55.0877 6.94336 43.8334 6.94336 30.0004C6.94336 16.1664 18.1095 4.91309 31.8351 4.91309C45.5596 4.91309 56.7258 16.1675 56.7258 30.0004C56.7268 43.8334 45.5606 55.0877 31.8351 55.0877Z" fill="white"/>
<path fill-rule="evenodd" clip-rule="evenodd" d="M11.8024 18.8935L13.7137 20.0064C13.9547 20.1467 14.2632 20.0639 14.4024 19.8211C14.5416 19.5782 14.4595 19.2672 14.2185 19.127L12.3072 18.0141C12.0662 17.8738 11.7577 17.9565 11.6185 18.1994C11.4793 18.4423 11.5614 18.7532 11.8024 18.8935Z" fill="#757474"/>
<path fill-rule="evenodd" clip-rule="evenodd" d="M30.8262 6.9438V10.4206C30.8262 10.9818 31.278 11.4372 31.8348 11.4372C32.3915 11.4372 32.8434 10.9818 32.8434 10.4206V6.9438C32.8434 6.38266 32.3915 5.92725 31.8348 5.92725C31.278 5.92829 30.8262 6.38266 30.8262 6.9438Z" fill="#757474"/>
<path fill-rule="evenodd" clip-rule="evenodd" d="M30.8262 49.5073V52.9841C30.8262 53.5452 31.278 54.0006 31.8348 54.0006C32.3915 54.0006 32.8434 53.5452 32.8434 52.9841V49.5073C32.8434 48.9461 32.3915 48.4907 31.8348 48.4907C31.278 48.4918 30.8262 48.9461 30.8262 49.5073Z" fill="#757474"/>
<path fill-rule="evenodd" clip-rule="evenodd" d="M54.6749 28.9478H51.2254C50.6686 28.9478 50.2168 29.4032 50.2168 29.9643C50.2168 30.5254 50.6686 30.9808 51.2254 30.9808H54.6749C55.2317 30.9808 55.6835 30.5254 55.6835 29.9643C55.6825 29.4032 55.2317 28.9478 54.6749 28.9478Z" fill="#757474"/>
<path fill-rule="evenodd" clip-rule="evenodd" d="M12.4455 28.9478H8.9959C8.43915 28.9478 7.9873 29.4032 7.9873 29.9643C7.9873 30.5254 8.43915 30.9808 8.9959 30.9808H12.4455C13.0023 30.9808 13.4541 30.5254 13.4541 29.9643C13.4541 29.4032 13.0023 28.9478 12.4455 28.9478Z" fill="#757474"/>
<path fill-rule="evenodd" clip-rule="evenodd" d="M49.4523 40.8022L51.3635 41.9151C51.6045 42.0554 51.913 41.9727 52.0522 41.7298C52.1914 41.4869 52.1093 41.1759 51.8683 41.0357L49.9571 39.9228C49.7161 39.7825 49.4076 39.8652 49.2684 40.1081C49.1282 40.351 49.2113 40.663 49.4523 40.8022Z" fill="#757474"/>
<path fill-rule="evenodd" clip-rule="evenodd" d="M19.9786 10.2823L21.0818 12.2086C21.2209 12.4515 21.5294 12.5352 21.7715 12.395C22.0124 12.2547 22.0955 11.9437 21.9553 11.7009L20.8522 9.77456C20.713 9.53168 20.4045 9.44793 20.1635 9.58926C19.9225 9.7285 19.8394 10.0394 19.9786 10.2823Z" fill="#757474"/>
<path fill-rule="evenodd" clip-rule="evenodd" d="M41.7145 48.228L42.8187 50.1543C42.9579 50.3972 43.2674 50.4809 43.5084 50.3407C43.7494 50.2004 43.8325 49.8894 43.6922 49.6465L42.5881 47.7202C42.4489 47.4773 42.1404 47.3936 41.8994 47.5338C41.6584 47.6741 41.5763 47.9851 41.7145 48.228Z" fill="#5F6DB2"/>
<path fill-rule="evenodd" clip-rule="evenodd" d="M51.3635 18.015L49.4523 19.1279C49.2113 19.2682 49.1282 19.5792 49.2684 19.8221C49.4076 20.065 49.7161 20.1487 49.9571 20.0074L51.8683 18.8945C52.1093 18.7542 52.1924 18.4432 52.0522 18.2004C51.913 17.9575 51.6045 17.8737 51.3635 18.015Z" fill="#757474"/>
<path fill-rule="evenodd" clip-rule="evenodd" d="M13.7152 39.9228L11.8038 41.0357C11.5628 41.1759 11.4797 41.4869 11.62 41.7298C11.7592 41.9727 12.0677 42.0564 12.3087 41.9151L14.22 40.8022C14.461 40.6619 14.5441 40.351 14.4039 40.1081C14.2647 39.8652 13.9561 39.7825 13.7152 39.9228Z" fill="#757474"/>
<path fill-rule="evenodd" clip-rule="evenodd" d="M42.8191 9.77439L41.715 11.7007C41.5758 11.9436 41.6589 12.2545 41.8998 12.3948C42.1408 12.5351 42.4493 12.4524 42.5885 12.2084L43.6927 10.2821C43.8319 10.0393 43.7498 9.72833 43.5088 9.58804C43.2668 9.44776 42.9583 9.53151 42.8191 9.77439Z" fill="#5F6DB2"/>
<path fill-rule="evenodd" clip-rule="evenodd" d="M21.082 47.7202L19.9789 49.6465C19.8397 49.8894 19.9218 50.2004 20.1627 50.3407C20.4037 50.4809 20.7122 50.3972 20.8525 50.1543L21.9556 48.228C22.0948 47.9851 22.0127 47.6741 21.7717 47.5338C21.5307 47.3936 21.2222 47.4773 21.082 47.7202Z" fill="#757474"/>
<path d="M29.9201 33.5061C29.9201 33.5061 30.0322 33.2129 30.2275 32.701C30.4228 32.188 30.6949 31.453 31.0149 30.5673C31.3338 29.6817 31.7067 28.6494 32.0796 27.5323C32.2644 26.9733 32.4556 26.3943 32.6498 25.807C32.8461 25.2207 33.0466 24.6261 33.246 24.0304C33.4444 23.4347 33.6594 22.8442 33.8745 22.2663C34.0905 21.6884 34.3035 21.1189 34.5351 20.5776C34.7646 20.0364 35.0025 19.5202 35.2393 19.0345C35.472 18.5476 35.6933 18.087 35.8968 17.6619C36.1004 17.2369 36.2874 16.8474 36.4526 16.503C36.6167 16.1575 36.7704 15.8602 36.893 15.6142C37.1412 15.1232 37.2918 14.8457 37.2918 14.8457C37.4539 14.5463 37.8257 14.4364 38.1228 14.6007C38.3763 14.74 38.4926 15.0342 38.4209 15.3032C38.4209 15.3032 38.3389 15.6079 38.181 16.1366C38.0989 16.3994 38.0065 16.7218 37.8881 17.0851C37.7707 17.4494 37.6388 17.8609 37.4934 18.31C37.349 18.7591 37.1921 19.2449 37.0259 19.7589C36.8639 20.274 36.6811 20.8132 36.4744 21.3649C36.2708 21.9166 36.034 22.4757 35.793 23.0442C35.551 23.6126 35.3017 24.1874 35.0357 24.7569C34.7709 25.3265 34.507 25.896 34.2463 26.4561C33.9835 27.0151 33.7239 27.5658 33.4735 28.0987C32.9749 29.1655 32.5366 30.1716 32.1585 31.0332C31.7814 31.8959 31.474 32.6162 31.2621 33.1229C31.0523 33.6296 30.9307 33.9185 30.9307 33.9185C30.8144 34.1981 30.4945 34.33 30.2171 34.2127C29.945 34.0944 29.8151 33.7814 29.9201 33.5061Z" fill="#1E8135"/>
<path d="M29.0849 27.5003C29.0849 27.5003 29.8183 28.0164 30.9422 28.7566C31.5051 29.1251 32.1616 29.5564 32.8648 30.0181C33.5712 30.4756 34.3107 30.9823 35.0711 31.4597C35.8241 31.9476 36.5938 32.4124 37.324 32.8354C37.6938 33.0406 38.1052 33.1631 38.4905 33.2877C38.8769 33.4091 39.2093 33.5703 39.4773 33.7745C40.0122 34.1817 40.3374 34.6905 40.5171 35.1135C40.6988 35.5344 40.7321 35.8736 40.7321 35.8736C40.7788 36.3436 40.4672 36.7666 40.0216 36.8681C40.0216 36.8681 39.6923 36.9435 39.2384 36.9037C38.7834 36.866 38.2018 36.7163 37.6481 36.3342C37.3718 36.1437 37.1142 35.8767 36.8774 35.5459C36.6385 35.2171 36.3923 34.8622 36.0817 34.5743C35.4523 34.01 34.7709 33.4217 34.0729 32.8574C33.3821 32.2816 32.6706 31.7351 32.0162 31.2064C31.3587 30.6798 30.7448 30.1898 30.2202 29.7689C29.167 28.9304 28.4492 28.3922 28.4492 28.3922C28.2082 28.2111 28.1573 27.8667 28.337 27.6238C28.5116 27.3841 28.8439 27.3317 29.0849 27.5003Z" fill="#1E8135"/>
<path fill-rule="evenodd" clip-rule="evenodd" d="M31.8353 28.3833C32.7203 28.3833 33.4391 29.1078 33.4391 30.0008C33.4391 30.8927 32.7203 31.6172 31.8353 31.6172C30.9493 31.6172 30.2305 30.8927 30.2305 30.0008C30.2305 29.1078 30.9503 28.3833 31.8353 28.3833Z" fill="#757474"/>
<path d="M31.8356 60H29.7644C29.3593 60 29.0311 59.6692 29.0311 59.2609C29.0311 58.8526 29.3593 58.5217 29.7644 58.5217H31.8356C47.4392 58.5217 60.1333 45.7263 60.1333 29.9995C60.1333 22.4972 57.2665 15.4127 52.0615 10.0515C51.7779 9.75938 51.7831 9.29141 52.0729 9.00665C52.3617 8.72084 52.826 8.72607 53.1095 9.01816C58.5846 14.6569 61.6 22.1088 61.6 29.9995C61.6 46.5419 48.2483 60 31.8356 60ZM5.69216 47.0988C5.45637 47.0988 5.22578 46.9847 5.08451 46.7732C1.75751 41.8119 0 36.0119 0 29.9995C0 13.4581 13.3527 0 29.7644 0H31.8356C32.2407 0 32.5689 0.330827 32.5689 0.739125C32.5689 1.14742 32.2407 1.47825 31.8356 1.47825H29.7644C14.1608 1.47825 1.46667 14.2727 1.46667 29.9995C1.46667 35.7157 3.13796 41.2298 6.29877 45.9462C6.52521 46.2843 6.43692 46.7439 6.10142 46.9721C5.97573 47.058 5.83343 47.0988 5.69216 47.0988Z" fill="url(#paint0_linear_326_1626)"/>
<defs>
<linearGradient id="paint0_linear_326_1626" x1="0" y1="29.9998" x2="61.6005" y2="29.9998" gradientUnits="userSpaceOnUse">
<stop offset="0.000608961" stop-color="#008D36"/>
<stop offset="1" stop-color="#1E592A"/>
</linearGradient>
</defs>
</svg>
