<svg width="26" height="25" viewBox="0 0 26 25" fill="none" xmlns="http://www.w3.org/2000/svg">
<path d="M13.5881 6.30133C10.2517 6.30133 7.53271 8.87754 7.53271 12.0386C7.53271 13.083 7.84136 14.1135 8.42191 15.0117L8.57624 15.2554L7.97364 17.393L10.2444 16.815L10.5016 16.9613C11.4422 17.4904 12.5078 17.7689 13.5954 17.7689C16.9318 17.7689 19.6508 15.1927 19.6508 12.0317C19.6508 8.87754 16.9318 6.30133 13.5881 6.30133ZM17.1522 14.204C16.9244 14.7193 16.3659 15.0535 15.8001 15.1579C15.2562 15.2554 14.808 15.0953 14.3083 14.9351C13.86 14.7959 13.4264 14.5939 13.0296 14.3572C12.2286 13.8907 11.5304 13.2641 10.9719 12.5469C10.8029 12.3241 10.6412 12.1013 10.5016 11.8645C10.3105 11.5512 10.1342 11.224 10.046 10.8758C10.0092 10.7296 9.9872 10.5764 9.9872 10.4302C9.97985 9.90106 10.193 9.35797 10.6412 9.01679C10.8984 8.81487 11.2806 8.73132 11.5672 8.8845C11.8832 9.05161 12.0448 9.47633 12.1918 9.77573C12.3094 10.0055 12.4343 10.3119 12.3902 10.5764C12.3461 10.841 12.1257 11.0569 11.9493 11.2518C11.8317 11.3841 11.817 11.4955 11.9126 11.6348C12.4858 12.5469 13.2868 13.2014 14.3303 13.5983C14.4699 13.654 14.5802 13.6331 14.6757 13.5286C14.8521 13.3198 15.0358 12.909 15.3077 12.7976C15.6678 12.6583 16.072 12.8533 16.3806 13.0273C16.6672 13.1875 17.1449 13.3894 17.2257 13.7236C17.2478 13.8837 17.2184 14.0508 17.1522 14.204Z" fill="#277F27"/>
<path d="M13 0C5.82024 0 0 5.51451 0 12.3171C0 19.1198 5.82024 24.6343 13 24.6343C20.1798 24.6343 26 19.1198 26 12.3171C26 5.51451 20.1798 0 13 0ZM13.5879 19.1128C12.3533 19.1128 11.1334 18.8204 10.0384 18.2564L5.97457 19.2869L7.06219 15.4573C6.44489 14.406 6.12889 13.2293 6.12889 12.0386C6.12889 8.13948 9.47994 4.96445 13.5953 4.96445C17.7106 4.96445 21.0616 8.13948 21.0616 12.0386C21.0616 15.9378 17.7106 19.1128 13.5879 19.1128Z" fill="#277F27"/>
</svg>
