<svg width="492" height="202" viewBox="0 0 492 202" fill="none" xmlns="http://www.w3.org/2000/svg">
<path d="M484.201 113.925C484.205 115.551 484.163 117.273 484.084 119.069C484.069 119.405 484.05 119.745 484.034 120.088C483.963 121.44 483.868 122.832 483.747 124.255C483.721 124.58 483.69 124.905 483.664 125.229C483.63 125.622 483.592 126.018 483.554 126.418C483.391 128.098 483.195 129.815 482.968 131.559C482.922 131.914 482.877 132.265 482.828 132.616C482.601 134.307 482.34 136.028 482.049 137.76C481.992 138.115 481.928 138.474 481.867 138.832C481.572 140.538 481.251 142.252 480.899 143.973C480.827 144.335 480.748 144.698 480.672 145.056C480.388 146.415 480.078 147.774 479.76 149.129C479.59 149.842 479.412 150.556 479.235 151.269C478.8 152.994 478.335 154.711 477.843 156.41C477.741 156.765 477.635 157.116 477.529 157.474C477.011 159.207 476.462 160.924 475.88 162.611C475.759 162.97 475.634 163.325 475.505 163.683C474.995 165.125 474.458 166.544 473.902 167.933C473.595 168.696 473.281 169.451 472.967 170.194C472.207 171.961 471.405 173.682 470.566 175.331C470.384 175.69 470.199 176.048 470.013 176.403C469.06 178.204 468.058 179.921 467.003 181.536C466.779 181.88 466.556 182.216 466.322 182.552C465.043 184.424 463.689 186.145 462.263 187.681C461.806 188.179 461.337 188.655 460.864 189.112C458.572 191.32 456.106 193.064 453.451 194.23C453.258 194.317 453.061 194.4 452.864 194.479C452.815 194.498 452.766 194.521 452.717 194.539C452.331 194.694 451.945 194.83 451.556 194.962L430.953 194.992L372.709 195.079L300.413 194.645L272.152 194.475L216.234 194.143L47.3331 193.132C47.3331 193.132 16.0078 174.629 16.0078 142.516C16.0078 142.075 16.0116 141.633 16.0229 141.184C16.4844 124.018 21.0951 91.3043 60.7226 74.323C63.5669 73.1039 66.5966 71.964 69.8192 70.9185C72.6975 69.9824 75.731 69.1218 78.927 68.3443C82.9893 67.3554 87.3125 66.4986 91.9118 65.7927C92.3619 65.721 92.8158 65.6531 93.2734 65.5889C95.471 65.2681 97.5777 64.8907 99.5975 64.4566C152.91 53.0275 146.502 3.63122 216.824 0.192691C223.261 -0.124364 230.342 -0.052649 238.175 0.464452C250.199 1.26464 260.105 4.18984 268.959 7.62837C278.324 11.2594 286.513 15.4641 294.785 18.3176L295.352 18.5139C303.466 21.2542 311.688 22.6583 321.205 20.922C321.666 20.839 322.131 20.7484 322.604 20.6465C333.142 18.412 342.987 16.7663 352.175 15.6566C352.364 15.634 352.553 15.6113 352.746 15.5887C374.838 12.9692 393.16 13.475 408.395 16.3927C408.584 16.4266 408.777 16.4644 408.963 16.5021C415.544 17.793 421.539 19.533 427.012 21.6693C428.54 22.2657 430.026 22.8923 431.471 23.549C431.513 23.5679 431.558 23.5868 431.604 23.6094C431.846 23.7189 432.084 23.8321 432.326 23.9416C432.557 24.0473 432.788 24.1567 433.018 24.2662C433.037 24.2775 433.06 24.2888 433.083 24.2964C434.864 25.1494 436.585 26.0477 438.245 26.9913C440.212 28.1086 442.103 29.2862 443.904 30.5242C444.418 30.8752 444.925 31.23 445.428 31.5924C447.698 33.223 449.835 34.9517 451.847 36.7596C452.244 37.1144 452.637 37.473 453.023 37.8353C454.793 39.4923 456.465 41.2135 458.046 42.9988C458.451 43.4555 458.848 43.916 459.241 44.3765C460.656 46.0486 461.995 47.7697 463.262 49.5362C463.519 49.8947 463.769 50.2533 464.022 50.6119C465.191 52.2915 466.295 54.0127 467.339 55.7678C467.566 56.1452 467.789 56.534 468.013 56.9152C468.962 58.5647 469.866 60.2405 470.717 61.939C471.035 62.5731 471.345 63.211 471.647 63.8527C472.177 64.9624 472.684 66.0834 473.175 67.2157C473.588 68.1593 473.985 69.1105 474.371 70.0654C475.055 71.7677 475.702 73.4851 476.307 75.2176C476.432 75.5761 476.557 75.9347 476.678 76.2933C477.09 77.4936 477.483 78.6976 477.862 79.913C478.021 80.4225 478.176 80.9359 478.331 81.4454C478.437 81.804 478.546 82.1701 478.652 82.5287C478.743 82.842 478.83 83.1552 478.921 83.4685C479.276 84.7292 479.62 85.9936 479.95 87.2619C479.984 87.3977 480.021 87.5374 480.055 87.6808C480.146 88.0394 480.237 88.3942 480.328 88.7528C480.751 90.4626 481.156 92.18 481.531 93.9011C481.606 94.2559 481.682 94.6107 481.761 94.9655C482.124 96.6791 482.469 98.3965 482.79 100.118C482.858 100.476 482.922 100.831 482.991 101.19C483.183 102.246 483.369 103.3 483.55 104.353C483.622 104.79 483.69 105.247 483.755 105.726C483.777 105.927 483.804 106.13 483.826 106.338C483.876 106.78 483.925 107.24 483.963 107.716C484.099 109.282 484.178 111.003 484.201 112.86C484.201 113.207 484.201 113.566 484.201 113.925Z" fill="#E9F3FB"/>
<path d="M483.747 105.722V124.259C483.721 124.583 483.69 124.908 483.664 125.233C483.63 125.625 483.592 126.021 483.554 126.422C483.391 128.101 483.195 129.819 482.968 131.562C482.922 131.917 482.877 132.268 482.828 132.619C482.601 134.31 482.34 136.031 482.049 137.764C481.992 138.119 481.928 138.477 481.867 138.836C481.572 140.542 481.251 142.255 480.899 143.977C480.827 144.339 480.748 144.701 480.672 145.06C480.388 146.419 480.078 147.777 479.76 149.132C479.59 149.846 479.412 150.559 479.235 151.273C478.8 152.997 478.334 154.715 477.843 156.413C477.741 156.768 477.635 157.119 477.529 157.478C477.011 159.21 476.462 160.928 475.88 162.615C475.759 162.973 475.634 163.328 475.505 163.687C474.995 165.129 474.458 166.548 473.902 167.937C473.595 168.699 473.281 169.454 472.967 170.198C472.207 171.964 471.405 173.685 470.566 175.335C470.384 175.693 470.199 176.052 470.013 176.407C469.06 178.207 468.058 179.924 467.003 181.54C466.779 181.883 466.556 182.219 466.322 182.555C465.043 184.427 463.689 186.149 462.263 187.685C461.806 188.183 461.337 188.659 460.864 189.115C458.572 191.323 456.106 193.067 453.45 194.233C453.258 194.32 453.061 194.403 452.864 194.483C452.815 194.501 452.766 194.524 452.717 194.543L300.409 194.645L272.148 194.475L216.23 194.143L47.3292 193.131C47.3292 193.131 16.0039 174.629 16.0039 142.516C16.0039 142.074 16.0077 141.633 16.019 141.183C16.4805 124.017 21.0912 91.304 60.7187 74.3227V89.7791H69.8153V70.9181C72.6936 69.982 75.7271 69.1215 78.9231 68.3439C82.9854 67.355 87.3086 66.4982 91.9079 65.7924C92.358 65.7207 92.8119 65.6527 93.2695 65.5886C95.4671 65.2678 97.5739 64.8903 99.5936 64.4562V87.4125H109.647V82.049L121.505 82.0981V73.4093H123.891V71.6881H124.205V73.4093H133.359V73.413H135.189V71.6919H135.503V73.413H137.712V90.6963H151.828V97.0562H159.672V93.361H166.95V78.6973H170.577V71.858H171.125V78.6973H179.825V65.8792H180.687V78.6973H186.44V78.5199H186.432V76.8931H186.44V75.3531H186.432V72.794H186.44V71.1559H186.432V68.5968H186.44V66.9587H186.432V64.3958H186.44V62.6294H186.432V60.0665H186.44V57.817H186.432V55.2541H186.44V53.5556H188.153V51.6382H188.429V53.5556H201.131V51.6382H201.403V53.5556H203.721V66.9587L205.355 66.97V66.9587H205.344V64.3958H205.355V62.6294H205.344V60.0665H205.355V58.3039H205.344V55.741H205.355V55.7335H220.757V55.741H223.405C223.541 55.809 223.677 55.8769 223.817 55.9448V70.5709H235.077V89.7791H244.17V54.2577H246.148V51.7741H246.504V54.2577H253.686V51.7741H254.042V54.2577H264.212V51.7741H264.568V54.2577H270.968V51.7741H271.323V54.2577H273.956V87.4125H284.005V82.049L295.863 82.0981V73.4093H298.25V71.6881H298.564V73.4093H307.717V73.413H309.548V71.6919H309.865V73.413H312.074V90.6963H326.194V97.0562H334.038V93.361H341.315V78.6973H344.943V71.858H345.491V78.6973H354.19V65.8792H355.045V78.6973H360.798V78.5199H360.787V76.8931H360.798V75.3531H360.787V72.794H360.798V71.1559H360.787V68.5968H360.798V66.9587H360.787V64.3958H360.798V62.6294H360.787V60.0665H360.798V57.817H360.787V55.2541H360.798V53.5556H362.515V51.6382H362.788V53.5556H375.485V51.6382H375.761V53.5556H378.08V66.9587L379.691 66.97H379.714V66.9587H379.699V64.3958H379.714V62.6294H379.699V60.0665H379.714V58.3039H379.699V55.741H379.714V55.7335H395.115V55.741H397.763C397.899 55.809 398.035 55.8769 398.175 55.9448V70.5709H417.072V89.7791H426.161V54.2577H428.139V51.7741H428.495V54.2577H435.677V51.7741H436.033V54.2577H446.203V51.7741H446.559V54.2577H455.943V87.4163H465.996V82.0528L477.854 82.1018V79.9126C478.013 80.4222 478.168 80.9355 478.323 81.4451C478.429 81.8036 478.539 82.1698 478.645 82.5283C478.735 82.8416 478.822 83.1549 478.913 83.4682C479.269 84.7288 479.613 85.9933 479.942 87.2615C479.976 87.3974 480.014 87.537 480.048 87.6805C480.139 88.039 480.229 88.3938 480.32 88.7524C480.744 90.4622 481.149 92.1796 481.523 93.9008C481.599 94.2556 481.674 94.6104 481.754 94.9652C482.117 96.6788 482.461 98.3962 482.782 100.117C482.851 100.476 482.915 100.831 482.983 101.189C483.176 102.246 483.361 103.299 483.543 104.352C483.615 104.786 483.683 105.243 483.747 105.722Z" fill="#D3E4F7"/>
<path d="M273.956 54.2578H251.231V59.878H273.956V54.2578Z" fill="#E0EEFA"/>
<path d="M273.956 62.9048H251.231V68.525H273.956V62.9048Z" fill="#E0EEFA"/>
<path d="M273.956 71.7373H251.231V77.3575H273.956V71.7373Z" fill="#E0EEFA"/>
<path d="M273.956 80.709H251.231V86.3292H273.956V80.709Z" fill="#E0EEFA"/>
<path d="M273.956 89.3677H251.231V94.9879H273.956V89.3677Z" fill="#E0EEFA"/>
<path d="M371.426 53.5518H360.824V56.9639H371.426V53.5518Z" fill="#E0EEFA"/>
<path d="M371.426 58.8057H360.824V62.2178H371.426V58.8057Z" fill="#E0EEFA"/>
<path d="M371.426 64.1694H360.824V67.5816H371.426V64.1694Z" fill="#E0EEFA"/>
<path d="M371.426 69.6196H360.824V73.0317H371.426V69.6196Z" fill="#E0EEFA"/>
<path d="M371.426 74.8774H360.824V78.2896H371.426V74.8774Z" fill="#E0EEFA"/>
<path d="M371.426 80.6636H360.824V84.0757H371.426V80.6636Z" fill="#E0EEFA"/>
<path d="M371.426 85.9141H360.824V89.3262H371.426V85.9141Z" fill="#E0EEFA"/>
<path d="M371.426 91.2773H360.824V94.6895H371.426V91.2773Z" fill="#E0EEFA"/>
<path d="M371.426 96.7275H360.824V100.14H371.426V96.7275Z" fill="#E0EEFA"/>
<path d="M371.426 101.985H360.824V105.397H371.426V101.985Z" fill="#E0EEFA"/>
<path d="M391.046 55.79H379.684V59.2022H391.046V55.79Z" fill="#E0EEFA"/>
<path d="M391.046 61.0439H379.684V64.4561H391.046V61.0439Z" fill="#E0EEFA"/>
<path d="M391.046 66.4077H379.684V69.8198H391.046V66.4077Z" fill="#E0EEFA"/>
<path d="M391.046 71.8579H379.684V75.27H391.046V71.8579Z" fill="#E0EEFA"/>
<path d="M391.046 77.1157H379.684V80.5278H391.046V77.1157Z" fill="#E0EEFA"/>
<path d="M391.046 82.5962H379.684V86.0083H391.046V82.5962Z" fill="#E0EEFA"/>
<path d="M391.046 87.8501H379.684V91.2622H391.046V87.8501Z" fill="#E0EEFA"/>
<path d="M391.046 93.2139H379.684V96.626H391.046V93.2139Z" fill="#E0EEFA"/>
<path d="M391.046 98.6602H379.684V102.072H391.046V98.6602Z" fill="#E0EEFA"/>
<path d="M391.046 103.918H379.684V107.33H391.046V103.918Z" fill="#E0EEFA"/>
<path d="M391.046 109.95H379.684V113.362H391.046V109.95Z" fill="#E0EEFA"/>
<path d="M391.046 115.204H379.684V118.616H391.046V115.204Z" fill="#E0EEFA"/>
<path d="M391.046 120.567H379.684V123.979H391.046V120.567Z" fill="#E0EEFA"/>
<path d="M391.046 126.014H379.684V129.426H391.046V126.014Z" fill="#E0EEFA"/>
<path d="M391.046 131.271H379.684V134.684H391.046V131.271Z" fill="#E0EEFA"/>
<path d="M455.943 54.2578H435.254V59.878H455.943V54.2578Z" fill="#E0EEFA"/>
<path d="M455.943 62.9048H435.254V68.525H455.943V62.9048Z" fill="#E0EEFA"/>
<path d="M455.943 71.7373H435.254V77.3575H455.943V71.7373Z" fill="#E0EEFA"/>
<path d="M455.943 80.709H435.254V86.3292H455.943V80.709Z" fill="#E0EEFA"/>
<path d="M455.943 89.3677H435.254V94.9879H455.943V89.3677Z" fill="#E0EEFA"/>
<path d="M197.696 53.5518H186.334V56.9639H197.696V53.5518Z" fill="#E0EEFA"/>
<path d="M197.696 58.8057H186.334V62.2178H197.696V58.8057Z" fill="#E0EEFA"/>
<path d="M197.696 64.1694H186.334V67.5816H197.696V64.1694Z" fill="#E0EEFA"/>
<path d="M197.696 69.6196H186.334V73.0317H197.696V69.6196Z" fill="#E0EEFA"/>
<path d="M197.696 74.8774H186.334V78.2896H197.696V74.8774Z" fill="#E0EEFA"/>
<path d="M197.696 80.6636H186.334V84.0757H197.696V80.6636Z" fill="#E0EEFA"/>
<path d="M197.696 85.9141H186.334V89.3262H197.696V85.9141Z" fill="#E0EEFA"/>
<path d="M197.696 91.2773H186.334V94.6895H197.696V91.2773Z" fill="#E0EEFA"/>
<path d="M197.696 96.7275H186.334V100.14H197.696V96.7275Z" fill="#E0EEFA"/>
<path d="M197.696 101.985H186.334V105.397H197.696V101.985Z" fill="#E0EEFA"/>
<path d="M218.488 55.79H205.575V59.2022H218.488V55.79Z" fill="#E0EEFA"/>
<path d="M218.488 61.0439H205.575V64.4561H218.488V61.0439Z" fill="#E0EEFA"/>
<path d="M218.488 66.4077H205.575V69.8198H218.488V66.4077Z" fill="#E0EEFA"/>
<path d="M218.488 71.8579H205.575V75.27H218.488V71.8579Z" fill="#E0EEFA"/>
<path d="M218.488 77.1157H205.575V80.5278H218.488V77.1157Z" fill="#E0EEFA"/>
<path d="M218.488 82.5962H205.575V86.0083H218.488V82.5962Z" fill="#E0EEFA"/>
<path d="M218.488 87.8501H205.575V91.2622H218.488V87.8501Z" fill="#E0EEFA"/>
<path d="M218.488 93.2139H205.575V96.626H218.488V93.2139Z" fill="#E0EEFA"/>
<path d="M218.488 98.6602H205.575V102.072H218.488V98.6602Z" fill="#E0EEFA"/>
<path d="M218.488 103.918H205.575V107.33H218.488V103.918Z" fill="#E0EEFA"/>
<path d="M218.488 109.95H205.575V113.362H218.488V109.95Z" fill="#E0EEFA"/>
<path d="M218.488 115.204H205.575V118.616H218.488V115.204Z" fill="#E0EEFA"/>
<path d="M218.488 120.567H205.575V123.979H218.488V120.567Z" fill="#E0EEFA"/>
<path d="M218.488 126.014H205.575V129.426H218.488V126.014Z" fill="#E0EEFA"/>
<path d="M218.488 131.271H205.575V134.684H218.488V131.271Z" fill="#E0EEFA"/>
<path d="M271.513 51.7403C271.513 51.7403 273.933 47.5507 279.724 48.0187C279.724 48.0187 288.129 41.0397 297.093 47.0864C297.093 47.0864 306.62 45.588 313.674 48.3848C318.38 50.2494 319.934 52.2046 319.934 52.2046L271.513 51.7403Z" fill="#F8FCFF"/>
<path d="M154.233 38.3672H150.878V190.719H154.233V38.3672Z" fill="#ADC0E4"/>
<path d="M157.312 193.203C157.312 193.203 156.056 194.313 152.557 194.313C149.27 194.313 147.803 193.203 147.803 193.203V157.414C147.803 154.942 149.811 152.934 152.292 152.934H152.599C155.201 152.934 157.312 155.04 157.312 157.637V193.203Z" fill="#9DADD9"/>
<path d="M155.357 71.2089H149.755C146.842 71.2089 144.479 68.8537 144.479 65.9436V29.2068C144.479 26.3004 146.839 23.9414 149.755 23.9414H155.357C158.269 23.9414 160.633 26.2967 160.633 29.2068V65.9436C160.633 68.8537 158.273 71.2089 155.357 71.2089Z" fill="#ADC0E4"/>
<path d="M154.097 53.1717C157.424 52.3668 159.467 49.0226 158.661 45.7023C157.854 42.3821 154.503 40.343 151.176 41.148C147.849 41.9529 145.805 45.2971 146.612 48.6173C147.419 51.9376 150.77 53.9767 154.097 53.1717Z" fill="#9DADD9"/>
<path d="M158.753 62.2239C159.344 58.8585 157.09 55.652 153.717 55.062C150.345 54.4719 147.132 56.7218 146.54 60.0871C145.949 63.4525 148.204 66.659 151.576 67.249C154.948 67.8391 158.162 65.5893 158.753 62.2239Z" fill="#9DADD9"/>
<path d="M158.754 34.0032C159.31 30.632 157.022 27.449 153.644 26.8938C150.266 26.3386 147.076 28.6215 146.52 31.9926C145.964 35.3638 148.251 38.5468 151.63 39.102C155.008 39.6572 158.197 37.3744 158.754 34.0032Z" fill="#1E8135"/>
<path d="M282.855 183.065H422.246L469.321 178.834C469.321 178.834 460.898 157.89 458.602 157.576C456.306 157.263 287.273 157.576 287.273 157.576L282.855 183.065Z" fill="#1B2A4B"/>
<path d="M489.436 181.004C485.967 182.42 464.998 182.737 464.998 182.737C464.998 182.737 465.471 157.089 443.87 160.079C422.273 163.068 426.047 184.352 426.047 184.352L322.207 186.202C322.207 186.202 323.894 159.165 300.965 162.011C281.917 164.374 286.812 186.1 286.812 186.1C276.985 186.605 271.717 185.126 268.921 183.582C266.83 180.638 268.048 178.917 268.169 178.615C268.29 178.313 267.866 173.301 267.806 172.576C267.772 172.168 268.657 171.13 269.436 170.3C270.079 169.613 270.124 168.56 269.53 167.831L268.494 166.552C267.31 165.091 267.038 163.098 267.79 161.377L269.856 156.663C276.584 145.128 329.348 141.98 329.348 141.98C337.359 137.383 344.005 133.967 349.202 131.487C357.492 127.528 366.944 123.67 376.09 122.768C400.857 120.326 421.221 123.093 426.214 123.9C432.046 124.844 461.371 137.587 463.579 138.689C465.785 139.791 483.788 141.282 486.099 141.565C488.411 141.844 488.342 144.15 488.342 144.15L488.66 146.196L489.87 153.994L490.166 155.897C491.849 156.734 491.849 159.139 491.849 159.139C491.849 159.139 492.9 179.585 489.436 181.004Z" fill="#1E8135"/>
<path d="M314.781 190.677C321.33 184.763 321.834 174.671 315.908 168.136C309.982 161.6 299.869 161.097 293.32 167.011C286.771 172.925 286.266 183.017 292.192 189.552C298.119 196.087 308.232 196.591 314.781 190.677Z" fill="#2A3A67"/>
<path d="M304.037 191.312C297.141 191.312 291.532 185.715 291.532 178.834C291.532 171.953 297.141 166.355 304.037 166.355C310.932 166.355 316.541 171.953 316.541 178.834C316.541 185.715 310.932 191.312 304.037 191.312ZM304.037 167.51C297.781 167.51 292.69 172.591 292.69 178.834C292.69 185.081 297.781 190.157 304.037 190.157C310.293 190.157 315.384 185.077 315.384 178.834C315.387 172.587 310.296 167.51 304.037 167.51Z" fill="#ADCBEC"/>
<path d="M306.173 190.75H301.691L303.128 178.494L301.486 166.854L306.604 167.171L304.898 178.494L306.173 190.75Z" fill="#ADCBEC"/>
<path d="M294.739 186.613L292.5 182.74L303.855 177.856L313.133 170.617L315.421 175.199L304.74 179.385L294.739 186.613Z" fill="#ADCBEC"/>
<path d="M292.942 174.218L295.405 170.481L304.876 178.411L315.523 183.435L312.448 187.53L303.904 179.887L292.942 174.218Z" fill="#ADCBEC"/>
<path d="M299.842 178.811C299.842 176.513 301.71 174.648 304.014 174.648C306.317 174.648 308.186 176.513 308.186 178.811C308.186 181.11 306.317 182.974 304.014 182.974C301.706 182.974 299.842 181.11 299.842 178.811Z" fill="#ADCBEC"/>
<path d="M461.398 182.533C463.427 173.955 458.105 165.36 449.51 163.335C440.914 161.309 432.301 166.621 430.272 175.198C428.242 183.776 433.565 192.371 442.16 194.396C450.755 196.422 459.368 191.11 461.398 182.533Z" fill="#2A3A67"/>
<path d="M445.821 191.312C438.926 191.312 433.316 185.715 433.316 178.834C433.316 171.953 438.926 166.355 445.821 166.355C452.716 166.355 458.325 171.953 458.325 178.834C458.329 185.715 452.716 191.312 445.821 191.312ZM445.821 167.51C439.561 167.51 434.47 172.591 434.47 178.834C434.47 185.081 439.561 190.157 445.821 190.157C452.081 190.157 457.172 185.077 457.172 178.834C457.172 172.587 452.081 167.51 445.821 167.51Z" fill="#ADCBEC"/>
<path d="M447.958 190.75H443.476L444.913 178.494L443.271 166.854L448.393 167.171L446.683 178.494L447.958 190.75Z" fill="#ADCBEC"/>
<path d="M436.528 186.613L434.285 182.74L445.64 177.856L454.922 170.617L457.206 175.199L446.525 179.385L436.528 186.613Z" fill="#ADCBEC"/>
<path d="M434.731 174.218L437.19 170.481L446.661 178.411L457.308 183.435L454.233 187.53L445.689 179.887L434.731 174.218Z" fill="#ADCBEC"/>
<path d="M441.627 178.811C441.627 176.513 443.495 174.648 445.799 174.648C448.102 174.648 449.971 176.513 449.971 178.811C449.971 181.11 448.102 182.974 445.799 182.974C443.495 182.974 441.627 181.11 441.627 178.811Z" fill="#ADCBEC"/>
<path d="M288.59 158.134L284.486 162.573C283.896 163.211 283.068 163.573 282.198 163.573H269.61C268.869 163.573 268.4 162.777 268.759 162.128L269.118 161.486C269.565 160.694 270.113 159.976 270.745 159.357C270.749 159.354 270.749 159.354 270.749 159.354C272.511 157.617 274.913 156.602 277.462 156.602H287.92C288.718 156.61 289.131 157.553 288.59 158.134Z" fill="#ADCBEC"/>
<path d="M275.219 178.834H271.649C270.469 178.834 269.379 179.472 268.801 180.502L268.68 180.721C268.555 180.94 268.717 181.216 268.971 181.216H273.268C273.563 181.216 273.846 181.091 274.047 180.876L275.446 179.359C275.632 179.155 275.488 178.834 275.219 178.834Z" fill="#1B2A4B"/>
<path d="M448.118 140.467L394.741 141.731C393.694 141.757 392.835 140.916 392.835 139.874V127.603C392.835 126.637 393.625 125.859 394.594 125.871C417.356 126.188 425.155 126.818 429.834 128.43C433.96 129.849 443.609 135.692 448.594 138.655C449.438 139.153 449.097 140.444 448.118 140.467Z" fill="#ADCBEC"/>
<path d="M388.186 125.788C389.052 125.795 389.899 125.807 390.728 125.818V141.825L339.235 143.045C338.565 143.06 338.285 142.192 338.841 141.818C344.859 137.772 365.011 125.527 388.186 125.788Z" fill="#ADCBEC"/>
<path d="M447.936 140.47H447.905V138.247C448.087 138.357 448.265 138.462 448.435 138.564C449.324 139.089 448.968 140.444 447.936 140.47Z" fill="#ADCBEC"/>
<path d="M392.834 142.471L386.525 141.973L386.945 124.855H392.834V142.471Z" fill="#7393CC"/>
<path d="M432.776 142.471H429.833V127.101L432.776 128.86V142.471Z" fill="#7393CC"/>
<path d="M345.662 137.666L347.231 142.856L338.642 143.06C338.142 143.071 337.923 142.429 338.331 142.139C340.272 140.746 343.865 138.266 345.662 137.666Z" fill="#2A3A67"/>
<path d="M338.27 143.486C337.919 143.486 337.612 143.263 337.502 142.931C337.389 142.591 337.514 142.225 337.809 142.018L337.987 141.893C338.172 141.765 338.38 141.621 338.611 141.47C338.8 141.342 339 141.21 339.216 141.066L339.541 140.851C339.787 140.689 340.048 140.523 340.324 140.345C340.521 140.221 340.725 140.093 340.937 139.957L340.971 139.934C341.001 139.915 341.031 139.896 341.062 139.877C341.239 139.768 341.429 139.651 341.621 139.53L341.663 139.504C341.727 139.466 341.792 139.425 341.856 139.387C341.95 139.326 342.053 139.266 342.155 139.206C342.295 139.119 342.438 139.036 342.586 138.945C342.998 138.696 343.441 138.436 343.902 138.171C344.046 138.088 344.19 138.005 344.337 137.922C344.628 137.756 344.927 137.586 345.234 137.417L345.449 137.296C346.069 136.952 346.697 136.609 347.318 136.28L347.522 136.175C347.616 136.126 347.711 136.077 347.806 136.024C348.986 135.405 350.2 134.801 351.414 134.223L351.792 134.046C352.17 133.869 352.556 133.687 352.946 133.51C353.074 133.45 353.207 133.389 353.339 133.333C353.6 133.216 353.865 133.095 354.133 132.978L354.534 132.8C354.935 132.623 355.363 132.442 355.839 132.242C356.085 132.14 356.335 132.034 356.584 131.932C358.268 131.238 359.985 130.589 361.683 129.996L362.054 129.868C362.194 129.819 362.334 129.773 362.473 129.724L363.003 129.547C363.147 129.498 363.29 129.452 363.434 129.407L363.449 129.403C363.601 129.354 363.748 129.305 363.899 129.256C364.172 129.169 364.448 129.082 364.724 128.996C364.913 128.935 365.102 128.879 365.295 128.822C365.586 128.735 365.878 128.648 366.173 128.562L366.661 128.422C366.967 128.335 367.277 128.248 367.587 128.165C368.2 127.995 368.828 127.833 369.448 127.678L369.486 127.667C369.543 127.652 369.596 127.641 369.652 127.626C369.917 127.561 370.186 127.493 370.458 127.433C370.617 127.395 370.78 127.358 370.946 127.32L371.067 127.293C371.188 127.267 371.309 127.237 371.43 127.21C371.593 127.173 371.755 127.139 371.918 127.101C372.081 127.067 372.247 127.029 372.41 126.995C372.576 126.961 372.739 126.927 372.905 126.893C373.068 126.859 373.234 126.825 373.401 126.791L373.427 126.788C373.582 126.757 373.741 126.727 373.896 126.697C374.051 126.667 374.21 126.637 374.365 126.606C374.543 126.572 374.717 126.542 374.895 126.512C375.008 126.493 375.122 126.471 375.235 126.452L375.394 126.425C375.731 126.369 376.063 126.312 376.4 126.259C376.567 126.233 376.737 126.206 376.907 126.18L376.933 126.176C377.232 126.131 377.527 126.089 377.826 126.048C378.382 125.972 378.942 125.901 379.486 125.836L379.521 125.833C379.676 125.814 379.827 125.799 379.982 125.78C380.088 125.769 380.201 125.757 380.315 125.746C380.424 125.735 380.542 125.719 380.663 125.712C380.788 125.697 380.92 125.685 381.052 125.674C381.223 125.659 381.4 125.64 381.574 125.625C381.741 125.61 381.911 125.595 382.077 125.584C382.21 125.572 382.338 125.561 382.467 125.553L383.216 125.504C383.363 125.493 383.511 125.485 383.658 125.478L383.723 125.474C383.885 125.467 384.048 125.455 384.214 125.448C384.343 125.44 384.475 125.436 384.608 125.429H384.619C384.736 125.425 384.854 125.417 384.975 125.414L385.266 125.402C385.383 125.399 385.5 125.395 385.614 125.391C386.072 125.376 386.503 125.546 386.828 125.863C387.153 126.18 387.335 126.606 387.335 127.059V140.323C387.335 141.425 386.435 142.342 385.33 142.369L338.255 143.482C338.282 143.486 338.274 143.486 338.27 143.486ZM346.043 137.934L345.752 138.096C345.411 138.285 345.082 138.47 344.761 138.655C344.613 138.738 344.47 138.821 344.33 138.904C343.872 139.168 343.433 139.428 343.021 139.674C342.873 139.76 342.733 139.847 342.593 139.93C342.495 139.991 342.397 140.051 342.298 140.111C342.23 140.153 342.17 140.191 342.109 140.228L342.064 140.255C341.871 140.372 341.686 140.489 341.504 140.602L341.383 140.678C341.175 140.81 340.971 140.938 340.774 141.063C340.502 141.236 340.241 141.402 339.999 141.561L339.674 141.772C339.462 141.912 339.261 142.044 339.076 142.172C338.853 142.323 338.645 142.463 338.459 142.591L338.372 142.652L347.216 142.444L385.338 141.542C385.988 141.527 386.522 140.983 386.522 140.334V127.071C386.522 126.844 386.431 126.633 386.268 126.474C386.106 126.316 385.89 126.233 385.663 126.237C385.55 126.24 385.432 126.244 385.319 126.248L385.028 126.259C384.914 126.263 384.797 126.267 384.68 126.274H384.664C384.532 126.278 384.404 126.286 384.275 126.293C384.112 126.301 383.95 126.308 383.791 126.32L383.726 126.323C383.583 126.331 383.439 126.338 383.292 126.35L382.55 126.399C382.425 126.406 382.297 126.418 382.172 126.429C381.998 126.44 381.832 126.455 381.669 126.471C381.495 126.486 381.325 126.501 381.151 126.516C381.022 126.527 380.894 126.539 380.765 126.554C380.648 126.565 380.534 126.576 380.425 126.588C380.307 126.599 380.201 126.61 380.095 126.622C379.94 126.637 379.789 126.656 379.642 126.671L379.608 126.674C379.067 126.739 378.514 126.806 377.966 126.882C377.671 126.923 377.376 126.965 377.085 127.01L377.062 127.014C376.896 127.041 376.725 127.067 376.559 127.093C376.226 127.146 375.893 127.203 375.564 127.256L375.405 127.282C375.292 127.301 375.182 127.32 375.069 127.342C374.891 127.373 374.717 127.407 374.543 127.437C374.388 127.467 374.233 127.493 374.078 127.524C373.923 127.554 373.768 127.584 373.612 127.614L373.586 127.618C373.423 127.652 373.261 127.682 373.098 127.716C372.932 127.75 372.769 127.784 372.606 127.818C372.444 127.852 372.281 127.886 372.122 127.924C371.96 127.958 371.801 127.995 371.638 128.029C371.517 128.056 371.396 128.082 371.279 128.112L371.154 128.143C370.995 128.18 370.832 128.218 370.674 128.256C370.405 128.32 370.137 128.384 369.872 128.448C369.815 128.463 369.766 128.475 369.717 128.486L369.679 128.497C369.062 128.652 368.442 128.815 367.833 128.981C367.523 129.064 367.22 129.15 366.914 129.237L366.43 129.377C366.142 129.46 365.851 129.547 365.56 129.634C365.371 129.69 365.185 129.747 364.996 129.807C364.72 129.894 364.448 129.981 364.176 130.064C364.028 130.109 363.881 130.158 363.733 130.207L363.714 130.215C363.574 130.26 363.43 130.305 363.29 130.354L362.761 130.532C362.621 130.577 362.485 130.626 362.345 130.672L361.974 130.8C360.287 131.385 358.585 132.03 356.917 132.717C356.668 132.819 356.422 132.921 356.176 133.023C355.703 133.223 355.279 133.404 354.882 133.578L354.481 133.755C354.217 133.872 353.956 133.989 353.695 134.106C353.562 134.167 353.434 134.223 353.305 134.284C352.916 134.461 352.533 134.638 352.159 134.816L351.785 134.993C350.582 135.567 349.379 136.167 348.21 136.779C348.116 136.828 348.021 136.881 347.927 136.93L347.726 137.035C347.163 137.322 346.603 137.624 346.043 137.934Z" fill="#1B2A4B"/>
<path d="M433.653 141.244C433.339 141.244 433.041 141.119 432.81 140.897C432.553 140.644 432.401 140.285 432.401 139.912V130.955C432.401 130.445 432.477 129.796 432.889 129.539C433.264 129.305 433.892 129.475 434.289 129.668C434.727 129.883 435.034 130.038 435.2 130.124C435.219 130.132 435.242 130.147 435.265 130.158L435.442 130.257C437.678 131.476 440.862 133.393 444.91 135.96C445.08 136.069 445.254 136.179 445.424 136.284C445.832 136.545 446.23 136.798 446.612 137.043L448.03 137.956C448.276 138.115 448.514 138.27 448.737 138.417C448.767 138.436 448.802 138.458 448.839 138.481L448.87 138.5C449.342 138.806 449.55 139.391 449.392 139.957C449.24 140.493 448.802 140.848 448.272 140.859L448.117 140.863L433.684 141.236C433.676 141.244 433.665 141.244 433.653 141.244ZM433.733 130.283C433.612 130.283 433.513 130.328 433.457 130.366C433.264 130.487 433.146 130.71 433.146 130.959V139.915C433.146 140.089 433.215 140.255 433.328 140.368C433.423 140.459 433.54 140.508 433.665 140.508L448.253 140.131C448.552 140.123 448.65 139.851 448.673 139.768C448.726 139.576 448.707 139.296 448.461 139.138L448.431 139.119C448.397 139.096 448.367 139.077 448.333 139.055C448.102 138.908 447.867 138.753 447.621 138.594L446.207 137.685C445.825 137.439 445.428 137.186 445.023 136.926C444.853 136.817 444.683 136.711 444.512 136.601C440.48 134.042 437.311 132.132 435.091 130.921L434.909 130.823C434.89 130.811 434.871 130.804 434.856 130.793C434.693 130.706 434.391 130.551 433.963 130.343C433.88 130.298 433.805 130.283 433.733 130.283Z" fill="#1B2A4B"/>
<path d="M345.662 137.666L347.231 142.856L338.642 143.06C338.142 143.071 337.923 142.429 338.331 142.139C340.272 140.746 343.865 138.266 345.662 137.666Z" fill="#2A3A67"/>
<path d="M394.692 142.15C394.094 142.15 393.531 141.92 393.099 141.501C392.657 141.067 392.411 140.489 392.411 139.87V127.595C392.411 127.014 392.638 126.471 393.054 126.067C393.47 125.659 394.019 125.444 394.597 125.448C418.089 125.772 425.367 126.305 429.981 128.033L430.253 128.135V141.304L394.749 142.146C394.73 142.15 394.711 142.15 394.692 142.15ZM394.567 126.29C394.219 126.29 393.894 126.422 393.644 126.667C393.391 126.916 393.255 127.248 393.255 127.599V139.874C393.255 140.266 393.41 140.629 393.69 140.904C393.969 141.176 394.344 141.323 394.73 141.312L429.414 140.489V128.72C424.924 127.131 417.223 126.599 394.586 126.286C394.578 126.29 394.575 126.29 394.567 126.29Z" fill="#1B2A4B"/>
<path d="M489.871 153.99H479.821C478.327 153.99 476.913 153.307 475.99 152.133L472.188 147.313C471.829 146.86 472.154 146.192 472.733 146.192H488.661L489.871 153.99Z" fill="#B83D38"/>
<path d="M390.284 125.668L389.665 179.407L390.085 179.412L390.704 125.673L390.284 125.668Z" fill="#1B2A4B"/>
<path d="M425.889 178.61L321.997 180.684L322.005 181.102L425.897 179.029L425.889 178.61Z" fill="#1B2A4B"/>
<path d="M384.12 152.96C384.12 153.53 381.578 153.99 378.443 153.99C375.307 153.99 372.766 153.53 372.766 152.96C372.766 152.39 375.307 151.929 378.443 151.929C381.578 151.929 384.12 152.39 384.12 152.96Z" fill="#2A3A67"/>
<path d="M436.979 152.96C436.979 153.53 434.437 153.99 431.301 153.99C428.166 153.99 425.624 153.53 425.624 152.96C425.624 152.39 428.166 151.929 431.301 151.929C434.441 151.929 436.979 152.39 436.979 152.96Z" fill="#2A3A67"/>
<path d="M421.842 178.845L421.422 178.823C421.713 173.478 423.298 168.979 426.138 165.438C428.412 162.608 431.483 160.388 435.269 158.841C441.03 156.489 446.733 156.429 447.91 156.444V140.463H448.329V156.878L448.11 156.87C448.046 156.867 441.763 156.64 435.417 159.237C431.698 160.758 428.688 162.936 426.464 165.706C423.684 169.175 422.129 173.595 421.842 178.845Z" fill="#1B2A4B"/>
<path d="M334.666 180.626C334.504 166.767 335.275 157.176 335.956 151.571C336.69 145.49 337.477 142.648 337.484 142.618L337.889 142.731C337.859 142.84 334.776 154.16 335.086 180.623L334.666 180.626Z" fill="#1B2A4B"/>
<path d="M394.59 125.659H386.367V126.078H394.59V125.659Z" fill="#1B2A4B"/>
<path d="M276.944 163.577H269.61C268.869 163.577 268.4 162.781 268.759 162.132L269.118 161.49C269.565 160.697 270.113 159.98 270.745 159.361C270.749 159.357 270.749 159.357 270.749 159.357L275.185 160.09L273.43 162.007L275.526 162.43L276.944 163.577Z" fill="#2A3A67"/>
<path d="M274.583 151.744C274.413 151.744 274.247 151.665 274.141 151.518C273.967 151.272 274.024 150.933 274.269 150.759C274.303 150.733 275.166 150.125 277.934 148.442C280.839 146.679 283.612 146.313 285.442 146.188C286.57 146.113 287.682 144.482 288.347 143.508C288.589 143.15 288.782 142.871 288.952 142.689C289.217 142.406 289.49 142.112 309.57 141.727C319.381 141.538 331.5 141.429 329.348 141.429C329.344 141.429 331.587 141.429 331.591 141.429C331.89 141.429 331.901 142.138 331.954 142.433C332.616 146.049 328.686 144.248 328.383 144.252C313.394 144.414 291.714 143.078 289.679 143.516C289.565 143.659 289.414 143.886 289.251 144.12C288.427 145.331 287.175 147.162 285.518 147.272C283.801 147.385 281.202 147.728 278.506 149.366C275.786 151.02 274.916 151.635 274.909 151.639C274.803 151.71 274.693 151.744 274.583 151.744Z" fill="#7393CC"/>
<path d="M352.42 145.071H347.564C345.866 145.071 344.478 143.686 344.478 141.991C344.478 140.296 345.866 138.911 347.564 138.911H352.42C354.119 138.911 355.507 140.296 355.507 141.991C355.507 143.686 354.119 145.071 352.42 145.071Z" fill="#608BC8"/>
<path d="M17.8955 182.333H157.286L204.361 178.102C204.361 178.102 195.938 157.157 193.642 156.844C191.346 156.531 22.3133 156.844 22.3133 156.844L17.8955 182.333Z" fill="#1B2A4B"/>
<path d="M226.317 161.46C225.825 163.162 224.906 163.532 224.906 167.201C224.906 168.643 225.228 170.462 224.502 172.063C224.184 172.757 222.232 173.912 222.777 176.23C222.777 176.23 219.554 178.721 219.418 179.038C219.282 179.355 219.055 181.121 219.055 181.121C215.587 182.537 200.034 182.001 200.034 182.001C200.034 182.001 200.507 156.357 178.906 159.346C157.308 162.336 161.079 183.62 161.079 183.62L57.2391 185.469C57.2391 185.469 58.926 158.437 36.0012 161.279C16.9534 163.642 21.8439 185.368 21.8439 185.368C2.85281 186.349 0.893555 179.913 0.893555 179.913V177.256H2.08499V170.262H0.897337V165.053L4.89149 155.927C6.57463 153.043 11.1323 150.684 17.0252 148.767C34.7039 143.014 64.3801 141.244 64.3801 141.244C72.3949 136.647 79.0405 133.231 84.2374 130.747C92.5283 126.788 101.977 122.93 111.126 122.028C135.893 119.586 156.257 122.353 161.25 123.161C167.082 124.104 196.406 136.847 198.615 137.949C200.824 139.051 218.824 140.546 221.139 140.825C223.45 141.104 223.382 143.411 223.382 143.411L223.7 145.46L223.325 146.66L221.601 146.06L222.327 148.653L222.1 149.74L224.418 150.107L224.906 153.258L225.201 155.161C226.885 155.998 226.574 160.581 226.317 161.46Z" fill="#F28F38"/>
<path d="M54.8004 181.026C56.4184 172.361 50.6913 164.028 42.0086 162.413C33.3258 160.799 24.9754 166.514 23.3574 175.178C21.7394 183.843 27.4665 192.176 36.1492 193.791C44.8319 195.405 53.1823 189.69 54.8004 181.026Z" fill="#2A3A67"/>
<path d="M39.0757 190.58C32.1805 190.58 26.5713 184.983 26.5713 178.102C26.5713 171.221 32.1805 165.624 39.0757 165.624C45.9709 165.624 51.5801 171.221 51.5801 178.102C51.5801 184.979 45.9709 190.58 39.0757 190.58ZM39.0757 166.775C32.8197 166.775 27.7249 171.855 27.7249 178.098C27.7249 184.345 32.8159 189.425 39.0757 189.425C45.3317 189.425 50.4227 184.345 50.4227 178.098C50.4227 171.855 45.3317 166.775 39.0757 166.775Z" fill="#ADCBEC"/>
<path d="M41.2098 190.014H36.7315L38.1688 177.758L36.5234 166.122L41.6447 166.435L39.9389 177.758L41.2098 190.014Z" fill="#ADCBEC"/>
<path d="M29.7792 185.877L27.54 182.004L38.8946 177.12L48.1727 169.881L50.461 174.467L39.7797 178.653L29.7792 185.877Z" fill="#ADCBEC"/>
<path d="M27.9824 173.482L30.4447 169.745L39.9157 177.679L50.563 182.703L47.4842 186.798L38.9436 179.155L27.9824 173.482Z" fill="#ADCBEC"/>
<path d="M34.8779 178.079C34.8779 175.781 36.7464 173.916 39.0498 173.916C41.3533 173.916 43.2218 175.781 43.2218 178.079C43.2218 180.378 41.3533 182.242 39.0498 182.242C36.7464 182.242 34.8779 180.378 34.8779 178.079Z" fill="#ADCBEC"/>
<path d="M196.171 182.726C198.73 174.29 193.952 165.381 185.499 162.827C177.046 160.273 168.119 165.041 165.559 173.476C163 181.912 167.777 190.821 176.23 193.375C184.684 195.929 193.611 191.161 196.171 182.726Z" fill="#2A3A67"/>
<path d="M180.862 190.58C173.967 190.58 168.357 184.983 168.357 178.102C168.357 171.221 173.967 165.624 180.862 165.624C187.757 165.624 193.366 171.221 193.366 178.102C193.366 184.979 187.757 190.58 180.862 190.58ZM180.862 166.775C174.606 166.775 169.511 171.855 169.511 178.098C169.511 184.345 174.602 189.425 180.862 189.425C187.118 189.425 192.209 184.345 192.209 178.098C192.213 171.855 187.122 166.775 180.862 166.775Z" fill="#ADCBEC"/>
<path d="M182.998 190.014H178.516L179.953 177.758L178.312 166.122L183.429 166.435L181.723 177.758L182.998 190.014Z" fill="#ADCBEC"/>
<path d="M171.564 185.877L169.325 182.004L180.68 177.12L189.958 169.881L192.246 174.467L181.565 178.653L171.564 185.877Z" fill="#ADCBEC"/>
<path d="M169.768 173.482L172.23 169.745L181.701 177.679L192.348 182.703L189.273 186.798L180.729 179.155L169.768 173.482Z" fill="#ADCBEC"/>
<path d="M176.667 178.079C176.667 175.781 178.535 173.916 180.839 173.916C183.142 173.916 185.011 175.781 185.011 178.079C185.011 180.378 183.142 182.242 180.839 182.242C178.532 182.242 176.667 180.378 176.667 178.079Z" fill="#ADCBEC"/>
<path d="M22.9597 155.874H12.5015C9.0407 155.874 5.84841 157.742 4.16148 160.758L3.80216 161.4C3.43906 162.045 3.90807 162.845 4.6494 162.845H17.237C18.107 162.845 18.9353 162.483 19.5253 161.845L23.6292 157.406C24.1701 156.818 23.754 155.874 22.9597 155.874Z" fill="#FDDCBB"/>
<path d="M10.2584 178.098H6.68784C5.50775 178.098 4.41844 178.736 3.83974 179.766L3.71871 179.985C3.59389 180.204 3.75653 180.48 4.00995 180.48H8.30668C8.60171 180.48 8.88538 180.355 9.08585 180.14L10.4853 178.623C10.6706 178.423 10.5269 178.098 10.2584 178.098Z" fill="#1B2A4B"/>
<path d="M183.157 139.731L129.78 140.995C128.733 141.022 127.874 140.18 127.874 139.138V126.867C127.874 125.901 128.665 125.124 129.633 125.135C152.395 125.452 160.194 126.082 164.873 127.694C168.999 129.113 178.648 134.956 183.633 137.919C184.473 138.421 184.136 139.708 183.157 139.731Z" fill="#ADCBEC"/>
<path d="M123.226 125.055C124.092 125.067 124.939 125.074 125.768 125.086V141.093L74.2748 142.312C73.6053 142.327 73.3254 141.459 73.8814 141.086C79.8991 137.039 100.051 124.791 123.226 125.055Z" fill="#ADCBEC"/>
<path d="M182.976 139.734H182.945V137.511C183.127 137.621 183.305 137.726 183.475 137.828C184.364 138.353 184.008 139.712 182.976 139.734Z" fill="#ADCBEC"/>
<path d="M127.871 141.739L121.565 141.237L121.985 124.12H127.871V141.739Z" fill="#F28F38"/>
<path d="M167.816 141.739H164.873V126.365L167.816 128.128V141.739Z" fill="#F28F38"/>
<path d="M80.7007 136.93L82.2704 142.12L73.6807 142.323C73.1814 142.335 72.962 141.693 73.3705 141.402C75.3109 140.013 78.9041 137.53 80.7007 136.93Z" fill="#2A3A67"/>
<path d="M73.3064 142.754C72.9546 142.754 72.6483 142.531 72.5386 142.199C72.4251 141.859 72.5499 141.493 72.8449 141.286L73.0227 141.161C73.208 141.033 73.4161 140.889 73.6468 140.735C73.8359 140.606 74.0364 140.474 74.252 140.331L74.5772 140.119C74.8231 139.957 75.0841 139.791 75.3602 139.614C75.5569 139.489 75.7611 139.361 75.9729 139.225L76.007 139.202C76.0372 139.183 76.0675 139.164 76.0977 139.145C76.2755 139.036 76.4646 138.919 76.6575 138.798L76.6991 138.772C76.7634 138.734 76.8277 138.693 76.892 138.655C76.9866 138.594 77.0887 138.534 77.1908 138.474C77.3308 138.387 77.4745 138.3 77.622 138.213C78.0343 137.964 78.4768 137.704 78.9383 137.439C79.082 137.356 79.2257 137.273 79.3732 137.19C79.6645 137.024 79.9633 136.854 80.2734 136.685L80.489 136.564C81.1093 136.22 81.7372 135.877 82.3575 135.548L82.5618 135.443C82.6563 135.394 82.7509 135.345 82.8454 135.292C84.0255 134.673 85.2397 134.069 86.4538 133.491L86.832 133.314C87.2103 133.137 87.5961 132.955 87.9856 132.778C88.1142 132.718 88.2466 132.657 88.379 132.601C88.64 132.484 88.9047 132.363 89.1733 132.246L89.5742 132.068C89.9751 131.891 90.4026 131.71 90.8791 131.51C91.125 131.408 91.3746 131.302 91.6242 131.2C93.3074 130.51 95.0246 129.857 96.7228 129.268L97.0935 129.139C97.2335 129.09 97.3734 129.045 97.5134 128.996L98.0429 128.819C98.1866 128.77 98.3303 128.724 98.4741 128.679L98.4892 128.675C98.6405 128.626 98.788 128.577 98.9393 128.528C99.2116 128.441 99.4877 128.354 99.7638 128.268C99.953 128.207 100.142 128.151 100.335 128.094C100.626 128.007 100.917 127.92 101.212 127.833L101.7 127.694C102.007 127.607 102.317 127.52 102.627 127.437C103.24 127.267 103.868 127.105 104.488 126.95L104.526 126.943C104.583 126.928 104.635 126.916 104.692 126.901C104.957 126.837 105.226 126.769 105.498 126.705C105.657 126.667 105.819 126.629 105.986 126.592L106.107 126.565C106.228 126.539 106.349 126.509 106.47 126.482C106.633 126.444 106.795 126.41 106.958 126.373C107.12 126.339 107.287 126.301 107.45 126.267C107.616 126.233 107.779 126.199 107.945 126.165C108.108 126.131 108.274 126.097 108.441 126.063L108.467 126.059C108.622 126.029 108.781 125.999 108.936 125.969C109.091 125.939 109.25 125.908 109.405 125.878C109.583 125.844 109.761 125.814 109.935 125.784C110.048 125.765 110.161 125.742 110.275 125.724L110.434 125.697C110.77 125.64 111.103 125.584 111.44 125.531C111.606 125.505 111.777 125.478 111.947 125.452L111.973 125.448C112.272 125.403 112.567 125.361 112.866 125.32C113.422 125.244 113.982 125.172 114.526 125.108L114.56 125.105C114.715 125.086 114.867 125.071 115.022 125.052C115.128 125.04 115.241 125.029 115.355 125.018C115.464 125.003 115.582 124.991 115.703 124.98C115.827 124.965 115.96 124.954 116.092 124.942C116.262 124.927 116.44 124.908 116.614 124.893C116.781 124.878 116.951 124.863 117.117 124.852C117.25 124.84 117.378 124.829 117.507 124.821L118.256 124.772C118.403 124.761 118.551 124.753 118.698 124.746L118.763 124.742C118.925 124.735 119.088 124.723 119.254 124.716C119.383 124.708 119.515 124.704 119.648 124.697H119.659C119.776 124.693 119.893 124.686 120.014 124.682L120.306 124.67C120.423 124.667 120.54 124.663 120.654 124.659C121.111 124.644 121.543 124.814 121.868 125.131C122.193 125.448 122.375 125.875 122.375 126.327V139.591C122.375 140.693 121.474 141.61 120.37 141.637L73.295 142.75C73.3215 142.754 73.3139 142.754 73.3064 142.754ZM81.0829 137.202L80.7916 137.364C80.4512 137.553 80.1222 137.738 79.8007 137.923C79.6531 138.006 79.5094 138.089 79.3695 138.172C78.9118 138.436 78.4731 138.696 78.0608 138.942C77.9133 139.028 77.7733 139.115 77.6334 139.198C77.535 139.259 77.4367 139.319 77.3383 139.38C77.2703 139.421 77.2097 139.459 77.1492 139.497L77.1038 139.523C76.9109 139.64 76.7256 139.757 76.5441 139.87L76.423 139.946C76.215 140.078 76.0107 140.206 75.8141 140.331C75.5417 140.504 75.2808 140.67 75.0387 140.829L74.7134 141.04C74.5016 141.18 74.3011 141.312 74.1158 141.44C73.8926 141.591 73.6846 141.731 73.4993 141.859L73.4123 141.92L82.2554 141.712L120.378 140.81C121.028 140.795 121.561 140.251 121.561 139.602V126.339C121.561 126.112 121.471 125.901 121.308 125.742C121.145 125.584 120.93 125.501 120.703 125.505C120.589 125.508 120.472 125.512 120.359 125.516L120.067 125.527C119.95 125.531 119.837 125.535 119.719 125.542H119.704C119.572 125.546 119.443 125.554 119.315 125.561C119.152 125.569 118.989 125.576 118.831 125.588L118.766 125.591C118.623 125.599 118.479 125.607 118.331 125.618L117.59 125.667C117.465 125.674 117.337 125.686 117.212 125.697C117.038 125.712 116.871 125.724 116.709 125.739C116.535 125.754 116.365 125.769 116.191 125.784C116.062 125.795 115.933 125.807 115.805 125.822C115.687 125.833 115.574 125.844 115.464 125.856C115.347 125.867 115.241 125.878 115.135 125.89C114.98 125.905 114.829 125.924 114.681 125.939L114.647 125.942C114.106 126.007 113.554 126.075 113.006 126.15C112.711 126.192 112.416 126.233 112.125 126.278L112.102 126.282C111.935 126.309 111.765 126.335 111.599 126.361C111.266 126.414 110.933 126.471 110.604 126.524L110.445 126.55C110.332 126.569 110.222 126.588 110.109 126.611C109.931 126.641 109.757 126.675 109.583 126.705C109.428 126.735 109.273 126.762 109.118 126.792C108.962 126.822 108.807 126.852 108.652 126.882L108.626 126.886C108.463 126.92 108.301 126.95 108.138 126.984C107.972 127.018 107.809 127.052 107.646 127.086C107.484 127.12 107.321 127.154 107.162 127.192C106.999 127.226 106.841 127.264 106.678 127.297C106.557 127.324 106.436 127.35 106.319 127.381L106.194 127.411C106.035 127.448 105.872 127.486 105.713 127.524C105.445 127.588 105.176 127.652 104.912 127.716C104.855 127.732 104.806 127.743 104.757 127.754L104.719 127.766C104.102 127.92 103.486 128.083 102.873 128.249C102.563 128.332 102.26 128.418 101.954 128.505L101.47 128.645C101.182 128.728 100.891 128.815 100.6 128.902C100.411 128.958 100.225 129.015 100.036 129.075C99.7601 129.162 99.4877 129.245 99.2154 129.332C99.0679 129.377 98.9204 129.426 98.7729 129.475L98.754 129.483C98.614 129.528 98.4703 129.573 98.3303 129.623L97.8008 129.8C97.6609 129.845 97.5247 129.894 97.3848 129.94L97.0141 130.068C95.3272 130.653 93.6251 131.298 91.9571 131.985C91.7075 132.087 91.4616 132.189 91.2158 132.291C90.743 132.491 90.3193 132.672 89.9222 132.846L89.5213 133.023C89.2565 133.14 88.9955 133.257 88.7345 133.374C88.6022 133.435 88.4736 133.491 88.345 133.552C87.9554 133.729 87.5734 133.907 87.1989 134.084L86.8245 134.261C85.6217 134.835 84.4189 135.435 83.2501 136.047C83.1556 136.096 83.061 136.149 82.9665 136.198L82.766 136.303C82.2024 136.586 81.6389 136.892 81.0829 137.202Z" fill="#1B2A4B"/>
<path d="M168.693 140.512C168.379 140.512 168.081 140.388 167.85 140.165C167.593 139.912 167.441 139.553 167.441 139.18V130.223C167.441 129.713 167.517 129.064 167.929 128.807C168.304 128.573 168.932 128.743 169.329 128.936C169.768 129.151 170.074 129.306 170.24 129.393C170.259 129.4 170.282 129.415 170.305 129.427L170.482 129.525C172.718 130.744 175.902 132.661 179.946 135.228C180.12 135.337 180.29 135.447 180.46 135.552C180.869 135.813 181.266 136.066 181.648 136.311L183.066 137.225C183.312 137.383 183.55 137.538 183.774 137.685C183.804 137.704 183.838 137.727 183.876 137.749L183.906 137.768C184.379 138.074 184.587 138.659 184.428 139.225C184.277 139.761 183.838 140.116 183.308 140.127L183.153 140.131L168.72 140.505C168.716 140.512 168.705 140.512 168.693 140.512ZM168.773 129.547C168.652 129.547 168.553 129.593 168.497 129.63C168.304 129.751 168.187 129.974 168.187 130.223V139.18C168.187 139.353 168.255 139.519 168.368 139.633C168.463 139.723 168.58 139.772 168.705 139.772L183.293 139.395C183.592 139.387 183.69 139.116 183.713 139.032C183.766 138.84 183.747 138.561 183.501 138.402L183.471 138.383C183.437 138.361 183.407 138.342 183.373 138.319C183.142 138.168 182.907 138.017 182.662 137.859L181.247 136.945C180.865 136.7 180.468 136.447 180.063 136.187C179.893 136.077 179.723 135.971 179.552 135.862C175.52 133.303 172.351 131.393 170.131 130.181L169.949 130.083C169.93 130.072 169.911 130.064 169.896 130.053C169.733 129.966 169.431 129.811 169.004 129.604C168.92 129.562 168.845 129.547 168.773 129.547Z" fill="#1B2A4B"/>
<path d="M80.7007 136.93L82.2704 142.12L73.6807 142.323C73.1814 142.335 72.962 141.693 73.3705 141.402C75.3109 140.013 78.9041 137.53 80.7007 136.93Z" fill="#2A3A67"/>
<path d="M129.731 141.414C129.133 141.414 128.57 141.184 128.139 140.765C127.696 140.331 127.45 139.753 127.45 139.134V126.86C127.45 126.278 127.677 125.735 128.093 125.331C128.509 124.923 129.058 124.708 129.636 124.712C153.129 125.037 160.406 125.569 165.02 127.297L165.293 127.399V140.568L129.788 141.41C129.769 141.414 129.75 141.414 129.731 141.414ZM129.606 125.554C129.258 125.554 128.933 125.686 128.683 125.931C128.43 126.18 128.294 126.512 128.294 126.863V139.138C128.294 139.531 128.449 139.893 128.729 140.168C129.009 140.44 129.383 140.587 129.769 140.576L164.453 139.753V127.984C159.963 126.395 152.262 125.867 129.625 125.55C129.617 125.554 129.614 125.554 129.606 125.554Z" fill="#1B2A4B"/>
<path d="M224.906 153.255H214.856C213.362 153.255 211.948 152.571 211.025 151.398L207.224 146.578C206.864 146.125 207.19 145.457 207.768 145.457H223.696L223.321 146.657L221.597 146.057L222.323 148.65L222.096 149.737L224.414 150.103L224.906 153.255Z" fill="#B83D38"/>
<path d="M125.344 124.924L124.703 178.664L125.123 178.669L125.764 124.929L125.344 124.924Z" fill="#1B2A4B"/>
<path d="M160.927 177.887L57.0352 179.94L57.0435 180.359L160.935 178.306L160.927 177.887Z" fill="#1B2A4B"/>
<path d="M119.156 152.224C119.156 152.794 116.615 153.254 113.479 153.254C110.343 153.254 107.802 152.794 107.802 152.224C107.802 151.654 110.343 151.193 113.479 151.193C116.618 151.197 119.156 151.658 119.156 152.224Z" fill="#EF7B28"/>
<path d="M172.018 152.224C172.018 152.794 169.476 153.254 166.34 153.254C163.205 153.254 160.663 152.794 160.663 152.224C160.663 151.654 163.205 151.193 166.34 151.193C169.476 151.197 172.018 151.658 172.018 152.224Z" fill="#EF7B28"/>
<path d="M156.881 178.109L156.461 178.087C156.752 172.746 158.337 168.243 161.178 164.702C163.451 161.871 166.522 159.652 170.308 158.105C176.069 155.753 181.772 155.693 182.949 155.708V139.73H183.369V156.146L183.149 156.138C183.085 156.134 176.802 155.908 170.456 158.505C166.738 160.026 163.727 162.204 161.503 164.974C158.723 168.439 157.168 172.859 156.881 178.109Z" fill="#1B2A4B"/>
<path d="M69.7056 179.895C69.5429 166.035 70.3145 156.444 70.9953 150.839C71.7291 144.758 72.5158 141.916 72.5234 141.886L72.9281 141.999C72.8979 142.108 69.8152 153.428 70.1254 179.891L69.7056 179.895Z" fill="#1B2A4B"/>
<path d="M129.629 124.923H121.406V125.342H129.629V124.923Z" fill="#1B2A4B"/>
<path d="M222.781 176.23C222.781 176.23 221.177 175.535 220.209 175.354C219.24 175.173 213.612 175.897 213.612 175.897C213.612 175.897 216.033 174.267 217.304 173.723C218.575 173.18 224.505 172.062 224.505 172.062C224.188 172.757 222.236 173.912 222.781 176.23Z" fill="#F07E20"/>
<path d="M224.91 164.997L219.876 162.917L216.88 158.92L223.597 161.377L226.317 161.46L224.91 164.997Z" fill="#F07E20"/>
<path d="M220.149 168.077C220.149 168.077 215.338 167.533 214.248 168.077C213.159 168.62 210.436 171.428 210.799 172.062C211.162 172.696 215.973 169.918 217.788 169.949C219.604 169.979 224.975 169.073 224.975 169.073L220.149 168.077Z" fill="#F07E20"/>
<path d="M207.621 194.041C207.621 194.041 212.795 192.263 214.066 191.901C215.337 191.539 218.212 191.459 218.212 191.459C218.212 191.459 217.591 193.049 217.871 193.169C218.151 193.29 219.422 194.056 219.422 194.056L207.621 194.041Z" fill="#F28F38"/>
<path d="M227.047 194.041C227.047 194.041 230.436 192.445 231.283 192.445C232.13 192.445 235.58 193.245 235.58 193.245L235.217 194.06L227.047 194.041Z" fill="#F28F38"/>
<path d="M224.906 153.255H219.422L219.195 152.454L221.237 151.186L217.969 150.28L217.152 148.786L220.012 147.382L218.968 145.457H223.7L223.325 146.657L221.6 146.057L222.327 148.65L222.1 149.737L224.418 150.103L224.906 153.255Z" fill="#85191B"/>
<path d="M221.736 194.041L221.918 193.248L223.733 193.033L224.278 194.056L221.736 194.041Z" fill="#B83D38"/>
<path d="M89.3133 145.404H82.9703C81.0451 145.404 79.4717 143.833 79.4717 141.912C79.4717 139.991 81.0451 138.421 82.9703 138.421H89.3133C91.2385 138.421 92.812 139.991 92.812 141.912C92.812 143.833 91.2385 145.404 89.3133 145.404Z" fill="#EF7B28"/>
<path d="M234.173 106.108C234.173 106.108 234.037 103.881 234.052 102.918C234.067 101.956 236.454 99.189 237.267 99.189C238.076 99.189 237.808 101.737 237.672 102.529C237.535 103.322 237.94 104.043 237.49 104.669C237.04 105.3 236.155 106.632 236.155 106.632L234.173 106.108Z" fill="#E49050"/>
<path d="M248.414 109.776L244.583 113.441C243.679 112.69 242.964 111.83 242.397 110.988C242.306 110.856 242.223 110.724 242.139 110.595C241.629 109.78 241.251 109.01 240.982 108.417C240.937 108.323 240.895 108.229 240.857 108.146C240.645 107.685 242.983 106.209 244.303 105.273C244.711 104.971 245.029 104.734 245.135 104.586C245.135 104.586 245.044 105.205 245.131 105.624C245.335 106.613 245.77 107.217 246.285 107.783C247.628 109.244 248.414 109.776 248.414 109.776Z" fill="#F6AA78"/>
<path d="M245.516 105.711C245.516 105.711 244.756 109.738 242.396 110.984C242.305 110.852 242.222 110.72 242.139 110.591C241.628 109.776 241.25 109.006 240.981 108.413C241.269 107.817 243.236 106.564 244.408 105.737C245.066 105.726 245.516 105.711 245.516 105.711Z" fill="#F39253"/>
<path d="M240.823 110.184C240.823 110.184 246.557 108.274 245.309 104.729C244.061 101.185 243.962 98.5507 240.248 99.6226C236.534 100.691 236.303 102.291 236.432 103.578C236.56 104.858 239.299 110.587 240.823 110.184Z" fill="#F6AA78"/>
<path d="M245.747 105.798C245.747 105.798 245.165 105.413 246.447 103.39C247.109 102.348 247.699 101.367 246.761 99.6719C245.823 97.9771 245.884 96.607 243.3 96.607C240.717 96.607 240.456 95.4143 239.143 95.8295C237.827 96.2447 236.658 98.1734 235.531 98.5358C234.404 98.8981 233.549 104.786 236.129 104.624C236.129 104.624 237.097 104.145 237.532 103.363C237.963 102.586 240.165 100.812 240.861 101.389C241.56 101.974 244.363 105.824 245.747 105.798Z" fill="#203865"/>
<path d="M249.356 118.963C249.356 118.963 238.047 124.013 231.174 125.172C231.174 125.172 229.022 125.025 228.95 122.383C228.905 120.707 240.233 112.475 244.375 112.72C248.516 112.966 250.786 117.193 249.356 118.963Z" fill="#EF7B28"/>
<path d="M236.405 106.428L235.467 119.174L228.946 122.386C228.946 122.386 229.048 117.627 230.898 112.358C232.899 106.654 233.962 105.726 233.962 105.726C233.962 105.726 235.766 105.318 236.405 106.428Z" fill="#EF7B28"/>
<path d="M246.743 192.916C246.69 193.482 246.569 193.958 246.311 194.078C246.266 194.097 246.194 194.116 246.096 194.135H237.487C237.257 194.127 237.128 194.124 237.128 194.124C237.128 194.124 237.151 193.063 238.614 192.855C239.798 192.689 241.708 192.127 242.65 190.904C242.873 190.613 243.04 190.289 243.131 189.919C243.603 188.002 246.705 190.583 246.705 190.583C246.705 190.583 246.739 190.919 246.762 191.38C246.78 191.836 246.792 192.414 246.743 192.916Z" fill="#203865"/>
<path d="M254.814 194.135H245.248C245.354 193.89 245.744 193.173 246.742 192.916C246.837 192.889 246.939 192.871 247.048 192.855C248.081 192.712 249.666 192.267 250.679 191.342C251.103 190.957 251.428 190.485 251.568 189.919C252.041 188.002 255.143 190.583 255.143 190.583C255.143 190.583 255.177 190.889 255.199 191.323C255.245 192.27 255.256 193.814 254.814 194.135Z" fill="#203865"/>
<path d="M250.751 142.165C250.751 142.165 250.744 142.512 250.728 143.135C250.641 147.151 250.297 162.686 249.972 171.345C249.957 171.662 249.945 171.964 249.934 172.262C249.927 172.417 249.923 172.575 249.915 172.73C249.719 176.916 249.151 181.015 248.576 184.295C247.842 188.477 247.097 191.323 247.097 191.323C244.302 191.889 242.49 190.829 242.49 190.829C242.49 190.829 241.738 184.34 241.45 180.411C241.356 179.135 240.894 174.787 240.319 169.499C239.873 165.408 239.355 160.754 238.878 156.523C238.852 156.296 238.829 156.073 238.803 155.851C238.035 149.008 237.399 143.433 237.399 143.433L242.343 142.965L250.751 142.165Z" fill="#264791"/>
<path d="M248.58 184.295L240.323 169.499C239.877 165.408 239.359 160.754 238.882 156.523C238.856 156.296 238.833 156.074 238.807 155.851C238.039 149.008 237.403 143.433 237.403 143.433L242.347 142.965L250.732 143.135L248.58 184.295Z" fill="#203865"/>
<path d="M238.319 143.471C238.319 143.471 242.938 166.257 246.705 177.256C250.468 188.255 250.517 191.308 250.517 191.308C250.517 191.308 253.971 192.055 255.495 191.187C255.495 191.187 256.365 170.337 254.088 164.8C252.583 161.139 251.429 153.341 251.822 150.536C252.216 147.728 252.579 142.097 252.579 142.097L238.319 143.471Z" fill="#264791"/>
<path d="M253.18 141.504C252.919 142.897 252.302 144.01 251.342 144.686C250.248 145.456 248.527 145.735 246.633 145.709C244.42 145.671 241.969 145.218 240.013 144.633C238.958 144.32 238.05 143.969 237.392 143.629C234.465 142.108 234.881 140.081 234.953 132.494C235.025 124.753 239.798 114.747 240.656 113.071C242.188 110.089 248.679 111.071 248.679 111.071C250.101 112.373 251.349 114.264 252.2 117.291C252.544 118.514 252.745 120.227 252.862 122.152C253.214 128.029 252.76 135.865 253.104 137.696C253.365 139.092 253.388 140.391 253.18 141.504Z" fill="#F28F38"/>
<path d="M247.835 108.111C247.835 108.111 248.898 110.621 248.682 111.067C248.682 111.067 242.85 111.618 240.475 113.305C240.475 113.305 241.258 110.867 242.207 110.263C243.156 109.659 247.835 108.111 247.835 108.111Z" fill="#EF7B28"/>
<path d="M253.179 141.504C241.095 136.914 247.994 119.944 247.994 119.944C249.685 120.065 251.341 120.884 252.862 122.145C253.213 128.022 252.76 135.857 253.104 137.688C253.365 139.092 253.387 140.391 253.179 141.504Z" fill="#EF7B28"/>
<path d="M247.654 112.199C247.654 112.199 258.01 119.125 262.507 124.44C262.507 124.44 262.235 126.557 260.782 127.403C259.33 128.244 246.697 123.338 244.802 119.657C242.907 115.974 245.399 111.871 247.654 112.199Z" fill="#F28F38"/>
<path d="M249.094 134.57C249.094 134.57 248.433 135.714 247.797 135.446C247.162 135.178 245.876 134.891 244.919 135.506C243.962 136.122 242.521 137.779 243.421 138.182C244.321 138.586 246.035 137.514 246.439 137.333C246.844 137.152 247.551 137.514 248.33 137.122C249.11 136.733 249.923 135.952 249.923 135.952L249.094 134.57Z" fill="#F6AA78"/>
<path d="M248.054 134.88L256.55 123.285L262.507 124.436C262.507 124.436 261.712 128.35 257.393 131.898C252.945 135.552 250.486 136.276 250.486 136.276C250.486 136.276 247.54 136.786 248.054 134.88Z" fill="#F28F38"/>
<path d="M308.489 119.665C308.893 120.752 309.597 122.017 310.334 122.33C311.17 122.685 311.518 123.191 311.518 123.191L312.195 122.798L313.001 122.33C313.001 122.33 312.982 122.24 312.944 122.096C312.906 121.953 312.846 121.749 312.763 121.526C312.763 121.526 312.517 121.209 312.668 120.809C312.819 120.413 312.789 119.794 312.532 119.42C312.275 119.046 312.025 118.122 311.866 118.148C311.488 118.212 312.052 119.484 311.889 119.718C311.741 119.93 311.56 119.858 311.526 119.843C311.522 119.843 311.522 119.839 311.518 119.839C310.459 119.375 309.177 116.872 308.61 117.208C308.398 117.336 308.315 119.201 308.489 119.665Z" fill="#F6AA78"/>
<path d="M312.15 121.179L310.826 122.107C310.731 122.171 310.603 122.149 310.535 122.058L307.138 117.238C307.074 117.144 307.097 117.015 307.187 116.948L308.511 116.019C308.606 115.955 308.734 115.977 308.802 116.068L312.199 120.888C312.263 120.986 312.241 121.115 312.15 121.179Z" fill="#264791"/>
<path d="M310.936 122.032L310.16 122.575C310.088 122.624 309.99 122.609 309.941 122.537L306.488 117.634C306.438 117.563 306.454 117.464 306.525 117.415L307.301 116.872C307.373 116.823 307.471 116.838 307.52 116.91L310.974 121.813C311.023 121.881 311.008 121.982 310.936 122.032Z" fill="#203865"/>
<path d="M331.164 114.26C331.164 114.26 324.42 125.999 321.973 128.162L313.001 121.485C313.001 121.485 311.7 121.885 311.129 123.187C311.129 123.187 316.575 134.265 321.943 134.733C327.306 135.201 334.837 121.454 334.837 121.454L331.164 114.26Z" fill="#203865"/>
<path d="M346.429 194.109H350.325C350.817 193.845 351.252 193.233 351.392 192.327C351.581 191.074 352.988 190.391 353.294 189.364C353.597 188.341 352.039 186.899 352.039 186.899L351.778 186.564L351.505 186.216L348.918 186.824C348.918 186.824 348.854 187.439 348.816 188.221C348.789 188.787 348.774 189.44 348.805 190.01C348.88 191.376 348.423 192.848 347.205 193.112C346.304 193.312 346.346 193.845 346.429 194.109Z" fill="#203865"/>
<path d="M323.811 194.109H332.722C333.149 193.588 332.994 191.659 332.926 191.033C332.911 190.905 332.903 190.833 332.903 190.833C332.903 190.833 329.859 188.402 329.442 190.263C329.431 190.319 329.416 190.38 329.397 190.433C328.871 192.173 326.507 192.962 325.146 193.184C324.261 193.328 323.932 193.788 323.811 194.109Z" fill="#203865"/>
<path d="M325.509 144.467C325.509 144.467 325.97 150.22 326.515 157.138C327.252 166.533 328.141 178.075 328.228 180.26C328.38 184.058 328.989 190.131 328.989 190.131C328.989 190.131 330.433 191.573 333.323 190.965C333.323 190.965 335.899 182.295 336.636 173.123C336.648 172.972 336.659 172.821 336.67 172.67C337.355 163.332 338.418 143.671 338.418 143.671L325.509 144.467Z" fill="#F49854"/>
<path d="M325.509 144.467C325.509 144.467 325.97 150.22 326.515 157.138L336.636 173.123C336.648 172.972 336.659 172.821 336.67 172.67C337.355 163.332 338.418 143.671 338.418 143.671L325.509 144.467Z" fill="#F18539"/>
<path d="M327.619 145.15C327.619 145.15 335.948 165.989 341.425 175.78C346.902 185.571 348.615 188.304 348.615 188.304C348.615 188.304 351.754 187.051 352.038 186.198C352.038 186.198 349.943 167.291 346.278 162.683C344.205 160.078 341.769 152.265 341.655 149.533C341.542 146.8 340.914 141.391 340.914 141.391L327.619 145.15Z" fill="#F49854"/>
<path d="M329.692 114.773C332.949 115.8 338.581 113.033 338.581 113.033C338.581 113.033 335.581 110.787 335.737 106.111L333.221 108.134L331.512 109.508C331.512 109.508 331.519 110.319 331.705 111.739C331.754 112.112 331.814 112.527 331.894 112.984C330.494 113.75 329.692 114.773 329.692 114.773Z" fill="#F6AA78"/>
<path d="M331.512 109.508C331.512 109.508 331.519 110.32 331.705 111.739C333.6 111.414 335.748 108.361 335.748 108.361C334.783 108.081 333.94 108.032 333.221 108.134L331.512 109.508Z" fill="#F39253"/>
<path d="M330.513 109.432C330.513 109.432 335.888 110.323 336.395 106.975C336.898 103.627 337.934 101.484 334.522 100.774C331.111 100.064 330.248 101.242 329.81 102.318C329.367 103.393 329.129 109.112 330.513 109.432Z" fill="#F6AA78"/>
<path d="M325.15 144.947C325.248 145.03 325.362 145.075 325.49 145.075C326.712 145.06 330.279 145.735 333.293 145.426C335.835 145.181 338.086 144.429 340.502 143.35C340.824 143.207 341.562 142.814 341.546 142.455C341.535 142.063 341.497 141.497 341.448 140.78C341.278 138.292 340.979 134.008 341.27 129.067C341.323 128.146 341.35 127.237 341.353 126.338C341.38 119.643 340.049 113.754 337.374 111.762C337.148 111.599 335.744 112.282 334.458 112.917C333.267 113.502 332.079 113.566 330.956 113.339L329.832 114.332C328.463 115.6 326.962 117.325 326.311 119.945C325.755 122.171 325.43 126.191 325.252 130.354C325.169 132.242 325.105 134.144 325.089 135.952V136.016C325.074 136.194 325.074 136.39 325.074 136.571C325.002 141.202 325.071 144.879 325.15 144.947Z" fill="#264791"/>
<path d="M341.448 140.78C341.278 138.292 340.979 134.008 341.27 129.068C341.323 128.147 341.349 127.237 341.353 126.339C340.241 123.644 339.33 121.688 339.33 121.688H336.523C336.523 121.688 334.466 135.714 341.448 140.78Z" fill="#203865"/>
<path d="M346.725 141.263C346.725 141.263 347.353 142.097 347.379 142.433C347.549 144.697 346.513 145.011 349.195 146.267C349.195 146.267 350.341 146.702 350.36 145.815C350.378 144.928 349.565 144.912 349.713 143.671C349.883 142.236 349.868 142.225 348.926 141.478L348.302 140.447L346.725 141.263Z" fill="#F6AA78"/>
<path d="M348.32 141.9C347.31 142.097 346.213 142.017 346.213 142.017C346.213 142.017 343.214 132.766 342.828 131.924C342.442 131.079 333.917 121.08 333.917 121.08L337.469 112.21C337.469 112.21 346.69 127.584 347.628 129.743C349.175 133.313 349.712 141.315 349.712 141.315C349.712 141.315 349.114 141.746 348.32 141.9Z" fill="#264791"/>
<path d="M336.398 106.651C336.398 106.651 335.846 106.56 335.936 105.802C336.027 105.043 336.023 104.05 335.407 104.235C334.79 104.42 334.756 104.915 334.503 104.624C334.25 104.337 334.246 103.122 332.408 103.035C330.569 102.952 329.82 103.59 328.966 103.212C328.111 102.839 328.065 101.548 328.065 101.548C328.065 101.548 328.307 102.008 328.674 102.155C328.674 102.155 327.248 100.208 328.901 98.8754C330.554 97.5393 332.237 98.415 333.191 98.4716C335.297 98.5999 336.655 98.7245 337.344 100.106C338.036 101.487 337.752 105.322 336.398 106.651Z" fill="#264791"/>
<path d="M347.715 142.255C347.715 142.255 347.11 142.886 347.072 143.146C346.951 143.988 346.667 144.35 346.807 144.441C347.102 144.63 347.488 144.007 347.674 143.448C347.859 142.893 347.715 142.255 347.715 142.255Z" fill="#F6AA78"/>
</svg>
