<svg width="49" height="49" viewBox="0 0 49 49" fill="none" xmlns="http://www.w3.org/2000/svg">
<circle cx="24.5" cy="24.5" r="24.5" fill="#3E593E"/>
<g clip-path="url(#clip0_117_946)">
<path d="M12.491 12.0825C10.873 12.0825 9.56104 13.3956 9.56104 15.0149V37.7017C9.56104 39.3209 10.873 40.634 12.491 40.634H37.7C39.318 40.634 40.63 39.3209 40.63 37.7017V15.0149C40.63 13.3956 39.318 12.0825 37.7 12.0825H36.673V13.9409C36.673 15.1827 35.6628 16.1895 34.4263 16.1895C33.1855 16.1895 32.1795 15.1785 32.1795 13.9409V12.0825H18.0115V13.9409C18.0115 15.1827 17.0013 16.1895 15.7648 16.1895C14.524 16.1895 13.518 15.1785 13.518 13.9409V12.0825H12.491ZM14.348 20.2964H35.8431C36.4928 20.2964 37.0168 20.7705 37.0168 21.3578V36.053C37.0168 36.6403 36.4928 37.1144 35.8431 37.1144H14.348C13.6983 37.1144 13.1743 36.6403 13.1743 36.053V21.3578C13.1785 20.7705 13.7024 20.2964 14.348 20.2964Z" fill="white"/>
<path d="M14.6917 9.43965V12.0783V13.9367C14.6917 14.5282 15.1737 15.0107 15.7647 15.0107C16.3558 15.0107 16.8378 14.5282 16.8378 13.9367V12.0825V9.43965C16.842 8.84815 16.36 8.36572 15.7647 8.36572C15.1737 8.36572 14.6917 8.84815 14.6917 9.43965Z" fill="white"/>
<path d="M33.3533 9.43965V12.0783V13.9367C33.3533 14.5282 33.8353 15.0107 34.4264 15.0107C35.0174 15.0107 35.4994 14.5282 35.4994 13.9367V12.0825V9.43965C35.4994 8.84396 35.0174 8.36572 34.4264 8.36572C33.8353 8.36572 33.3533 8.84815 33.3533 9.43965Z" fill="white"/>
<path d="M20.9206 22.1299H15.2324V27.9526H20.9206V22.1299Z" fill="white"/>
<path d="M28.08 22.1299H22.3918V27.9526H28.08V22.1299Z" fill="white"/>
<path d="M20.9206 29.2866H15.2324V35.1093H20.9206V29.2866Z" fill="white"/>
<path d="M28.08 29.2866H22.3918V35.1093H28.08V29.2866Z" fill="white"/>
<path d="M35.5036 22.1299H29.8154V27.9526H35.5036V22.1299Z" fill="white"/>
<path d="M35.5036 29.2866H29.8154V35.1093H35.5036V29.2866Z" fill="white"/>
</g>
<defs>
<clipPath id="clip0_117_946">
<rect width="31.0732" height="32.2683" fill="white" transform="translate(9.56104 8.36572)"/>
</clipPath>
</defs>
</svg>
