<svg width="31" height="38" viewBox="0 0 31 38" fill="none" xmlns="http://www.w3.org/2000/svg">
<path fill-rule="evenodd" clip-rule="evenodd" d="M15.4997 7.53852C19.5373 7.53852 22.8819 10.5453 23.4807 14.4723H18.5906C18.0973 13.2308 16.8998 12.354 15.4997 12.354C14.0997 12.354 12.9021 13.2308 12.4089 14.4723H7.51878C8.11756 10.5453 11.4622 7.53852 15.4997 7.53852ZM23.4807 16.9987H21.7813C18.9955 17.0103 16.7429 19.3023 16.7429 22.1325V23.837C20.2073 23.293 22.9446 20.5148 23.4807 16.9987ZM15.4997 14.4087C16.2211 14.4087 16.8057 15.0019 16.8057 15.7341C16.8057 16.4662 16.2211 17.0595 15.4997 17.0595C14.7783 17.0595 14.1938 16.4662 14.1938 15.7341C14.1938 15.0019 14.7783 14.4087 15.4997 14.4087ZM28.2909 18.2402L28.2653 18.3704C28.2738 18.327 28.2824 18.2836 28.2909 18.2402ZM28.3822 17.6904C28.3679 17.7801 28.3565 17.8669 28.3423 17.9566C28.3565 17.8669 28.3679 17.7772 28.3822 17.6904ZM25.9899 16.9987H28.4649H30.9484C31.014 16.1595 31.014 15.3145 30.9484 14.4723H28.4649C28.3993 13.7807 28.2824 13.0919 28.1113 12.4119C28.2824 13.089 28.3993 13.7778 28.4649 14.4723H25.9899C25.374 9.14464 20.9116 5.01213 15.4969 5.01213C10.0821 5.01213 5.62262 9.14464 5.00673 14.4723H2.36066C2.58307 11.7202 3.78064 8.91023 6.27844 6.37516C11.351 1.22689 19.6428 1.22689 24.7182 6.37516C26.3492 8.03048 27.4583 10.0273 28.04 12.1398C28.0229 12.0762 28.003 12.0096 27.9859 11.9459H30.5492C29.8963 9.24882 28.539 6.69639 26.4689 4.5983C20.4297 -1.53391 10.5697 -1.53391 4.53055 4.5983C2.46046 6.69639 1.10036 9.24882 0.450251 11.9459H2.8454C2.58592 12.7881 2.42624 13.6331 2.35781 14.4723H0.0482094C-0.0173719 15.3116 -0.0173719 16.1566 0.0482094 16.9987H2.42054C2.53175 17.8611 2.73419 18.7061 3.01363 19.5251H0.450251C1.10321 22.2193 2.46046 24.7689 4.5277 26.867L15.4969 37.9999L26.4661 26.867C28.5333 24.7689 29.8906 22.2193 30.5435 19.5251H27.9801L27.9916 19.4817C27.3985 21.5364 26.3064 23.4724 24.7153 25.0872C15.8704 34.067 3.65803 26.5139 2.42339 16.9987H5.00673C5.62262 22.3264 10.085 26.4589 15.4997 26.4589C20.9145 26.4589 25.374 22.3235 25.9899 16.9987ZM7.51878 16.9987H9.21819C12.004 17.0103 14.2565 19.3023 14.2565 22.1325V23.837C10.7921 23.293 8.05483 20.5148 7.51878 16.9987Z" fill="#277F27"/>
</svg>
