<svg width="33" height="33" viewBox="0 0 33 33" fill="none" xmlns="http://www.w3.org/2000/svg">
<g clip-path="url(#clip0_585_564)">
<path d="M14.6885 13.1744C15.0825 13.0286 15.3523 12.6626 15.3523 12.2407V12.1942C15.3523 11.4931 14.6575 10.9937 13.9998 11.2356C11.5554 12.1352 9.84304 14.5704 10.0447 17.3654C10.2587 20.3372 12.6535 22.7351 15.6222 22.9553C18.4172 23.1632 20.8523 21.4601 21.7582 19.0188C22.0032 18.3611 21.5038 17.6632 20.8027 17.6632H20.7593C20.3374 17.6632 19.9714 17.933 19.8225 18.3239C19.2144 19.9339 17.5952 21.0537 15.7401 20.8986C13.8075 20.7404 12.2503 19.1801 12.0983 17.2475C11.9494 15.3924 13.0723 13.7762 14.6885 13.1744Z" fill="white"/>
<path d="M17.4027 8.00666C17.8246 8.0687 18.2434 7.87016 18.4543 7.49791C18.808 6.87129 18.4233 6.08026 17.7098 5.97479C17.0522 5.87862 16.3728 5.8383 15.6811 5.86311C9.76537 6.07095 5.02538 10.9785 5.01297 16.8972C4.99746 23.089 10.0942 28.1144 16.3108 27.9872C22.3785 27.8631 27.2518 22.7974 27.1464 16.7297C27.1371 16.2458 27.0998 15.7712 27.0316 15.3059C26.9261 14.5924 26.1351 14.2077 25.5085 14.5645C25.1362 14.7754 24.9377 15.1942 24.9966 15.6161C25.0618 16.0535 25.0928 16.5002 25.0928 16.9562C25.0742 21.966 21.0446 25.9615 16.0347 25.9336C11.1241 25.9026 7.1317 21.935 7.06966 17.0337C7.00762 11.9649 10.9783 7.926 16.044 7.90739C16.5062 7.90739 16.9591 7.94151 17.4027 8.00666Z" fill="white"/>
<path d="M30.0747 11.9836C29.6622 12.2162 29.4636 12.7032 29.5908 13.1624C29.9631 14.4931 30.1399 15.9046 30.0965 17.3626C29.87 24.7859 23.8085 30.7853 16.379 30.9404C8.41908 31.1079 1.9047 24.6028 2.0598 16.6429C2.2025 9.20409 8.21124 3.1271 15.65 2.90065C17.108 2.85722 18.5226 3.03714 19.8534 3.41249C20.3125 3.53968 20.7964 3.34425 21.0322 2.92857C21.3579 2.35158 21.0601 1.61328 20.4211 1.43336C18.9569 1.02079 17.412 0.812946 15.8114 0.840865C7.07588 0.983561 0.00932219 8.16489 1.59253e-05 16.9004C-0.0123924 25.7878 7.22788 33.0188 16.1154 33.0002C24.8601 32.9816 32.0446 25.8809 32.1594 17.1361C32.1811 15.5603 31.9732 14.0371 31.57 12.5916C31.39 11.9525 30.6548 11.6547 30.0747 11.9836Z" fill="white"/>
<path d="M20.9235 10.6247L15.3521 16.1929C14.952 16.5962 14.952 17.2445 15.3521 17.6478C15.5538 17.8494 15.8174 17.9487 16.0811 17.9487C16.3448 17.9487 16.6054 17.8494 16.807 17.6478L22.3753 12.0795L23.5789 10.8759C23.6781 10.8945 23.7805 10.9038 23.886 10.9038H27.8442C28.322 10.9038 28.7718 10.7177 29.1068 10.3796L31.5543 7.93204C32.1034 7.38608 32.2337 6.55472 31.8863 5.86295C31.5388 5.17119 30.7912 4.78653 30.025 4.90131L29.4697 4.98506L27.7574 5.24564L28.018 3.53329L28.1017 2.97801C28.2165 2.2118 27.8287 1.46419 27.1401 1.11676C26.4514 0.769326 25.62 0.899614 25.071 1.44868L22.6234 3.89933C22.2853 4.23746 22.0992 4.68416 22.0992 5.16188V9.12014C22.0992 9.22561 22.1085 9.32798 22.1271 9.42725L20.9235 10.6247ZM24.1559 5.26425L25.9489 3.47124L25.6759 5.28907C25.648 5.4814 25.6511 5.67372 25.6821 5.85985C25.7441 6.21969 25.9147 6.55472 26.1784 6.81839C26.4421 7.08207 26.7771 7.25269 27.137 7.31473C27.3231 7.34885 27.5185 7.35195 27.7077 7.32093L29.5256 7.04795L27.7326 8.84096H25.6076H24.1528V7.38608V5.26425H24.1559Z" fill="white"/>
<path d="M32.6991 0.300989C32.299 -0.102283 31.6475 -0.102283 31.2443 0.300989L29.5815 1.96371C29.6715 2.36077 29.6901 2.77956 29.6281 3.20144L29.5971 3.39997L29.7987 3.36895C29.9631 3.34414 30.1306 3.33173 30.2981 3.33173C30.5525 3.33173 30.7976 3.35965 31.0364 3.41548L32.6991 1.75277C33.1024 1.3557 33.1024 0.701158 32.6991 0.300989Z" fill="white"/>
</g>
<defs>
<clipPath id="clip0_585_564">
<rect width="33" height="33" fill="white"/>
</clipPath>
</defs>
</svg>
