<svg width="28" height="17" viewBox="0 0 28 17" fill="none" xmlns="http://www.w3.org/2000/svg">
<path d="M14.7219 9.48766L27.9405 0.0360954L0.0595703 0L13.2744 9.48676C13.6828 9.78004 14.3126 9.78004 14.7219 9.48766Z" fill="#1E8135"/>
<path d="M0 1.06299V15.3315C0 15.6284 0.100465 15.9063 0.249302 16.1481L9.44465 7.82545L0 1.06299Z" fill="#1E8135"/>
<path d="M13.9999 11.0741L10.3637 8.4608L1.11621 16.8421C1.35807 16.9468 1.62784 17.0001 1.91342 17.0001H26.0855C26.3981 17.0001 26.693 16.9351 26.9516 16.8106L17.693 8.422L13.9999 11.0741Z" fill="#1E8135"/>
<path d="M18.6279 7.78399L27.7712 16.0877C27.8977 15.8603 28 15.604 28 15.3315V1.06213L18.6279 7.78399Z" fill="#1E8135"/>
</svg>
