<svg width="49" height="49" viewBox="0 0 49 49" fill="none" xmlns="http://www.w3.org/2000/svg">
<circle cx="24.5" cy="24.5" r="24.5" fill="#3E593E"/>
<g clip-path="url(#clip0_117_962)">
<path d="M30.6911 17.5122C30.6781 17.431 30.6694 17.3456 30.6521 17.2687C30.639 17.2046 30.6217 17.1491 30.6087 17.0893L30.5566 16.8928C30.5436 16.8373 30.5306 16.786 30.5132 16.7348C30.4872 16.6579 30.4611 16.581 30.4307 16.5084L30.3613 16.3247C30.3483 16.2906 30.3396 16.2564 30.3223 16.2222C30.2789 16.1154 30.2224 16.0129 30.1704 15.9104L30.114 15.7951C30.1053 15.7737 30.0966 15.7523 30.0836 15.7353C30.0141 15.6114 29.9404 15.4918 29.8623 15.3722C29.8492 15.3508 29.8319 15.3295 29.8189 15.3038C29.7147 15.1458 29.6149 15.0219 29.5194 14.9023L29.4804 14.8511C29.3762 14.7229 29.2591 14.5948 29.1289 14.4666L29.0942 14.4282C28.0483 13.3902 26.6336 12.805 25.1234 12.788L25.0583 12.7837C21.9252 12.7837 19.3691 15.2996 19.3691 18.3921C19.3691 21.4804 21.9208 23.9962 25.0583 24.0005H25.1278C26.6336 23.9834 28.0527 23.394 29.1115 22.3432C29.2547 22.198 29.3719 22.0698 29.476 21.946C29.4934 21.9246 29.5064 21.9075 29.5194 21.8904C29.6149 21.7708 29.7104 21.6469 29.8015 21.5188C29.8319 21.4675 29.8449 21.4419 29.8623 21.4206C29.9404 21.301 30.0185 21.1814 30.0836 21.0575C30.0923 21.0404 30.1053 21.019 30.114 21.002C30.127 20.9721 30.14 20.9422 30.1574 20.9123L30.1834 20.8653C30.2311 20.767 30.2832 20.6731 30.3223 20.5748C30.3353 20.5406 30.3483 20.5107 30.3613 20.4766L30.4307 20.2886C30.4611 20.2117 30.4915 20.1391 30.5132 20.0622C30.5306 20.011 30.5436 19.9555 30.5566 19.9042L30.6087 19.7034C30.626 19.6479 30.639 19.5881 30.6521 19.5283C30.6694 19.4472 30.6781 19.3617 30.6911 19.2806L30.7215 19.0841C30.7302 19.0456 30.7345 19.0072 30.7389 18.973C30.7562 18.7851 30.7692 18.5929 30.7692 18.4006C30.7692 18.2084 30.7606 18.0162 30.7389 17.8283C30.7345 17.7898 30.7258 17.7514 30.7215 17.7172L30.6911 17.5122Z" fill="white"/>
<path d="M35.0264 25.7303C35.0828 25.6364 35.1436 25.5381 35.2261 25.4185C35.2347 25.4014 35.2478 25.3886 35.2564 25.3715C35.4083 25.0939 35.6383 24.6838 35.6513 24.6668C36.58 22.877 37.0487 20.9506 37.0487 18.9345C37.0487 18.7166 37.0443 18.5031 37.0357 18.2938C37.0313 18.1998 37.0226 18.1101 37.0183 18.0204L37.0053 17.8367C37.0009 17.7769 36.9966 17.7214 36.9923 17.6658C36.9836 17.589 36.9749 17.5163 36.9662 17.4395L36.9489 17.2771C36.9402 17.2003 36.9315 17.1234 36.9228 17.0422C36.9142 16.9824 36.9055 16.9183 36.8925 16.8585L36.8664 16.7005C36.8534 16.6108 36.8404 16.5254 36.823 16.4399C36.81 16.3716 36.797 16.299 36.7796 16.2306L36.7406 16.0427C36.7276 15.9786 36.7145 15.9146 36.7015 15.8505C36.6798 15.7565 36.6538 15.6668 36.6321 15.5771L36.593 15.4233C36.58 15.3764 36.5713 15.3294 36.554 15.2781C36.5236 15.1799 36.4932 15.0816 36.4628 14.9834L36.4281 14.8595C36.4151 14.8125 36.3977 14.7613 36.3847 14.7185C36.3543 14.6203 36.3153 14.5263 36.2806 14.4324L36.2328 14.3042C36.2155 14.2572 36.2025 14.2145 36.1851 14.1718C36.1417 14.065 36.0983 13.9625 36.0549 13.8557L36.0028 13.7404C35.9898 13.7062 35.9768 13.6763 35.9638 13.6421C35.8987 13.5012 35.8336 13.3645 35.7642 13.2278L35.7121 13.1338C35.6427 12.9972 35.5689 12.8647 35.4777 12.7067L35.443 12.6426C35.3606 12.5017 35.2738 12.365 35.174 12.2069C35.1696 12.2027 35.1523 12.1685 35.1479 12.1642C35.0568 12.0275 34.9613 11.8908 34.8572 11.7456C34.8528 11.7413 34.8355 11.7114 34.8312 11.7072C34.727 11.5662 34.6185 11.4295 34.5144 11.3014C34.51 11.2928 34.4927 11.2758 34.4883 11.2672C34.3755 11.1263 34.254 10.9896 34.1281 10.8486C34.0023 10.7119 33.8764 10.5795 33.7463 10.4514C33.7463 10.4514 33.7463 10.4514 33.7419 10.4471C31.5678 8.30283 28.5778 7.1709 25.0975 7.1709C18.063 7.1709 13.1462 12.0062 13.1462 18.9345C13.1462 21.0745 13.7017 23.1931 14.7519 25.0512L14.9298 25.3758C14.9385 25.3886 14.9428 25.4014 14.9515 25.41L15.2509 25.8628C15.2857 25.914 15.316 25.9653 15.3334 25.9866L22.9797 38.6344H22.9754L24.746 41.5689C24.8414 41.7269 25.015 41.8252 25.2016 41.8252C25.2016 41.8252 25.2016 41.8252 25.2059 41.8252C25.3926 41.8252 25.5661 41.7269 25.6616 41.5646L27.3888 38.6387H27.3844L34.8485 26.008C34.9136 25.914 34.9657 25.8243 35.0264 25.7303ZM31.7934 19.0669C31.7848 19.131 31.7761 19.1908 31.7674 19.2506L31.7457 19.4086C31.7327 19.5154 31.7153 19.6222 31.6936 19.7247C31.6763 19.8058 31.6546 19.8827 31.6329 19.9639L31.5895 20.1347C31.5721 20.2116 31.5504 20.2842 31.5287 20.3569C31.4984 20.4551 31.4593 20.5533 31.4246 20.6516L31.3682 20.8054C31.3465 20.8609 31.3291 20.9121 31.3074 20.9677C31.2553 21.0873 31.1946 21.2069 31.1382 21.3222L31.0861 21.429C31.0687 21.4674 31.047 21.5102 31.0253 21.5486C30.9429 21.6981 30.8561 21.8391 30.7606 21.98C30.7259 22.0355 30.7085 22.0654 30.6912 22.0953C30.587 22.2491 30.4742 22.3943 30.357 22.5396C30.3353 22.5695 30.3223 22.5866 30.3093 22.6036C30.1835 22.7531 30.0446 22.9069 29.897 23.0564C28.6169 24.3293 26.9374 25.0256 25.1452 25.0469C25.1235 25.0469 25.1018 25.0512 25.0758 25.0512C21.3481 25.0512 18.319 22.0654 18.319 18.4005C18.319 14.7314 21.3524 11.7499 25.0758 11.7499L25.1452 11.7542C26.9331 11.7712 28.6125 12.4718 29.8753 13.7233L29.9057 13.7532C30.0576 13.9027 30.1878 14.0479 30.3093 14.1932C30.3267 14.2145 30.3397 14.2316 30.3527 14.2487C30.4742 14.3982 30.587 14.5477 30.6912 14.7015C30.7085 14.7271 30.7259 14.757 30.7433 14.7869C30.8518 14.9577 30.9429 15.0987 31.0253 15.2439C31.047 15.2824 31.0644 15.3251 31.0861 15.3635L31.1121 15.4148C31.1902 15.5686 31.2553 15.6924 31.3074 15.8206C31.3291 15.8761 31.3508 15.9316 31.3725 15.9872L31.4289 16.1367C31.468 16.2349 31.5027 16.3289 31.5331 16.4271C31.5548 16.4997 31.5765 16.5766 31.5938 16.6535L31.6372 16.8201C31.6589 16.9013 31.6806 16.9824 31.698 17.0636C31.7197 17.1661 31.7327 17.2729 31.75 17.3797L31.7761 17.5377C31.7848 17.5975 31.7978 17.6573 31.8021 17.7214C31.8238 17.9435 31.8368 18.1742 31.8368 18.4005C31.8282 18.6141 31.8151 18.8448 31.7934 19.0669Z" fill="white"/>
</g>
<defs>
<clipPath id="clip0_117_962">
<rect width="23.9024" height="34.6585" fill="white" transform="translate(13.1462 7.1709)"/>
</clipPath>
</defs>
</svg>
