<svg width="85" height="28" viewBox="0 0 85 28" fill="none" xmlns="http://www.w3.org/2000/svg">
<path d="M0.888 0.36V9H2.196L6.276 3.048V9H7.692V0.36H6.372L2.304 6.312V0.36H0.888ZM11.1104 9V5.22H15.0824V9H16.4984V0.36H15.0824V3.804H11.1104V0.36H9.69441V9H11.1104ZM17.9979 4.68C17.9979 7.128 19.9899 9.12 22.4379 9.12C23.7219 9.12 24.8739 8.568 25.6899 7.704L24.6939 6.696C24.1299 7.32 23.3259 7.704 22.4379 7.704C20.7699 7.704 19.4139 6.348 19.4139 4.68C19.4139 3.012 20.7699 1.656 22.4379 1.656C23.3259 1.656 24.1299 2.04 24.6939 2.664L25.6899 1.656C24.8739 0.779999 23.7219 0.24 22.4379 0.24C19.9899 0.24 17.9979 2.232 17.9979 4.68ZM29.1717 1.776V9H30.5877V1.776H33.2877V0.36H26.4597V1.776H29.1717ZM34.6371 9H36.0531V6.288H38.2371C39.8331 6.288 41.0091 5.028 41.0091 3.324C41.0091 1.62 39.8331 0.36 38.2371 0.36H34.6371V9ZM38.0571 1.776C39.0051 1.776 39.6051 2.376 39.6051 3.324C39.6051 4.26 38.9931 4.872 38.0451 4.872H36.0531V1.776H38.0571ZM44.6548 6.336L44.4148 6.912C44.1508 7.536 43.7068 7.752 43.1428 7.752C43.0228 7.752 42.9148 7.74 42.8068 7.74V9.108C42.9868 9.12 43.1788 9.12 43.3588 9.12C44.4868 9.12 45.2908 8.568 45.7468 7.44L48.5788 0.36H47.0428L45.3388 4.572L43.2388 0.36H41.6428L44.6548 6.336ZM51.0643 9V5.22L54.3763 9H56.1523L52.2163 4.464L56.0203 0.36H54.2323L51.0643 3.732V0.36H49.6483V9H51.0643ZM59.4052 1.776V9H60.8212V1.776H63.5212V0.36H56.6932V1.776H59.4052ZM68.3975 9.12C70.8455 9.12 72.8375 7.128 72.8375 4.68C72.8375 2.232 70.8455 0.24 68.3975 0.24C65.9495 0.24 63.9575 2.232 63.9575 4.68C63.9575 7.128 65.9495 9.12 68.3975 9.12ZM65.3735 4.68C65.3735 3.012 66.7295 1.656 68.3975 1.656C70.0655 1.656 71.4215 3.012 71.4215 4.68C71.4215 6.348 70.0655 7.704 68.3975 7.704C66.7295 7.704 65.3735 6.348 65.3735 4.68ZM74.3449 9H75.7609V6.288H77.9449C79.5409 6.288 80.7169 5.028 80.7169 3.324C80.7169 1.62 79.5409 0.36 77.9449 0.36H74.3449V9ZM77.7649 1.776C78.7129 1.776 79.3129 2.376 79.3129 3.324C79.3129 4.26 78.7009 4.872 77.7529 4.872H75.7609V1.776H77.7649ZM0.696 26H2.112V21.416H4.74V26H6.156V20H0.696V26ZM11.1526 19.88C9.43659 19.88 8.03259 21.272 8.03259 23C8.03259 24.716 9.43659 26.12 11.1526 26.12C12.8806 26.12 14.2726 24.716 14.2726 23C14.2726 21.272 12.8806 19.88 11.1526 19.88ZM9.44859 23C9.44859 22.064 10.2166 21.296 11.1526 21.296C12.0886 21.296 12.8566 22.064 12.8566 23C12.8566 23.936 12.0886 24.704 11.1526 24.704C10.2166 24.704 9.44859 23.936 9.44859 23ZM20.1262 20V26H23.5342C24.5182 26 25.3342 25.28 25.3342 24.32C25.3342 23.672 24.9622 23.096 24.4222 22.844C24.8422 22.604 25.1422 22.112 25.1422 21.56C25.1422 20.672 24.3742 20 23.4502 20H20.1262ZM23.2582 23.42C23.7982 23.42 24.0622 23.78 24.0622 24.128C24.0622 24.488 23.7982 24.848 23.2582 24.848H21.4462V23.42H23.2582ZM23.1742 21.152C23.6422 21.152 23.8702 21.464 23.8702 21.764C23.8702 22.064 23.6422 22.352 23.1862 22.352H21.4462V21.152H23.1742ZM30.0203 19.88C28.3043 19.88 26.9003 21.272 26.9003 23C26.9003 24.716 28.3043 26.12 30.0203 26.12C31.7483 26.12 33.1403 24.716 33.1403 23C33.1403 21.272 31.7483 19.88 30.0203 19.88ZM28.3163 23C28.3163 22.064 29.0843 21.296 30.0203 21.296C30.9563 21.296 31.7243 22.064 31.7243 23C31.7243 23.936 30.9563 24.704 30.0203 24.704C29.0843 24.704 28.3163 23.936 28.3163 23ZM34.0148 26H35.7908L38.0108 23.324V26H39.4268V23.324L41.6468 26H43.4348L40.8428 22.892L43.2788 20H41.4908L39.4268 22.46V20H38.0108V22.46L35.9588 20H34.1588L36.5948 22.892L34.0148 26ZM44.5478 27.32H45.9638V26H49.8638V27.32H51.2798V24.584H50.5238V20H45.9758C45.9038 21.152 45.8438 21.98 45.7118 23.108C45.6518 23.612 45.5678 24.308 45.2198 24.584H44.5478V27.32ZM47.0678 23.516C47.1518 22.82 47.1998 22.148 47.2598 21.392H49.1318V24.584H46.8878C46.9958 24.236 47.0318 23.852 47.0678 23.516ZM52.5531 23C52.5531 24.764 53.9331 26.12 55.7451 26.12C56.7291 26.12 57.5691 25.772 58.1451 25.136L57.2451 24.236C56.8851 24.632 56.3331 24.836 55.7571 24.836C54.8691 24.836 54.1971 24.38 53.9571 23.636H58.4211C58.4451 23.396 58.4811 23.144 58.4811 22.916C58.4811 21.128 57.3171 19.88 55.6131 19.88C53.8731 19.88 52.5531 21.236 52.5531 23ZM55.5891 21.152C56.3931 21.152 57.0291 21.68 57.1491 22.532H53.9331C54.0531 21.704 54.7611 21.152 55.5891 21.152ZM61.7299 26V23.696H64.5259V26H65.9179V20H64.5259V22.304H61.7299V20H60.3379V26H61.7299ZM73.8265 20H72.5305L69.5425 23.756V20H68.1505V26H69.4465L72.4225 22.244V26H73.8265V20ZM77.4372 26V23.696H78.5292C78.8412 25.076 80.0772 26.12 81.5652 26.12C83.2812 26.12 84.6852 24.716 84.6852 23C84.6852 21.272 83.2812 19.88 81.5652 19.88C80.0772 19.88 78.8412 20.912 78.5292 22.304H77.4372V20H76.0452V26H77.4372ZM81.5652 21.272C82.5132 21.272 83.2932 22.052 83.2932 23C83.2932 23.948 82.5132 24.728 81.5652 24.728C80.6052 24.728 79.8372 23.948 79.8372 23C79.8372 22.052 80.6052 21.272 81.5652 21.272Z" fill="white"/>
</svg>
