<svg width="85" height="28" viewBox="0 0 85 28" fill="none" xmlns="http://www.w3.org/2000/svg">
<path d="M0.888 0.850722V9.49072H2.196L6.276 3.53872V9.49072H7.692V0.850722H6.372L2.304 6.80272V0.850722H0.888ZM11.1104 9.49072V5.71072H15.0824V9.49072H16.4984V0.850722H15.0824V4.29472H11.1104V0.850722H9.69441V9.49072H11.1104ZM17.9979 5.17072C17.9979 7.61872 19.9899 9.61072 22.4379 9.61072C23.7219 9.61072 24.8739 9.05872 25.6899 8.19472L24.6939 7.18672C24.1299 7.81072 23.3259 8.19472 22.4379 8.19472C20.7699 8.19472 19.4139 6.83872 19.4139 5.17072C19.4139 3.50272 20.7699 2.14672 22.4379 2.14672C23.3259 2.14672 24.1299 2.53072 24.6939 3.15472L25.6899 2.14672C24.8739 1.27072 23.7219 0.730722 22.4379 0.730722C19.9899 0.730722 17.9979 2.72272 17.9979 5.17072ZM29.1717 2.26672V9.49072H30.5877V2.26672H33.2877V0.850722H26.4597V2.26672H29.1717ZM34.6371 9.49072H36.0531V6.77872H38.2371C39.8331 6.77872 41.0091 5.51872 41.0091 3.81472C41.0091 2.11072 39.8331 0.850722 38.2371 0.850722H34.6371V9.49072ZM38.0571 2.26672C39.0051 2.26672 39.6051 2.86672 39.6051 3.81472C39.6051 4.75072 38.9931 5.36272 38.0451 5.36272H36.0531V2.26672H38.0571ZM44.6548 6.82672L44.4148 7.40272C44.1508 8.02672 43.7068 8.24272 43.1428 8.24272C43.0228 8.24272 42.9148 8.23072 42.8068 8.23072V9.59872C42.9868 9.61072 43.1788 9.61072 43.3588 9.61072C44.4868 9.61072 45.2908 9.05872 45.7468 7.93072L48.5788 0.850722H47.0428L45.3388 5.06272L43.2388 0.850722H41.6428L44.6548 6.82672ZM51.0643 9.49072V5.71072L54.3763 9.49072H56.1523L52.2163 4.95472L56.0203 0.850722H54.2323L51.0643 4.22272V0.850722H49.6483V9.49072H51.0643ZM59.4052 2.26672V9.49072H60.8212V2.26672H63.5212V0.850722H56.6932V2.26672H59.4052ZM68.3975 9.61072C70.8455 9.61072 72.8375 7.61872 72.8375 5.17072C72.8375 2.72272 70.8455 0.730722 68.3975 0.730722C65.9495 0.730722 63.9575 2.72272 63.9575 5.17072C63.9575 7.61872 65.9495 9.61072 68.3975 9.61072ZM65.3735 5.17072C65.3735 3.50272 66.7295 2.14672 68.3975 2.14672C70.0655 2.14672 71.4215 3.50272 71.4215 5.17072C71.4215 6.83872 70.0655 8.19472 68.3975 8.19472C66.7295 8.19472 65.3735 6.83872 65.3735 5.17072ZM74.3449 9.49072H75.7609V6.77872H77.9449C79.5409 6.77872 80.7169 5.51872 80.7169 3.81472C80.7169 2.11072 79.5409 0.850722 77.9449 0.850722H74.3449V9.49072ZM77.7649 2.26672C78.7129 2.26672 79.3129 2.86672 79.3129 3.81472C79.3129 4.75072 78.7009 5.36272 77.7529 5.36272H75.7609V2.26672H77.7649ZM0.696 26.4907H2.112V21.9067H4.74V26.4907H6.156V20.4907H0.696V26.4907ZM11.1526 20.3707C9.43659 20.3707 8.03259 21.7627 8.03259 23.4907C8.03259 25.2067 9.43659 26.6107 11.1526 26.6107C12.8806 26.6107 14.2726 25.2067 14.2726 23.4907C14.2726 21.7627 12.8806 20.3707 11.1526 20.3707ZM9.44859 23.4907C9.44859 22.5547 10.2166 21.7867 11.1526 21.7867C12.0886 21.7867 12.8566 22.5547 12.8566 23.4907C12.8566 24.4267 12.0886 25.1947 11.1526 25.1947C10.2166 25.1947 9.44859 24.4267 9.44859 23.4907ZM20.1262 20.4907V26.4907H23.5342C24.5182 26.4907 25.3342 25.7707 25.3342 24.8107C25.3342 24.1627 24.9622 23.5867 24.4222 23.3347C24.8422 23.0947 25.1422 22.6027 25.1422 22.0507C25.1422 21.1627 24.3742 20.4907 23.4502 20.4907H20.1262ZM23.2582 23.9107C23.7982 23.9107 24.0622 24.2707 24.0622 24.6187C24.0622 24.9787 23.7982 25.3387 23.2582 25.3387H21.4462V23.9107H23.2582ZM23.1742 21.6427C23.6422 21.6427 23.8702 21.9547 23.8702 22.2547C23.8702 22.5547 23.6422 22.8427 23.1862 22.8427H21.4462V21.6427H23.1742ZM30.0203 20.3707C28.3043 20.3707 26.9003 21.7627 26.9003 23.4907C26.9003 25.2067 28.3043 26.6107 30.0203 26.6107C31.7483 26.6107 33.1403 25.2067 33.1403 23.4907C33.1403 21.7627 31.7483 20.3707 30.0203 20.3707ZM28.3163 23.4907C28.3163 22.5547 29.0843 21.7867 30.0203 21.7867C30.9563 21.7867 31.7243 22.5547 31.7243 23.4907C31.7243 24.4267 30.9563 25.1947 30.0203 25.1947C29.0843 25.1947 28.3163 24.4267 28.3163 23.4907ZM34.0148 26.4907H35.7908L38.0108 23.8147V26.4907H39.4268V23.8147L41.6468 26.4907H43.4348L40.8428 23.3827L43.2788 20.4907H41.4908L39.4268 22.9507V20.4907H38.0108V22.9507L35.9588 20.4907H34.1588L36.5948 23.3827L34.0148 26.4907ZM44.5478 27.8107H45.9638V26.4907H49.8638V27.8107H51.2798V25.0747H50.5238V20.4907H45.9758C45.9038 21.6427 45.8438 22.4707 45.7118 23.5987C45.6518 24.1027 45.5678 24.7987 45.2198 25.0747H44.5478V27.8107ZM47.0678 24.0067C47.1518 23.3107 47.1998 22.6387 47.2598 21.8827H49.1318V25.0747H46.8878C46.9958 24.7267 47.0318 24.3427 47.0678 24.0067ZM52.5531 23.4907C52.5531 25.2547 53.9331 26.6107 55.7451 26.6107C56.7291 26.6107 57.5691 26.2627 58.1451 25.6267L57.2451 24.7267C56.8851 25.1227 56.3331 25.3267 55.7571 25.3267C54.8691 25.3267 54.1971 24.8707 53.9571 24.1267H58.4211C58.4451 23.8867 58.4811 23.6347 58.4811 23.4067C58.4811 21.6187 57.3171 20.3707 55.6131 20.3707C53.8731 20.3707 52.5531 21.7267 52.5531 23.4907ZM55.5891 21.6427C56.3931 21.6427 57.0291 22.1707 57.1491 23.0227H53.9331C54.0531 22.1947 54.7611 21.6427 55.5891 21.6427ZM61.7299 26.4907V24.1867H64.5259V26.4907H65.9179V20.4907H64.5259V22.7947H61.7299V20.4907H60.3379V26.4907H61.7299ZM73.8265 20.4907H72.5305L69.5425 24.2467V20.4907H68.1505V26.4907H69.4465L72.4225 22.7347V26.4907H73.8265V20.4907ZM77.4372 26.4907V24.1867H78.5292C78.8412 25.5667 80.0772 26.6107 81.5652 26.6107C83.2812 26.6107 84.6852 25.2067 84.6852 23.4907C84.6852 21.7627 83.2812 20.3707 81.5652 20.3707C80.0772 20.3707 78.8412 21.4027 78.5292 22.7947H77.4372V20.4907H76.0452V26.4907H77.4372ZM81.5652 21.7627C82.5132 21.7627 83.2932 22.5427 83.2932 23.4907C83.2932 24.4387 82.5132 25.2187 81.5652 25.2187C80.6052 25.2187 79.8372 24.4387 79.8372 23.4907C79.8372 22.5427 80.6052 21.7627 81.5652 21.7627Z" fill="white"/>
</svg>
