<svg width="27" height="34" viewBox="0 0 27 34" fill="none" xmlns="http://www.w3.org/2000/svg">
<g clip-path="url(#clip0_117_929)">
<path d="M21.0469 18.1892C20.9607 18.2709 20.8696 18.3478 20.7785 18.4246C20.6874 18.5015 20.5916 18.5832 20.4957 18.6601C20.2992 18.8187 20.0979 18.9677 19.8918 19.1119L15.6402 27.8726L14.7918 22.8266L16.0476 20.7986C15.8943 20.8323 15.7409 20.8611 15.5875 20.8899C15.1897 20.962 14.787 21.0101 14.3748 21.0341C14.1495 21.0485 13.9243 21.0581 13.699 21.0581C12.8266 21.0581 11.9782 20.9524 11.1634 20.7554L12.4384 22.8266L11.6427 27.9687L6.93101 18.6842C6.71532 18.5111 6.50442 18.3285 6.29831 18.1411L6.21203 18.218C-0.0910027 23.6868 -0.00472552 33.2549 6.76596e-05 33.6586L0.00486084 33.9998H27.0001L26.9905 33.6393C26.5399 22.5815 22.1302 18.9244 21.0469 18.1892Z" fill="white"/>
<path d="M13.699 0C8.11489 0 3.56616 4.55576 3.56616 10.1592C3.56616 15.7625 8.1101 20.3183 13.699 20.3183C19.2878 20.3183 23.8317 15.7625 23.8317 10.1592C23.8317 4.55576 19.2878 0 13.699 0Z" fill="white"/>
</g>
<defs>
<clipPath id="clip0_117_929">
<rect width="27" height="34" fill="white"/>
</clipPath>
</defs>
</svg>
