<svg width="1794" height="1885" viewBox="0 0 1794 1885" fill="none" xmlns="http://www.w3.org/2000/svg">
<rect width="1794" height="1885" fill="white"/>
<path d="M897 1885C1392.4 1885 1794 1463.03 1794 942.5C1794 421.972 1392.4 0 897 0C401.601 0 0 421.972 0 942.5C0 1463.03 401.601 1885 897 1885Z" fill="#3E593E"/>
<path d="M1208.94 929.576C1205.38 932.364 1201.61 934.987 1197.85 937.608C1194.08 940.231 1190.12 943.019 1186.16 945.642C1178.04 951.054 1169.72 956.137 1161.2 961.057L985.468 1259.95L950.401 1087.79L1002.31 1018.6C995.97 1019.75 989.63 1020.74 983.29 1021.72C966.847 1024.18 950.203 1025.82 933.166 1026.64C923.853 1027.13 914.545 1027.46 905.233 1027.46C869.175 1027.46 834.108 1023.85 800.431 1017.13L853.13 1087.79L820.241 1263.23L625.496 946.465C616.581 940.559 607.864 934.329 599.345 927.935L595.779 930.559C335.259 1117.14 338.825 1443.59 339.023 1457.36L339.221 1469H1455L1454.6 1456.7C1435.98 1079.43 1253.72 954.66 1208.94 929.576Z" fill="white"/>
<path d="M905.233 309C674.428 309 486.418 464.433 486.418 655.61C486.418 846.783 674.23 1002.22 905.233 1002.22C1136.23 1002.22 1324.04 846.783 1324.04 655.61C1324.04 464.433 1136.23 309 905.233 309Z" fill="white"/>
</svg>
