<svg width="549" height="319" viewBox="0 0 549 319" fill="none" xmlns="http://www.w3.org/2000/svg">
<g clip-path="url(#clip0_119_1173)">
<path d="M543.497 219.813C538.398 206.119 521.251 182.257 517.614 173.661C506.536 147.454 525.947 119.904 506.374 94.4189C500.832 87.2054 492.281 80.3669 482.53 73.8249C453.392 54.2774 410.827 8.6628 355.032 1.10794C299.237 -6.44693 229.282 26.4195 194.596 44.624C171.587 56.7005 160.655 64.2946 148.714 78.4809C135.506 94.1783 118.342 111.56 86.7995 122.618C41.7523 138.405 -18.8953 183.438 6.28165 225.997C28.6231 276.497 99.0602 318.698 99.0602 318.698L479.7 317.696C479.7 317.696 507.472 314.943 528.356 297.219C546.322 281.975 555.679 252.551 543.497 219.813Z" fill="url(#paint0_linear_119_1173)"/>
<path d="M359.593 48.4406C358.198 45.6425 352.768 43.5496 346.279 43.5496C345.085 43.5496 343.931 43.6223 342.827 43.751C339.622 40.5892 332.668 38.4011 324.604 38.4011C322.52 38.4011 320.508 38.5466 318.62 38.8208C314.277 35.5022 306.393 33.2861 297.382 33.2861C286.662 33.2861 277.534 36.4256 274.077 40.8186C271.628 40.1862 268.809 39.8281 265.806 39.8281C256.409 39.8281 248.793 43.3425 248.793 47.674C248.793 47.9314 248.821 48.1832 248.872 48.435H359.593V48.4406Z" fill="white"/>
<path d="M100.601 114.319C101.996 111.521 107.426 109.428 113.915 109.428C115.109 109.428 116.263 109.501 117.367 109.629C120.572 106.468 127.526 104.279 135.59 104.279C137.674 104.279 139.686 104.425 141.574 104.699C145.917 101.381 153.802 99.1646 162.812 99.1646C173.532 99.1646 182.66 102.304 186.117 106.697C188.566 106.065 191.385 105.707 194.388 105.707C203.785 105.707 211.401 109.221 211.401 113.552C211.401 113.81 211.373 114.062 211.322 114.313H100.601V114.319Z" fill="white"/>
<path d="M495.901 162.139C494.343 159.005 488.268 156.671 481.006 156.671C479.673 156.671 478.378 156.749 477.145 156.901C473.559 153.364 465.781 150.913 456.765 150.913C454.434 150.913 452.187 151.075 450.069 151.383C445.211 147.672 436.39 145.193 426.315 145.193C414.324 145.193 404.114 148.702 400.242 153.621C397.502 152.916 394.347 152.513 390.99 152.513C380.478 152.513 371.96 156.442 371.96 161.294C371.96 161.579 371.994 161.864 372.05 162.144H495.901V162.139Z" fill="white"/>
<path d="M493.816 85.5042C492.891 83.6519 489.299 82.2696 485.002 82.2696C484.211 82.2696 483.449 82.3144 482.715 82.4039C480.592 80.3109 475.991 78.8615 470.651 78.8615C469.272 78.8615 467.939 78.9567 466.689 79.1357C463.814 76.942 458.592 75.4702 452.63 75.4702C445.535 75.4702 439.489 77.5464 437.197 80.4564C435.578 80.0367 433.712 79.8017 431.723 79.8017C425.503 79.8017 420.459 82.1297 420.459 84.995C420.459 85.1628 420.476 85.3307 420.515 85.4986H493.816V85.5042Z" fill="white"/>
<path opacity="0.5" d="M314.95 35.0996C318.211 33.818 322.806 33.6222 327.081 33.5214C360.77 32.738 395.77 34.4392 429.235 33.292C438.957 40.0578 447.878 47.0978 456.205 53.7237C455.751 53.7685 454.535 53.8524 454.081 53.9028C447.889 54.5855 441.809 55.7887 437.27 57.8481C432.731 59.9075 429.935 62.9183 431 65.8115C433.662 73.0418 456.126 75.0508 462.055 81.8558C464.492 84.6483 463.702 87.8605 465.961 90.6866C469.227 94.7774 478.081 97.2621 486.559 99.1872C494.651 101.023 502.978 102.646 511.479 104.039C514.179 110.284 515.104 116.625 515.222 123.016C515.121 123.01 515.02 122.999 514.919 122.993C485.203 120.682 455.482 118.371 425.766 116.06C414.604 115.192 401.598 113.665 397.451 108.807C394.302 105.114 397.703 100.804 395.025 97.0327C392.503 93.4791 385.163 91.1678 377.928 89.4778C370.694 87.7877 362.843 86.3719 357.419 83.5906C352.001 80.8093 350.101 76.0861 355.878 73.4615C359.106 71.9953 363.824 71.5364 367.999 70.7194C376.903 68.9789 384.316 64.3956 381.049 60.1929C377.671 55.8447 365.892 54.6247 356.007 53.8972C339.802 52.7108 321.803 50.4835 313.762 43.8856C310.383 41.1099 309.693 37.159 314.95 35.0996Z" fill="white"/>
<path opacity="0.5" d="M30.3657 172.95C38.7823 172.2 46.801 170.718 54.646 169.128C63.5389 167.326 72.6279 165.256 78.5565 161.702C84.0032 158.445 86.1998 154.259 86.9115 150.157C87.1188 148.954 87.2533 147.684 88.643 146.659C89.8029 145.803 91.7025 145.227 93.6134 144.746C118.846 138.36 152.098 144.074 177.925 138.215C183.035 137.056 188.224 134.952 187.642 132.339C186.919 129.11 178.48 127.772 171.57 127.157C158.934 126.032 146.293 124.913 133.657 123.788C127.969 123.284 121.435 122.478 119.115 120.033C117.726 118.567 118.275 116.86 117.356 115.31C116.398 113.698 114.038 112.489 111.001 111.627C122.264 104.979 131.034 97.4633 138.38 89.9028C139.843 89.9924 141.328 90.0539 142.858 90.0763C152.227 90.2218 161.983 90.3058 170.338 92.27C178.693 94.2343 185.086 98.7448 182.195 102.858C181.438 103.938 180.105 104.917 179.505 106.02C177.813 109.12 182.425 112.299 188.247 114.034C194.063 115.768 200.989 116.485 207.389 117.705C213.788 118.925 220.159 120.923 222.193 123.972C224.054 126.776 222.003 130.095 225.516 132.535C228.262 134.449 233.479 135.154 237.9 136.206C246.933 138.355 253.842 143.526 249.371 147.734C245.487 151.388 235.507 152.474 226.794 153.123C192.674 155.664 158.447 157.897 124.136 159.816C121.127 159.984 117.838 160.213 115.809 161.254C114.604 161.87 114.027 162.693 113.484 163.482C109.438 169.363 105.353 175.592 108.295 181.613C110.39 185.906 115.983 189.851 116.145 194.249C116.179 195.246 115.899 196.287 114.688 197.115C113.293 198.066 110.906 198.581 108.625 199.04C75.144 205.794 39.4827 210.232 3.18271 212.169C2.32536 212.213 1.46241 212.258 0.593854 212.297C-1.76525 199.006 3.10426 185.816 12.154 173.678C18.2676 173.639 24.3699 173.482 30.3657 172.95Z" fill="white"/>
<path d="M6.78027 317.696C6.78027 318.418 7.15571 319 7.62081 319H541.093C541.558 319 541.934 318.418 541.934 317.696C541.934 316.974 541.558 316.392 541.093 316.392H7.62081C7.15571 316.392 6.78027 316.98 6.78027 317.696Z" fill="#1E8135"/>
<path d="M489.333 293.571C493.463 273.822 478.81 255.293 459.993 256.91C442.756 258.399 431.336 276.738 435.225 293.571H241.632C245.555 276.603 233.955 258.388 216.848 256.91C198.042 255.293 183.383 273.828 187.507 293.571H133.421C136.739 244.554 139.221 207.787 142.628 157.494C142.975 152.284 147.01 148.271 151.846 148.322C151.969 148.322 162.863 148.456 162.173 148.445C198.064 148.893 156.357 148.378 370.834 151.025C402.349 151.416 420.863 170.36 423.726 172.027C481.774 217.619 484.592 218.039 492.46 227.15C503.505 239.881 510.201 256.519 511.125 274.253L512.145 293.577H489.333V293.571Z" fill="#1E8135"/>
<path d="M203.505 293.566H134.469C129.74 293.566 125.913 289.738 125.913 285.02V268.909C125.913 264.191 129.745 260.363 134.469 260.363H203.505C208.229 260.363 212.062 264.191 212.062 268.909V285.02C212.062 289.738 208.229 293.566 203.505 293.566Z" fill="#184655"/>
<path d="M146.147 215.252H138.722L137.921 227.144H146.147V215.252Z" fill="#B85742"/>
<path d="M137.411 234.66L135.668 260.357H146.147V234.66H137.411Z" fill="#B85742"/>
<path d="M241.688 297.22C242.405 292.39 242.557 287.275 241.929 281.976H434.911C434.3 287.275 434.451 292.396 435.163 297.22H241.688Z" fill="#184655"/>
<path d="M404.601 257.229C403.324 257.229 402.287 256.104 402.287 254.722V234.257C402.287 232.874 403.324 231.75 404.601 231.75C405.879 231.75 406.916 232.869 406.916 234.257V254.722C406.916 256.104 405.879 257.229 404.601 257.229Z" fill="#184655"/>
<path d="M515.776 292.211H478.031V256.188C478.031 249.786 482.816 244.599 488.728 244.599H498.786C506.906 244.599 513.922 250.777 515.603 259.384C522.59 295.373 520.181 282.961 520.702 285.647C521.346 288.988 519.004 292.211 515.776 292.211Z" fill="#8CCBBA"/>
<path d="M522.181 293.879H478.131V270.072H502.344C511.826 270.072 520.013 273.156 521.968 277.465C521.968 277.465 525.907 293.879 522.181 293.879Z" fill="#184655"/>
<path d="M460.15 316.627C475.942 316.627 488.745 302.754 488.745 285.641C488.745 268.528 475.942 254.655 460.15 254.655C444.357 254.655 431.555 268.528 431.555 285.641C431.555 302.754 444.357 316.627 460.15 316.627Z" fill="#184655"/>
<path d="M476.949 285.641C476.949 295.697 469.429 303.845 460.15 303.845C450.87 303.845 443.35 295.692 443.35 285.641C443.35 275.585 450.87 267.437 460.15 267.437C469.429 267.437 476.949 275.585 476.949 285.641Z" fill="#476EB4"/>
<path d="M469.776 285.641C469.776 291.405 465.467 296.078 460.149 296.078C454.832 296.078 450.522 291.405 450.522 285.641C450.522 279.877 454.832 275.21 460.149 275.21C465.467 275.204 469.776 279.877 469.776 285.641Z" fill="#9EBEE5"/>
<path d="M246.866 285.641C246.866 302.754 234.062 316.386 218.271 316.386C202.48 316.386 189.676 302.749 189.676 285.641C189.676 268.528 202.48 254.655 218.271 254.655C234.062 254.655 246.866 268.528 246.866 285.641Z" fill="#184655"/>
<path d="M235.07 285.641C235.07 295.697 227.55 303.845 218.271 303.845C208.991 303.845 201.471 295.692 201.471 285.641C201.471 275.585 208.991 267.437 218.271 267.437C227.55 267.437 235.07 275.585 235.07 285.641Z" fill="#476EB4"/>
<path d="M227.898 285.641C227.898 291.405 223.589 296.078 218.271 296.078C212.953 296.078 208.644 291.405 208.644 285.641C208.644 279.877 212.953 275.209 218.271 275.209C223.589 275.204 227.898 279.877 227.898 285.641Z" fill="#9EBEE5"/>
<path d="M379.716 137.124H175.185V143.19H379.716V137.124Z" fill="#2E967E"/>
<path d="M222.541 152.765C221.37 152.765 220.423 151.735 220.423 150.47V143.195H224.665V150.47C224.659 151.735 223.712 152.765 222.541 152.765Z" fill="#2E967E"/>
<path d="M345.119 152.765C343.948 152.765 343.001 151.735 343.001 150.47V143.195H347.243V150.47C347.237 151.735 346.29 152.765 345.119 152.765Z" fill="#2E967E"/>
<path d="M357.318 231.75H270.608C257.227 231.75 246.384 220.916 246.384 207.558V190.165C246.384 176.801 257.227 165.972 270.608 165.972H357.318C370.699 165.972 381.542 176.801 381.542 190.165V207.558C381.542 220.916 370.694 231.75 357.318 231.75Z" fill="#4C5A7A"/>
<path d="M297.864 231.75H294.939V281.975H297.864V231.75Z" fill="#184655"/>
<path d="M398.107 213.825H395.182V281.976H398.107V213.825Z" fill="#184655"/>
<path d="M394.851 169.38L395.238 219.108C395.249 220.691 396.437 221.967 397.9 221.967H468.466C471.066 221.967 472.119 218.347 469.995 216.729L406.708 168.49C406.098 168.037 401.251 167.108 397.939 166.515C396.308 166.218 394.834 167.589 394.851 169.38Z" fill="#4C5A7A"/>
<path d="M129.852 230.698C129.841 230.261 126.131 204.681 125.672 203.937L122.825 189.426L113.798 188.48C113.798 188.48 117.423 207.272 117.788 208.218C118.012 208.8 126.115 237.794 126.115 237.794C126.115 237.794 126.014 241.566 127.342 241.566C128.675 241.566 133.382 240.189 133.382 240.189L133.96 237.794L129.852 230.698Z" fill="#F18B7F"/>
<path d="M78.3664 302.933C78.3664 302.933 76.4556 304.803 76.4108 305.491C76.366 306.179 76.2427 313.527 77.0216 314.215C77.8005 314.904 80.0923 315.391 79.3583 316.157C78.8035 316.739 74.5224 316.616 71.6814 316.459C70.852 316.415 69.8154 309.783 69.4848 308.809C69.0085 307.394 67.2938 304.316 67.7252 303.331C67.9382 302.849 69.5016 301.753 70.9249 300.835C72.421 299.867 73.8556 297.707 73.8556 297.707L78.3664 302.933Z" fill="#F4A492"/>
<path d="M103.919 307.522C103.919 307.522 102.439 311.719 102.232 312.307C102.215 312.351 101.582 315.038 101.582 315.737C101.582 318.356 113.366 313.51 110.721 312.351C110.481 312.245 109.735 311.406 109.657 310.516C109.534 309.139 110.649 307.416 110.649 307.416L103.919 307.522Z" fill="#F4A492"/>
<path d="M120.18 215.56L124.445 226.495C124.445 226.495 127.23 252.584 125.605 268.209C124.926 274.739 110.251 309.71 110.251 309.71L102.96 308.68L112.722 267.274L109.13 251.437L104.048 220.137L120.18 215.56Z" fill="#194655"/>
<path d="M100.086 216.13L96.4268 228.302L90.8625 265.047L72.04 299.419C72.04 299.419 74.8698 303.716 77.9126 304.394L104.63 269.652L119.11 226.164L118.6 216.5L100.086 216.13Z" fill="#36548A"/>
<path d="M124.254 194.591L113.865 195.654C113.865 195.654 113.389 187.114 113.389 183.035C113.389 178.093 114.302 171.904 114.885 172.083C116.504 172.581 118.325 173.169 119.665 175.015C124.299 181.406 124.254 194.591 124.254 194.591Z" fill="#FAE0B2"/>
<path d="M80.2156 315.351C79.5263 314.545 77.2288 313.734 76.7694 313.571C75.0434 312.973 71.0257 300.762 71.0257 300.762C71.0257 300.762 67.529 301.786 67.2601 302.323C66.9911 302.86 69.4175 308.736 69.4175 308.736C69.8769 311.143 71.0369 316.621 71.0369 316.621H79.2125C79.8513 316.621 80.9664 316.224 80.2156 315.351Z" fill="#194655"/>
<path d="M100.91 316.605L102.232 312.312C102.232 312.312 105.096 313.532 106.513 313.331C107.931 313.13 110.699 312.329 110.699 312.329C116.353 314.198 120.987 315.105 120.147 316.605H100.91Z" fill="#194655"/>
<path d="M101.408 171.49C101.408 171.49 95.9111 172.245 94.4598 173.297C92.8291 174.484 87.7803 180.007 87.7803 180.007C87.7803 180.007 98.287 209.79 97.8779 215.09C97.4689 220.389 96.3201 228.235 96.3201 228.235C96.3201 228.235 116.723 229.511 124.45 226.489C124.45 226.489 122.013 214.485 122.013 211.329C122.013 208.178 120.64 176.666 119.665 175.015C118.69 173.364 116.723 172.424 112.996 171.618C109.27 170.818 101.408 171.49 101.408 171.49Z" fill="#F7CC7F"/>
<path d="M102.91 162.989L101.554 171.49C101.554 171.49 106.519 182.307 109.489 181.395C111.977 180.628 110.447 171.339 110.447 171.339C110.447 171.339 109.091 166.347 109.494 163.851C109.898 161.355 102.91 162.989 102.91 162.989Z" fill="#F4A492"/>
<path d="M109.494 163.857C109.903 161.361 102.91 162.989 102.91 162.989L102.798 163.722C103.005 164.209 103.252 164.629 103.554 164.954C105.118 166.604 107.555 167.6 109.668 167.673C109.455 166.319 109.326 164.881 109.494 163.857Z" fill="#EE755A"/>
<path d="M101.761 150.51C101.565 150.437 100.175 160.555 102.809 163.336C105.437 166.117 110.564 167.029 112.402 164.836C114.437 162.413 114.336 151.539 110.245 148.68C106.154 145.82 101.761 150.51 101.761 150.51Z" fill="#F4A492"/>
<path d="M97.3232 150.84C94.9753 154.947 96.6732 159.34 99.559 161.534C102.445 163.728 102.389 166.235 102.389 166.235L102.854 164.948C103.19 163.957 103.33 162.905 103.213 161.864C103.145 161.237 103.011 160.566 102.747 160.012C102.053 158.546 104.238 157.578 104.849 156.358C105.319 155.417 105.342 153.274 106.087 151.724L106.973 150.543C106.973 150.543 109.018 148.976 111.024 149.418C113.03 149.855 102.467 141.835 97.3232 150.84Z" fill="#F7CC7F"/>
<path d="M104.72 158.154C104.742 159.391 104.171 160.398 103.448 160.409C102.725 160.421 102.12 159.43 102.097 158.199C102.075 156.962 102.646 155.955 103.369 155.944C104.098 155.927 104.703 156.917 104.72 158.154Z" fill="#F4A492"/>
<path d="M109.27 147.252C104.978 152.692 98.6008 156.083 95.8887 157.359C95.9503 157.544 96.0064 157.712 96.0512 157.874C97.312 157.286 99.3853 156.24 101.672 154.735C104.176 153.089 107.309 150.644 109.791 147.448C109.617 147.387 109.444 147.325 109.27 147.252Z" fill="#56BAA3"/>
<path d="M83.7065 233.081C83.3255 232.83 83.7345 226.562 83.7345 226.562C83.7345 226.562 84.3677 208.52 84.435 207.546L92.549 190.886L85.5333 184.344C85.5333 184.344 77.1783 202.711 76.9094 203.752C76.6404 204.793 78.568 229.315 78.6689 231.481C78.6689 231.481 77.2008 234.749 76.7413 236.411C76.2818 238.073 77.0887 239.747 77.0271 240.233C77.0158 240.306 78.8426 241.358 79.3245 241.224C80.7702 240.81 81.5772 240.692 81.9134 240.771C83.9251 241.224 83.2582 238.325 83.5888 238.336C83.9195 238.348 85.0458 238.336 85.2419 238.336C85.5557 238.342 85.763 234.425 83.7065 233.081Z" fill="#F4A493"/>
<path d="M80.9609 190.685L90.1564 197.786C90.1564 197.786 94.219 193.93 96.2587 189.672C98.3208 185.357 96.8807 172.581 94.6841 173.169C89.7642 174.472 80.9609 190.685 80.9609 190.685Z" fill="#FAE0B2"/>
<path d="M127.079 241.19C127.079 241.19 125.313 238.997 126.378 238.23C127.443 237.463 131.858 238.448 132.178 238.762C132.492 239.075 133.741 240.194 133.741 240.194L127.079 241.19Z" fill="#F18B7F"/>
<path d="M234.292 162.217C235.015 158.943 235.721 155.642 233.815 152.043C232.274 149.133 229.613 147.454 226.531 147.091C217.8 146.055 217.033 153.845 208.745 157.253C205.203 158.708 201.572 158.294 198.406 160.174C192.691 163.577 194.798 167.69 198.586 176.571C207.865 198.324 223.83 185.727 226.648 181.446C228.744 178.267 233.827 164.327 234.292 162.217Z" fill="#184655"/>
<path d="M229.254 173.398C224.57 174.859 214.652 182.156 214.013 181.999L202.458 172.816L195.347 179.044C195.347 179.044 211.205 190.774 212.107 191.205C212.774 191.524 225.349 180.852 231.933 177.64C231.843 175.502 230.308 175.273 229.254 173.398Z" fill="#F18B7F"/>
<path d="M210.874 177.959L203.635 187.321C203.635 187.321 196.003 181.462 193.19 178.311C189.777 174.489 186.039 166.28 186.594 165.977C188.141 165.132 191.475 164.461 193.778 164.976C201.735 166.75 210.874 177.959 210.874 177.959Z" fill="#B85742"/>
<path d="M228.957 178.636L228.066 173.98C228.066 173.98 230.706 174.607 232.381 177.215C234.057 179.817 236.87 188.62 237.346 188.877C237.828 189.14 243.134 180.97 244.059 179.683C245.208 178.088 245.634 176.263 246.356 174.876C247.074 173.488 249.607 173.012 250.565 173.186C251.523 173.359 249.248 177.422 249.248 177.422C249.248 177.422 243.493 187.4 241.577 192.867C239.66 198.335 233.67 200.937 232.706 200.159C231.754 199.376 228.957 178.636 228.957 178.636Z" fill="#F18B7F"/>
<path d="M229.994 192.61L237.318 188.435C237.318 188.435 233.989 174.428 228.061 173.98L229.994 192.61Z" fill="#F7CC7F"/>
<path d="M246.418 175.636C246.418 175.636 246.659 174.584 247.303 174.372C247.948 174.159 249.074 174.349 249.147 174.372C249.22 174.394 250.464 173.728 250.464 173.728L249.433 175.636C249.433 175.636 247.427 177.998 246.754 177.119C246.082 176.235 246.418 175.636 246.418 175.636Z" fill="#F4A392"/>
<path d="M250.822 173.812C250.822 173.812 251.545 177.5 251.366 178.272C251.181 179.044 250.721 178.63 250.632 178.462C250.273 177.769 250.026 175.407 250.026 175.407L250.822 173.812Z" fill="#F18B7F"/>
<path d="M249.259 176.879C249.259 176.879 249.606 179.168 249.959 179.436C250.189 179.61 250.486 179.509 250.581 179.045C250.676 178.58 250.122 175.765 250.122 175.765L249.259 176.879Z" fill="#F18B7F"/>
<path d="M247.141 183.365L245.936 182.777L251.052 172.301C251.719 172.626 251.993 173.426 251.668 174.092L247.141 183.365Z" fill="#FAE0B2"/>
<path d="M199.387 299.637C199.387 299.637 198.765 305.939 197.168 307.097C195.571 308.255 193.442 312.536 194.506 314.848C194.837 315.57 195.504 315.989 196.26 316.224C198.507 316.913 200.894 315.754 201.847 313.611C202.379 312.413 202.85 310.818 202.945 308.804C203.186 303.683 204.783 301.081 204.783 301.081L199.387 299.637Z" fill="#F4A392"/>
<path d="M223.942 302.217C223.942 302.217 224.446 308.574 224.037 310.645C223.819 311.753 222.597 314.03 223.157 315.071C223.718 316.112 224.357 316.375 224.357 316.375L238.847 316.61C239.638 316.621 239.116 316.118 238.478 315.648C237.435 314.887 236.595 314.377 233.266 312.777C233.048 312.671 232.258 312.172 231.972 311.999C231.249 311.557 230.526 310.869 229.899 310.175C228.856 309.022 228.767 303.42 228.767 303.42L223.942 302.217Z" fill="#F4A392"/>
<path d="M235.267 217.692C235.267 217.692 237.093 228.017 235.894 234.788C234.695 241.56 228.946 304.299 228.946 304.299L222.552 304.657C222.552 304.657 221.213 278.45 221.454 274.801C221.695 271.158 223.589 265.058 223.589 265.058L222.95 243.899L231.014 216.097L235.267 217.692Z" fill="#B85742"/>
<path d="M216.484 215.521C216.484 215.521 211.452 223.07 210.252 229.321C209.053 235.572 211.132 254.772 208.829 262.96C207.579 267.392 202.85 274.236 202.133 279.966C201.416 285.691 198.591 300.695 198.591 300.695L204.979 301.959L219.829 264.487L231.473 230.619L234.454 213.176L216.484 215.521Z" fill="#EE745A"/>
<path d="M220.558 172.559C220.558 172.559 217.106 173.129 214.534 175.642C209.02 181.031 217.773 201.81 218.254 205.453C218.736 209.096 214.326 217.602 214.326 217.602C214.326 217.602 230.795 220.641 235.267 217.692C235.267 217.692 235.794 188.446 235.312 185.844C234.83 183.242 229.467 175.206 228.509 174.165C227.556 173.118 220.558 172.559 220.558 172.559Z" fill="#FAE0B2"/>
<path d="M214.326 178.088C214.752 176.806 216.209 176.185 217.447 176.722C219.151 177.456 221.499 178.849 222.648 181.239C224.564 185.229 231.277 198.945 233.35 199.465C235.429 199.986 243.896 185.234 243.896 185.234C243.896 185.234 243.655 182.632 244.378 181.155C245.096 179.677 247.253 178.116 247.572 178.636C247.892 179.157 246.373 180.461 246.373 180.718C246.373 180.975 247.012 181.155 247.892 180.634C248.771 180.114 249.248 179.062 249.248 179.062C249.248 179.062 250.688 181.675 249.169 184.02C247.651 186.365 247.012 187.316 247.012 187.316C247.012 187.316 237.183 209.102 233.591 209.359C230.24 209.6 210.958 188.245 214.326 178.088Z" fill="#F4A392"/>
<path d="M222.777 163.688C222.777 163.688 222.743 163.884 222.681 164.215C222.384 165.809 221.241 171.109 220.468 172.564C219.532 174.321 223.668 179.934 227.641 179.251C228.823 179.05 226.637 174.097 226.744 173.571C226.946 172.57 227.215 171.199 227.495 169.794C227.652 168.999 227.809 168.199 227.96 167.444C228.386 165.295 228.733 163.543 228.733 163.543L222.777 163.688Z" fill="#F4A492"/>
<path d="M222.675 164.215C222.737 163.884 222.771 163.688 222.771 163.688L228.727 163.543C228.727 163.543 228.38 165.3 227.954 167.444C227.803 168.193 227.646 168.994 227.489 169.783C226.57 169.648 225.606 169.201 224.642 168.361C223.589 167.444 222.905 166.341 222.485 165.166C222.569 164.785 222.631 164.461 222.675 164.215Z" fill="#EE745A"/>
<path d="M226.357 149.542C226.357 149.542 223.925 149.877 222.166 152.15C220.406 154.422 218.507 161.439 222.883 165.256C227.259 169.072 231.58 164.752 232.218 160.174C232.857 155.591 232.728 149.379 226.357 149.542Z" fill="#F4A492"/>
<path d="M233.619 158.602C233.098 159.615 232.218 160.174 231.664 159.855C231.103 159.536 231.075 158.456 231.596 157.443C232.117 156.43 232.997 155.871 233.552 156.19C234.112 156.514 234.14 157.594 233.619 158.602Z" fill="#F4A492"/>
<path d="M227.097 149.435C227.097 149.435 223.342 156.111 220.658 156.419C217.974 156.727 217.621 160.275 217.621 160.275C217.621 160.275 218.579 152.105 221.241 150.526C223.903 148.948 227.097 149.435 227.097 149.435Z" fill="#184655"/>
<path d="M221.538 158.008C221.757 159.195 221.32 160.281 220.557 160.437C219.795 160.594 219.005 159.76 218.787 158.574C218.568 157.387 219.005 156.302 219.767 156.145C220.529 155.988 221.32 156.822 221.538 158.008Z" fill="#F4A492"/>
<path d="M202.284 312.486C198.804 313.118 196.484 311.087 195.28 309.57C194.394 311.294 193.851 313.443 194.501 314.853C195.072 316.101 196.574 316.202 197.896 316.247C199.292 316.297 200.653 315.81 201.348 314.601C201.673 314.036 202.004 313.331 202.284 312.486Z" fill="#3C8F7C"/>
<path d="M231.972 311.994C228.139 312.973 225.304 312.307 223.724 311.669C223.315 312.822 222.771 314.271 223.062 315.105C223.415 316.129 223.914 316.359 224.357 316.37C227.859 316.459 237.183 316.588 239.851 316.622C240.226 316.627 240.428 316.191 240.187 315.905C239.526 315.122 232.258 312.167 231.972 311.994Z" fill="#3C8F7C"/>
<path d="M219.706 197.232L228.335 191.574C228.335 191.574 224.738 181.429 220.787 177.841C216.831 174.249 214.959 175.122 214.136 175.866C211.844 177.931 212.247 182.956 214.853 189.151C217.459 195.346 219.706 197.232 219.706 197.232Z" fill="#F7CC7F"/>
<path d="M206.151 303.336C206.151 303.336 205.814 309.274 205.814 309.285C205.691 310.041 205.204 311.899 205.204 312.587C205.204 315.161 216.674 310.399 214.102 309.263C213.867 309.162 212.651 308.379 212.572 307.5C212.455 306.151 212.158 303.42 212.158 303.42L206.151 303.336Z" fill="#F4A392"/>
<path d="M214.068 309.235C214.068 309.235 211.373 310.024 209.994 310.22C208.616 310.416 206.655 309.475 205.68 309.923C204.604 310.416 204.957 316.252 204.957 316.252C204.957 316.252 219.521 316.627 224.351 316.376C226.043 316.286 219.577 311.07 214.068 309.235Z" fill="#EE745A"/>
<path d="M180.878 303.901C180.878 303.901 180.542 309.839 180.542 309.85C180.419 310.606 179.931 312.464 179.931 313.152C179.931 315.726 191.402 310.969 188.83 309.828C188.594 309.727 187.014 308.362 186.941 307.483C186.824 306.134 186.885 303.985 186.885 303.985L180.878 303.901Z" fill="#F4A392"/>
<path d="M188.802 309.805C188.802 309.805 186.106 310.594 184.728 310.79C183.349 310.986 181.528 309.33 180.553 309.777C179.477 310.27 179.203 316.207 179.203 316.207C179.203 316.207 195.044 316.912 198.754 316.386C200.429 316.146 194.304 311.635 188.802 309.805Z" fill="#EE745A"/>
<path d="M199.057 218.196L203.904 220.283L214.102 268.931L213.687 305.401L205.512 305.592C205.512 305.592 201.707 273.693 201.707 271.22C201.707 268.746 184.089 227.956 184.089 227.956L199.057 218.196Z" fill="#35548A"/>
<path d="M195.313 220.876C195.313 220.876 193.957 257.777 193.957 264.095C193.957 270.414 192.024 305.933 192.024 305.933L180.643 306.302C180.643 306.302 180.049 295.524 179.175 279.67C179.035 277.185 179.354 272.176 179.175 269.602C177.897 251.112 175.375 233.703 176.58 226.802C176.776 225.694 177.141 222.79 177.847 222.057C183.22 216.511 195.313 220.876 195.313 220.876Z" fill="#476EB4"/>
<path d="M181.814 164.825C181.814 164.825 176.16 165.608 174.67 166.7C172.994 167.931 171.134 170.679 171.134 170.679C171.134 170.679 178.077 203.455 178.088 208.973C178.099 213.243 176.586 223.719 176.586 223.719C176.586 223.719 197.572 225.04 205.517 221.912C205.517 221.912 203.007 209.449 203.007 206.175C203.007 202.901 200.003 173.146 199.32 171.07C198.698 169.184 197.566 165.799 193.733 164.959C189.9 164.125 181.814 164.825 181.814 164.825Z" fill="#EE745A"/>
<path d="M183.361 155.999L182.01 164.841C182.01 164.841 186.263 172.424 189.312 171.479C191.873 170.684 191.11 164.668 191.11 164.668C191.11 164.668 189.715 159.491 190.135 156.9C190.55 154.304 183.361 155.999 183.361 155.999Z" fill="#F4A492"/>
<path d="M190.13 156.901C190.55 154.31 183.355 156 183.355 156L183.237 156.761C183.45 157.27 183.702 157.701 184.016 158.037C185.624 159.749 188.135 160.784 190.303 160.857C190.09 159.458 189.962 157.958 190.13 156.901Z" fill="#EE745A"/>
<path d="M182.178 143.05C181.976 142.977 180.547 153.476 183.254 156.363C185.961 159.251 191.234 160.197 193.122 157.925C195.212 155.406 195.111 144.124 190.903 141.153C186.695 138.176 182.178 143.05 182.178 143.05Z" fill="#F4A492"/>
<path d="M189.3 135.534C186.05 136.195 183.943 138.164 183.17 139.004C181.696 139.177 179.685 139.989 177.617 143.391C175.067 147.577 176.95 152.211 179.914 154.489C181.517 155.72 182.24 157.057 182.565 158.031C182.683 158.384 183.187 158.384 183.31 158.031C183.658 157.001 183.798 155.91 183.68 154.83C183.613 154.181 183.473 153.481 183.198 152.905C182.486 151.388 184.728 150.375 185.361 149.111C185.849 148.137 185.871 145.91 186.633 144.304L187.546 143.078C187.546 143.078 189.653 141.455 191.71 141.914C193.772 142.367 193.475 134.689 189.3 135.534Z" fill="#B85742"/>
<path d="M185.226 150.98C185.249 152.261 184.66 153.308 183.915 153.324C183.17 153.336 182.548 152.312 182.526 151.03C182.503 149.748 183.091 148.702 183.837 148.691C184.582 148.668 185.204 149.698 185.226 150.98Z" fill="#F4A492"/>
<path d="M196.237 198.167L196.372 198.95C196.439 199.353 196.826 199.622 197.229 199.555L213.446 196.751C213.85 196.684 214.119 196.298 214.051 195.895L213.917 195.111C213.85 194.708 213.463 194.44 213.059 194.507L196.843 197.311C196.434 197.383 196.165 197.764 196.237 198.167Z" fill="#FAE0B2"/>
<path d="M173.246 169.044C175.151 168.988 176.833 181.524 175.628 182.76C174.423 183.997 174.193 199.437 174.193 199.437L192.142 198.989V198.995C192.495 198.76 196.255 196.236 196.793 195.688C197.358 195.111 200.099 195.397 200.822 196.191C201.544 196.986 199.426 196.712 198.793 197.008C198.093 197.339 199.045 198.29 199.045 198.29C199.045 198.29 203.595 198.95 204.481 198.01C205.366 197.07 207.736 195.481 208.061 196.421C208.229 196.908 207.008 198.374 206.319 198.989C207.176 198.346 208.207 197.663 208.56 197.786C209.204 198.004 208.935 198.821 208.588 199.062C208.241 199.303 204.626 202.056 204.066 202.252C203.517 202.442 195.117 202.649 193.666 202.968C193.666 202.968 169.991 208.352 168.646 208.016C167.463 207.719 166.287 200.153 166.287 194.356C166.287 188.558 167.301 169.218 173.246 169.044Z" fill="#F4A392"/>
<path d="M175.712 166.185C175.712 166.185 171.576 167.153 168.982 170.785C166.264 174.59 163.911 193.824 163.911 193.824L174.653 195.559L175.51 186.101L178.379 181.776L175.712 166.185Z" fill="#EE745A"/>
<path d="M227.332 173.594C227.332 173.594 228.077 172.771 229.473 172.872C230.874 172.973 232.706 174.741 232.958 175.373C233.087 175.698 232.213 178.272 231.832 178.843C231.608 179.179 231.086 179.347 230.907 179.168C230.789 179.05 230.913 178.468 230.946 178.339C231.014 178.093 231.473 176.504 231.473 176.504C231.473 176.504 230.571 178.11 230.151 178.205C229.73 178.3 229.495 177.959 229.523 177.83C229.652 177.153 230.352 175.843 230.352 175.843C230.352 175.843 229.293 177.394 228.772 177.231C228.251 177.069 228.47 176.515 228.548 176.33C228.626 176.146 229.349 175.071 229.349 175.071C229.349 175.071 228.201 176.66 227.976 176.09C227.842 175.743 228.587 174.237 228.587 174.237L227.332 173.594Z" fill="#F4A492"/>
<path d="M175.14 164.551L202.727 192.162V195.559L171.145 166.806L175.14 164.551Z" fill="#184655"/>
</g>
<defs>
<linearGradient id="paint0_linear_119_1173" x1="549.001" y1="159.349" x2="0.373479" y2="159.349" gradientUnits="userSpaceOnUse">
<stop stop-color="#BDE3F0"/>
<stop offset="1" stop-color="#D3ECF6"/>
</linearGradient>
<clipPath id="clip0_119_1173">
<rect width="549" height="319" fill="white"/>
</clipPath>
</defs>
</svg>
