<svg width="31" height="26" viewBox="0 0 31 26" fill="none" xmlns="http://www.w3.org/2000/svg">
<path d="M28.1322 1.80359H25.3453V3.47192C25.3453 4.61566 24.4607 5.54997 23.3267 5.54997C22.1907 5.54997 21.3062 4.61566 21.3062 3.47192V1.80359H9.69381V3.47192C9.69381 4.61566 8.80824 5.54997 7.67427 5.54997C6.54029 5.54997 5.65472 4.61566 5.65472 3.47192V1.80359H2.88189C1.29251 1.80359 0 2.95241 0 4.55161V22.9663C0 24.5665 1.29251 26 2.88189 26H28.1322C29.7216 26 31 24.5665 31 22.9663V4.55161C31 2.95241 29.7216 1.80359 28.1322 1.80359ZM28.5947 23.2754H2.41941V10.1605H28.5947V23.2754Z" fill="#1E8135"/>
<path d="M8.11672 12.1704H4.24121V16.0723H8.11672V12.1704Z" fill="#1E8135"/>
<path d="M14.336 12.1704H10.4604V16.0723H14.336V12.1704Z" fill="#1E8135"/>
<path d="M20.5547 12.1704H16.6792V16.0723H20.5547V12.1704Z" fill="#1E8135"/>
<path d="M26.773 12.1704H22.8975V16.0723H26.773V12.1704Z" fill="#1E8135"/>
<path d="M8.11672 17.6837H4.24121V21.5856H8.11672V17.6837Z" fill="#1E8135"/>
<path d="M14.336 17.6837H10.4604V21.5856H14.336V17.6837Z" fill="#1E8135"/>
<path d="M20.5547 17.6837H16.6792V21.5856H20.5547V17.6837Z" fill="#1E8135"/>
<path d="M26.773 17.6837H22.8975V21.5856H26.773V17.6837Z" fill="#1E8135"/>
<path d="M7.55098 4.56784H7.79736C8.37192 4.56784 8.84248 4.09408 8.84248 3.5156V1.05224C8.84248 0.473762 8.37192 0 7.79736 0H7.55098C6.97641 0 6.50586 0.473762 6.50586 1.05224V3.5156C6.50586 4.09408 6.9754 4.56784 7.55098 4.56784Z" fill="#1E8135"/>
<path d="M23.1652 4.56784H23.4116C23.9862 4.56784 24.4567 4.09408 24.4567 3.5156V1.05224C24.4567 0.473762 23.9872 0 23.4116 0H23.1652C22.5907 0 22.1201 0.473762 22.1201 1.05224V3.5156C22.1201 4.09408 22.5907 4.56784 23.1652 4.56784Z" fill="#1E8135"/>
</svg>
