<svg width="13" height="13" viewBox="0 0 13 13" fill="none" xmlns="http://www.w3.org/2000/svg">
<path d="M6.58806 0.601318C3.25174 0.601318 0.532715 3.30018 0.532715 6.61177C0.532715 7.7059 0.841361 8.78545 1.42191 9.7264L1.57623 9.9817L0.973638 12.221L3.24439 11.6156L3.5016 11.7688C4.44223 12.3232 5.5078 12.6149 6.59541 12.6149C9.93173 12.6149 12.6508 9.91605 12.6508 6.60447C12.6508 3.30018 9.93173 0.601318 6.58806 0.601318ZM10.1522 8.88027C9.92438 9.42005 9.36588 9.77017 8.80003 9.87958C8.25622 9.9817 7.80795 9.81394 7.30824 9.64617C6.85996 9.50028 6.42639 9.28875 6.02956 9.04075C5.22855 8.55203 4.53042 7.89555 3.97192 7.14425C3.8029 6.91083 3.64122 6.67741 3.5016 6.42941C3.31053 6.10117 3.13416 5.75834 3.04598 5.39363C3.00923 5.24045 2.98719 5.07998 2.98719 4.9268C2.97984 4.37244 3.19295 3.80349 3.64122 3.44607C3.89843 3.23454 4.28056 3.14701 4.56716 3.30748C4.88316 3.48254 5.04483 3.92749 5.1918 4.24114C5.30938 4.48185 5.43431 4.8028 5.39022 5.07998C5.34613 5.35716 5.12567 5.58328 4.9493 5.78752C4.83172 5.92611 4.81702 6.04282 4.91255 6.1887C5.48575 7.14424 6.28676 7.8299 7.33028 8.24567C7.46991 8.30403 7.58014 8.28215 7.67567 8.17273C7.85204 7.95391 8.03576 7.52354 8.30766 7.40684C8.66775 7.26095 9.07193 7.46519 9.38058 7.64755C9.66718 7.81531 10.1448 8.02685 10.2257 8.37697C10.2477 8.54474 10.2183 8.7198 10.1522 8.88027Z" fill="#277F27"/>
</svg>
