<svg width="26" height="26" viewBox="0 0 26 26" fill="none" xmlns="http://www.w3.org/2000/svg">
<path d="M13.5881 6.60132C10.2517 6.60132 7.53271 9.30018 7.53271 12.6118C7.53271 13.7059 7.84136 14.7854 8.42191 15.7264L8.57623 15.9817L7.97364 18.221L10.2444 17.6156L10.5016 17.7688C11.4422 18.3232 12.5078 18.6149 13.5954 18.6149C16.9317 18.6149 19.6508 15.9161 19.6508 12.6045C19.6508 9.30018 16.9317 6.60132 13.5881 6.60132ZM17.1522 14.8803C16.9244 15.42 16.3659 15.7702 15.8 15.8796C15.2562 15.9817 14.8079 15.8139 14.3082 15.6462C13.86 15.5003 13.4264 15.2887 13.0296 15.0407C12.2285 14.552 11.5304 13.8956 10.9719 13.1442C10.8029 12.9108 10.6412 12.6774 10.5016 12.4294C10.3105 12.1012 10.1342 11.7583 10.046 11.3936C10.0092 11.2405 9.98719 11.08 9.98719 10.9268C9.97984 10.3724 10.193 9.80349 10.6412 9.44607C10.8984 9.23454 11.2806 9.14701 11.5672 9.30748C11.8832 9.48254 12.0448 9.92749 12.1918 10.2411C12.3094 10.4819 12.4343 10.8028 12.3902 11.08C12.3461 11.3572 12.1257 11.5833 11.9493 11.7875C11.8317 11.9261 11.817 12.0428 11.9126 12.1887C12.4858 13.1442 13.2868 13.8299 14.3303 14.2457C14.4699 14.304 14.5801 14.2821 14.6757 14.1727C14.852 13.9539 15.0358 13.5235 15.3077 13.4068C15.6677 13.261 16.0719 13.4652 16.3806 13.6475C16.6672 13.8153 17.1448 14.0268 17.2257 14.377C17.2477 14.5447 17.2183 14.7198 17.1522 14.8803Z" fill="#277F27"/>
<path d="M13 0C5.82024 0 0 5.77705 0 12.9035C0 20.03 5.82024 25.8071 13 25.8071C20.1798 25.8071 26 20.03 26 12.9035C26 5.77705 20.1798 0 13 0ZM13.5879 20.0227C12.3533 20.0227 11.1334 19.7164 10.0384 19.1255L5.97456 20.2051L7.06218 16.1932C6.44488 15.0918 6.12889 13.8591 6.12889 12.6118C6.12889 8.52698 9.47993 5.2008 13.5953 5.2008C17.7106 5.2008 21.0616 8.52698 21.0616 12.6118C21.0616 16.6965 17.7106 20.0227 13.5879 20.0227Z" fill="#277F27"/>
</svg>
